<svg width="15" height="14" viewBox="0 0 15 14" fill="none" xmlns="http://www.w3.org/2000/svg">
<path d="M0.951144 0.368629H13.7563C13.945 0.368629 14.1259 0.44358 14.2593 0.576993C14.3927 0.710406 14.4677 0.891353 14.4677 1.08003V12.4624C14.4677 12.6511 14.3927 12.832 14.2593 12.9654C14.1259 13.0988 13.945 13.1738 13.7563 13.1738H0.951144C0.762469 13.1738 0.581523 13.0988 0.44811 12.9654C0.314697 12.832 0.239746 12.6511 0.239746 12.4624V1.08003C0.239746 0.891353 0.314697 0.710406 0.44811 0.576993C0.581523 0.44358 0.762469 0.368629 0.951144 0.368629ZM7.39641 6.5457L2.83492 2.67214L1.91367 3.75631L7.40566 8.41952L12.7988 3.75275L11.8683 2.6764L7.39712 6.5457H7.39641Z" fill="#2B2B2B"/>
</svg>
