<svg width="11" height="16" viewBox="0 0 11 16" fill="none" xmlns="http://www.w3.org/2000/svg">
<path d="M1.08542 0.92215H9.62219C9.81087 0.92215 9.99182 0.9971 10.1252 1.13051C10.2586 1.26393 10.3336 1.44487 10.3336 1.63355V14.4387C10.3336 14.6274 10.2586 14.8083 10.1252 14.9417C9.99182 15.0752 9.81087 15.1501 9.62219 15.1501H1.08542C0.896747 15.1501 0.7158 15.0752 0.582387 14.9417C0.448974 14.8083 0.374023 14.6274 0.374023 14.4387V1.63355C0.374023 1.44487 0.448974 1.26393 0.582387 1.13051C0.7158 0.9971 0.896747 0.92215 1.08542 0.92215ZM5.35381 11.5931C5.16513 11.5931 4.98419 11.6681 4.85077 11.8015C4.71736 11.9349 4.64241 12.1158 4.64241 12.3045C4.64241 12.4932 4.71736 12.6741 4.85077 12.8075C4.98419 12.941 5.16513 13.0159 5.35381 13.0159C5.54248 13.0159 5.72343 12.941 5.85684 12.8075C5.99025 12.6741 6.06521 12.4932 6.06521 12.3045C6.06521 12.1158 5.99025 11.9349 5.85684 11.8015C5.72343 11.6681 5.54248 11.5931 5.35381 11.5931Z" fill="#2B2B2B"/>
</svg>
