<svg width="15" height="15" viewBox="0 0 15 15" fill="none" xmlns="http://www.w3.org/2000/svg">
<path d="M0.239746 2.52653L5.21953 0.392334L9.48792 2.52653L13.9719 0.605042C14.026 0.581839 14.085 0.572438 14.1437 0.577683C14.2023 0.582929 14.2588 0.602656 14.3079 0.635095C14.3571 0.667534 14.3974 0.711669 14.4253 0.76354C14.4532 0.815411 14.4678 0.873394 14.4677 0.932285V12.4861L9.48792 14.6203L5.21953 12.4861L0.73559 14.4076C0.681463 14.4308 0.622421 14.4402 0.563763 14.4349C0.505106 14.4297 0.448669 14.41 0.399517 14.3775C0.350365 14.3451 0.310036 14.301 0.28215 14.2491C0.254264 14.1972 0.239694 14.1392 0.239746 14.0803V2.52653ZM9.48792 13.0296V4.07453L9.44168 4.09445L5.21953 1.98302V10.9381L5.26577 10.9182L9.48792 13.0296Z" fill="#2B2B2B"/>
</svg>
