<svg width="16" height="18" viewBox="0 0 16 18" fill="none" xmlns="http://www.w3.org/2000/svg">
<path d="M15.7257 4.19915V4.4012H10.5088V0.132812H10.7557C11.0152 0.132812 11.264 0.217146 11.4474 0.367207L15.4392 3.63322C15.6226 3.78333 15.7257 3.98689 15.7257 4.19915ZM10.1827 5.4683C9.64473 5.4683 9.20456 5.10815 9.20456 4.66797V0.132812H1.05312C0.512887 0.132812 0.0749512 0.491123 0.0749512 0.933135V16.406C0.0749512 16.848 0.512887 17.2064 1.05312 17.2064H14.7475C15.2878 17.2064 15.7257 16.848 15.7257 16.406V5.4683H10.1827ZM5.09648 13.4884C5.07671 13.5056 5.05298 13.5195 5.02665 13.5293C5.00032 13.539 4.97189 13.5444 4.94301 13.5452C4.91412 13.5459 4.88533 13.542 4.85828 13.5337C4.83124 13.5254 4.80646 13.5127 4.78538 13.4966L2.14162 11.4687C2.11967 11.4518 2.10217 11.4315 2.0902 11.4089C2.07824 11.3863 2.07206 11.3619 2.07206 11.3373C2.07206 11.3127 2.07824 11.2883 2.0902 11.2657C2.10217 11.2431 2.11967 11.2228 2.14162 11.2059L4.78538 9.17805C4.80646 9.16188 4.83124 9.14926 4.85828 9.14092C4.88533 9.13258 4.91412 9.12868 4.94301 9.12944C4.97189 9.1302 5.00032 9.13561 5.02665 9.14536C5.05298 9.15511 5.07671 9.16901 5.09648 9.18626L5.89446 9.88271C5.91463 9.90031 5.93027 9.92104 5.94045 9.94368C5.95063 9.96632 5.95515 9.99041 5.95373 10.0145C5.95232 10.0386 5.945 10.0622 5.93222 10.084C5.91943 10.1057 5.90143 10.1251 5.8793 10.141L4.21792 11.3373L5.8793 12.5336C5.90143 12.5495 5.91943 12.569 5.93222 12.5907C5.945 12.6124 5.95232 12.6361 5.95373 12.6601C5.95515 12.6842 5.95063 12.7083 5.94045 12.731C5.93027 12.7536 5.91463 12.7743 5.89446 12.7919L5.09648 13.4884ZM7.18712 15.1717L6.06821 14.9059C6.01216 14.8926 5.96486 14.8616 5.93673 14.8197C5.9086 14.7779 5.90193 14.7286 5.91818 14.6827L8.4223 7.6257C8.43859 7.57983 8.47647 7.54114 8.52762 7.51812C8.57876 7.4951 8.63899 7.48965 8.69505 7.50295L9.81392 7.76872C9.84167 7.77532 9.86757 7.78632 9.89013 7.8011C9.91269 7.81589 9.93147 7.83416 9.9454 7.85488C9.95933 7.87561 9.96813 7.89837 9.9713 7.92187C9.97448 7.94538 9.97196 7.96917 9.9639 7.99188L7.45978 15.0489C7.45174 15.0716 7.43831 15.0928 7.42025 15.1113C7.40219 15.1298 7.37986 15.1451 7.35454 15.1565C7.32922 15.1679 7.3014 15.1751 7.27267 15.1777C7.24394 15.1803 7.21487 15.1783 7.18712 15.1717ZM13.7405 11.4687L11.0968 13.4966C11.0757 13.5127 11.0509 13.5254 11.0239 13.5337C10.9968 13.542 10.9681 13.5459 10.9392 13.5452C10.9103 13.5444 10.8819 13.539 10.8555 13.5293C10.8292 13.5195 10.8055 13.5056 10.7857 13.4884L9.98766 12.7919C9.9675 12.7743 9.95186 12.7536 9.94168 12.7309C9.9315 12.7083 9.92698 12.6842 9.92839 12.6601C9.92981 12.636 9.93712 12.6124 9.94991 12.5907C9.9627 12.5689 9.98069 12.5495 10.0028 12.5336L11.6643 11.3373L10.0029 10.141C9.98073 10.1251 9.96274 10.1057 9.94995 10.084C9.93716 10.0622 9.92985 10.0386 9.92843 10.0145C9.92702 9.99041 9.93154 9.96632 9.94172 9.94368C9.9519 9.92104 9.96754 9.90031 9.9877 9.88271L10.7857 9.18626C10.8055 9.16901 10.8292 9.15511 10.8556 9.14536C10.8819 9.13561 10.9103 9.1302 10.9392 9.12944C10.9681 9.12868 10.9969 9.13258 11.0239 9.14092C11.051 9.14926 11.0757 9.16188 11.0968 9.17805L13.7406 11.2059C13.7625 11.2228 13.78 11.2431 13.792 11.2657C13.804 11.2883 13.8101 11.3127 13.8101 11.3373C13.8101 11.3619 13.8039 11.3863 13.792 11.4089C13.78 11.4315 13.7625 11.4518 13.7405 11.4687Z" fill="#767676"/>
</svg>
