<svg width="24" height="25" viewBox="0 0 24 25" fill="none" xmlns="http://www.w3.org/2000/svg">
<path d="M12.1374 24.036C5.58897 24.036 0.280762 18.7278 0.280762 12.1794C0.280762 5.63097 5.58897 0.322754 12.1374 0.322754C18.6858 0.322754 23.994 5.63097 23.994 12.1794C23.994 18.7278 18.6858 24.036 12.1374 24.036ZM4.22783 17.4259C5.00715 18.592 6.03534 19.5706 7.23835 20.2915C8.44137 21.0124 9.78927 21.4576 11.185 21.5949C12.5807 21.7322 13.9895 21.5584 15.31 21.0858C16.6304 20.6132 17.8297 19.8537 18.8213 18.862C19.813 17.8703 20.5724 16.671 21.0448 15.3505C21.5173 14.03 21.691 12.6211 21.5535 11.2254C21.4161 9.82971 20.9708 8.48185 20.2498 7.2789C19.5288 6.07595 18.55 5.04785 17.3839 4.26864C17.8952 6.09246 17.9116 8.01951 17.4315 9.85177C16.9514 11.684 15.9921 13.3554 14.6522 14.6942C13.3135 16.0339 11.6424 16.9931 9.81032 17.4732C7.97829 17.9533 6.05148 17.937 4.22783 17.4259Z" fill="#2B2B2B"/>
</svg>
