<svg width="12" height="12" viewBox="0 0 12 12" fill="none" xmlns="http://www.w3.org/2000/svg">
<path d="M10.7079 5.34364C10.6625 4.47268 10.3596 3.6348 9.83752 2.93619C9.67845 3.10751 9.50841 3.26831 9.32848 3.41757C8.77568 3.87673 8.15794 4.25151 7.49536 4.52972C7.58777 4.72338 7.67242 4.91095 7.74712 5.08801V5.08967C7.7682 5.13914 7.78849 5.18895 7.80798 5.23907C8.64569 5.145 9.52878 5.17931 10.3847 5.29495C10.4987 5.31044 10.6061 5.32704 10.7079 5.34364ZM5.51507 1.22149C6.05429 1.98128 6.55154 2.77 7.00458 3.58412C7.68128 3.31742 8.24067 2.98101 8.69106 2.60642C8.8474 2.47757 8.99457 2.33798 9.1315 2.18867C8.33528 1.51901 7.32788 1.15251 6.28749 1.15398C6.02856 1.15381 5.77011 1.17621 5.51507 1.22093V1.22149ZM2.001 4.47218C2.37793 4.46267 2.75441 4.43997 3.12975 4.40412C4.03698 4.32297 4.93646 4.1709 5.81994 3.9493C5.35821 3.14712 4.8597 2.36668 4.32601 1.61046C3.75594 1.89287 3.25328 2.29458 2.85213 2.78834C2.45097 3.2821 2.1607 3.85637 2.001 4.47218ZM2.84756 8.36637C3.06225 8.05264 3.34444 7.69963 3.71903 7.31564C4.52354 6.4912 5.47302 5.84937 6.57189 5.49525L6.6062 5.48529C6.5149 5.28388 6.42914 5.10406 6.34282 4.93475C5.32694 5.23077 4.25684 5.41557 3.19062 5.51129C2.67051 5.55833 2.20407 5.5788 1.86101 5.58212C1.86003 6.59611 2.20865 7.57944 2.84812 8.36637H2.84756ZM7.95018 9.68325C7.73681 8.6072 7.43478 7.55065 7.04718 6.5244C5.93946 6.92666 5.05693 7.51483 4.3747 8.21642C4.09937 8.4944 3.85504 8.80144 3.64599 9.13215C4.4089 9.70139 5.33562 10.0083 6.28749 10.0069C6.85735 10.0078 7.42197 9.89821 7.95018 9.68435V9.68325ZM8.98653 9.08844C9.8504 8.42434 10.4389 7.46487 10.6393 6.39382C10.4511 6.34679 10.2127 6.29976 9.9504 6.26324C9.36729 6.17927 8.7756 6.17313 8.19087 6.24498C8.52012 7.17389 8.78596 8.12408 8.98653 9.08899V9.08844ZM6.28749 11.1136C3.23156 11.1136 0.754395 8.63639 0.754395 5.58046C0.754395 2.52453 3.23156 0.0473633 6.28749 0.0473633C9.34342 0.0473633 11.8206 2.52453 11.8206 5.58046C11.8206 8.63639 9.34342 11.1136 6.28749 11.1136Z" fill="#2B2B2B"/>
</svg>
