<svg width="16" height="18" viewBox="0 0 16 18" fill="none" xmlns="http://www.w3.org/2000/svg">
<path d="M11.2331 11.5522L7.90033 14.7335L4.56755 11.5522C2.06972 11.6555 0.0749512 13.6063 0.0749512 16.014V16.3341C0.0749512 17.2178 0.826047 17.9348 1.75182 17.9348H14.0488C14.9746 17.9348 15.7257 17.2178 15.7257 16.3341V16.014C15.7257 13.6063 13.7309 11.6555 11.2331 11.5522ZM0.550063 3.52226L0.773645 3.57228V5.51973C0.529102 5.65979 0.354429 5.90322 0.354429 6.19667C0.354429 6.47679 0.515128 6.71021 0.742204 6.85361L0.197223 8.93111C0.137834 9.16121 0.270586 9.39797 0.462726 9.39797H1.923C2.11514 9.39797 2.24789 9.16121 2.1885 8.93111L1.64352 6.85361C1.8706 6.71021 2.03129 6.47679 2.03129 6.19667C2.03129 5.90322 1.85662 5.65979 1.61208 5.51973V3.76569L3.91777 4.29591C3.61733 4.86947 3.42868 5.50973 3.42868 6.19667C3.42868 8.55429 5.43044 10.4651 7.90033 10.4651C10.3702 10.4651 12.372 8.55429 12.372 6.19667C12.372 5.50973 12.1868 4.86947 11.8829 4.29591L15.2471 3.52226C15.8829 3.37553 15.8829 2.61856 15.2471 2.47184L8.59553 0.937883C8.14137 0.834508 7.66277 0.834508 7.20862 0.937883L0.550063 2.4685C-0.082255 2.61523 -0.082255 3.37553 0.550063 3.52226Z" fill="#767676"/>
</svg>
