<svg width="12" height="12" viewBox="0 0 12 12" fill="none" xmlns="http://www.w3.org/2000/svg">
<path d="M6.3163 0.0473633C7.81964 0.0473633 8.00721 0.0528963 8.59704 0.0805618C9.18631 0.108227 9.58746 0.20063 9.94047 0.337851C10.3057 0.478391 10.6133 0.66873 10.9209 0.975816C11.2023 1.25241 11.42 1.587 11.5589 1.95628C11.6956 2.30874 11.7885 2.71044 11.8162 3.29972C11.8422 3.88954 11.8494 4.07712 11.8494 5.58046C11.8494 7.0838 11.8439 7.27137 11.8162 7.8612C11.7885 8.45047 11.6956 8.85162 11.5589 9.20463C11.4204 9.57412 11.2026 9.90879 10.9209 10.1851C10.6443 10.4664 10.3097 10.684 9.94047 10.8231C9.58802 10.9597 9.18631 11.0527 8.59704 11.0804C8.00721 11.1064 7.81964 11.1136 6.3163 11.1136C4.81296 11.1136 4.62538 11.108 4.03556 11.0804C3.44628 11.0527 3.04513 10.9597 2.69212 10.8231C2.32269 10.6844 1.98805 10.4667 1.71166 10.1851C1.43025 9.90855 1.21253 9.57395 1.07369 9.20463C0.93647 8.85218 0.844067 8.45047 0.816402 7.8612C0.790396 7.27137 0.783203 7.0838 0.783203 5.58046C0.783203 4.07712 0.788736 3.88954 0.816402 3.29972C0.844067 2.70989 0.93647 2.30929 1.07369 1.95628C1.21215 1.58677 1.42991 1.2521 1.71166 0.975816C1.98813 0.69431 2.32275 0.476582 2.69212 0.337851C3.04513 0.20063 3.44573 0.108227 4.03556 0.0805618C4.62538 0.0545563 4.81296 0.0473633 6.3163 0.0473633ZM6.3163 2.81391C5.58256 2.81391 4.87888 3.10539 4.36005 3.62421C3.84122 4.14304 3.54975 4.84672 3.54975 5.58046C3.54975 6.31419 3.84122 7.01787 4.36005 7.5367C4.87888 8.05553 5.58256 8.347 6.3163 8.347C7.05003 8.347 7.75371 8.05553 8.27254 7.5367C8.79137 7.01787 9.08284 6.31419 9.08284 5.58046C9.08284 4.84672 8.79137 4.14304 8.27254 3.62421C7.75371 3.10539 7.05003 2.81391 6.3163 2.81391ZM9.91281 2.67558C9.91281 2.49215 9.83994 2.31623 9.71023 2.18652C9.58053 2.05681 9.40461 1.98395 9.22117 1.98395C9.03774 1.98395 8.86182 2.05681 8.73211 2.18652C8.6024 2.31623 8.52954 2.49215 8.52954 2.67558C8.52954 2.85902 8.6024 3.03494 8.73211 3.16464C8.86182 3.29435 9.03774 3.36722 9.22117 3.36722C9.40461 3.36722 9.58053 3.29435 9.71023 3.16464C9.83994 3.03494 9.91281 2.85902 9.91281 2.67558ZM6.3163 3.92053C6.75654 3.92053 7.17875 4.09541 7.49004 4.40671C7.80134 4.71801 7.97623 5.14022 7.97623 5.58046C7.97623 6.0207 7.80134 6.44291 7.49004 6.7542C7.17875 7.0655 6.75654 7.24039 6.3163 7.24039C5.87606 7.24039 5.45385 7.0655 5.14255 6.7542C4.83125 6.44291 4.65637 6.0207 4.65637 5.58046C4.65637 5.14022 4.83125 4.71801 5.14255 4.40671C5.45385 4.09541 5.87606 3.92053 6.3163 3.92053Z" fill="#2B2B2B"/>
</svg>
