<svg width="11" height="11" viewBox="0 0 11 11" fill="none" xmlns="http://www.w3.org/2000/svg">
<path d="M2.5023 1.70776C2.50215 2.00125 2.38542 2.28267 2.17779 2.49009C1.97015 2.69752 1.68862 2.81397 1.39513 2.81382C1.10163 2.81368 0.82022 2.69695 0.612792 2.48931C0.405365 2.28168 0.288916 2.00015 0.289063 1.70665C0.289209 1.41316 0.40594 1.13174 0.613575 0.924316C0.82121 0.716888 1.10274 0.600439 1.39623 0.600586C1.68973 0.600733 1.97114 0.717463 2.17857 0.925098C2.386 1.13273 2.50245 1.41426 2.5023 1.70776ZM2.5355 3.63327H0.322261V10.5607H2.5355V3.63327ZM6.03241 3.63327H3.83024V10.5607H6.01028V6.92547C6.01028 4.90035 8.64957 4.71223 8.64957 6.92547V10.5607H10.8351V6.17296C10.8351 2.75905 6.92877 2.88631 6.01028 4.56283L6.03241 3.63327Z" fill="#2B2B2B"/>
</svg>
