<svg width="134" height="134" viewBox="0 0 134 134" fill="none" xmlns="http://www.w3.org/2000/svg">
<g clip-path="url(#clip0_247_5)">
<path d="M59.819 96.9976C59.8468 98.488 58.1136 100.06 56.2692 100.145C56.5158 101.299 56.818 102.423 56.3248 103.602C55.6093 105.458 53.685 106.469 51.785 106.217C48.7319 105.795 47.9052 101.494 50.8507 100.202C51.8962 99.7513 53.4627 100.791 52.3095 101.831C51.6774 102.42 50.6319 102.59 51.0973 103.825C51.3717 104.499 52.115 104.641 52.7194 104.528C53.7649 104.333 54.3415 103.431 54.397 102.42C54.536 101.547 54.206 100.649 53.9837 99.7478C52.6082 99.0735 51.5627 97.5263 51.9483 95.9543C52.2505 94.5774 53.9281 95.1381 53.2682 96.011C52.966 96.6001 53.4071 97.4447 53.9003 97.8954C54.0393 97.2495 54.2581 96.6321 54.6159 96.0394C55.9948 93.8783 59.7635 93.7647 59.819 96.9976ZM57.7558 95.9862C56.5436 95.7626 56.0504 97.3915 56.0226 98.2644C56.0226 98.3212 56.0226 98.378 56.0226 98.4348C56.4359 98.378 56.8493 98.2396 57.1793 98.0125C58.0302 97.4199 58.6659 96.2949 57.7558 95.9862Z" fill="#767676"/>
<path d="M63.4241 96.7453C63.1497 97.0824 62.6252 97.7567 62.0486 98.6013C62.2396 98.6013 62.4064 98.6297 62.4897 98.6297C62.9308 98.6581 62.4619 99.8398 61.9409 99.8398C61.7499 99.8398 61.472 99.8114 61.1976 99.8114C59.9055 101.696 58.6134 103.719 58.8044 103.889C59.1622 104.283 60.8954 102.288 61.611 101.444C62.1077 100.883 62.7398 101.529 62.2153 102.118C60.9788 103.438 59.1344 106.025 57.6478 105.745C56.5467 105.575 56.1056 104.311 57.0156 103.048C57.4012 102.487 58.2279 101.135 59.0788 99.7582C58.9399 99.7582 58.8044 99.7582 58.6655 99.7582C58.1688 99.7582 58.6933 98.548 59.19 98.5197C59.3289 98.5197 59.5755 98.5197 59.8499 98.5197C60.7287 97.1143 61.4998 95.9042 61.7499 95.6806C62.191 95.2583 62.712 94.9212 63.1531 95.0348C63.5873 95.1696 64.2473 95.7906 63.4241 96.7453Z" fill="#767676"/>
<path d="M69.2831 102.143C68.0709 103.463 66.2577 106.022 64.7711 105.77C64.2223 105.656 64 105.152 64.0556 104.531C63.5867 105.064 62.9545 105.543 62.2668 105.543C59.9848 105.543 60.6447 102.59 61.9924 100.99C63.3401 99.3856 65.0455 98.2642 66.1188 98.7113C66.4766 98.8533 66.6954 99.1336 66.8065 99.4424C66.8621 99.3572 66.8899 99.3004 66.9455 99.2472C67.3866 98.8249 67.9354 98.4877 68.3487 98.6297C68.8176 98.7433 69.4498 99.3891 68.6509 100.344C67.7166 101.412 65.9556 103.548 66.23 103.829C66.4766 104.081 68.0188 102.281 68.7343 101.44C69.2275 100.876 69.8041 101.579 69.2831 102.143ZM64.6878 102.143C65.5422 101.075 66.0632 100.177 65.8722 100.007C65.7089 99.8363 64.8545 100.624 63.9201 101.777C63.0136 102.902 62.5447 103.999 62.6558 104.109C62.8989 104.361 63.8333 103.211 64.6878 102.143Z" fill="#767676"/>
<path d="M74.1262 96.7453C73.8518 97.0824 73.3274 97.7567 72.7508 98.6013C72.9418 98.6013 73.1085 98.6297 73.1919 98.6297C73.633 98.6581 73.1641 99.8398 72.6431 99.8398C72.4521 99.8398 72.1742 99.8114 71.8998 99.8114C70.6077 101.696 69.3156 103.719 69.5066 103.889C69.8644 104.283 71.5976 102.288 72.3131 101.444C72.8098 100.883 73.442 101.529 72.9175 102.118C71.681 103.438 69.8366 106.025 68.3499 105.745C67.2489 105.575 66.8077 104.311 67.7178 103.048C68.1033 102.487 68.93 101.135 69.781 99.7582C69.6421 99.7582 69.5066 99.7582 69.3677 99.7582C68.871 99.7582 69.3954 98.548 69.8921 98.5197C70.0311 98.5197 70.2777 98.5197 70.5521 98.5197C71.4309 97.1143 72.202 95.9042 72.4521 95.6806C72.8932 95.2583 73.4142 94.9212 73.8553 95.0348C74.2895 95.1696 74.9494 95.7906 74.1262 96.7453Z" fill="#767676"/>
<path d="M76.1599 102.143C74.9199 103.463 73.1346 106.022 71.6201 105.77C70.5469 105.575 70.4357 104.308 71.318 103.045C72.2523 101.753 73.2978 99.7549 73.7945 99.251C74.2356 98.8287 74.7845 98.4915 75.1978 98.6335C75.6667 98.7471 76.3267 99.3929 75.5 100.348C74.5656 101.416 72.8046 103.552 73.079 103.832C73.3256 104.084 74.8956 102.285 75.6111 101.444C76.0766 100.876 76.6809 101.579 76.1599 102.143ZM76.2155 97.8705C74.8956 97.8705 76.1877 94.8896 77.7021 95.2267C79.1019 95.5355 77.261 98.2077 76.2155 97.8705Z" fill="#767676"/>
<path d="M82.7646 102.143C82.3513 102.565 81.9136 103.126 81.4447 103.662C80.3992 104.815 80.0692 105.237 79.0515 105.039C78.8848 105.01 78.7771 104.953 78.666 104.868C78.006 105.347 77.3461 105.599 76.7938 105.599C74.9216 105.599 74.3172 103.658 75.4461 101.721C76.575 99.7546 78.4159 98.4877 79.7392 98.4877C81.1425 98.4877 82.2158 99.6694 81.1147 101.887C80.757 102.59 80.3436 103.207 79.9025 103.743C80.0935 103.658 80.4235 103.406 80.757 103.041C81.278 102.505 81.8303 101.859 82.188 101.437C82.6812 100.876 83.2856 101.579 82.7646 102.143ZM79.6559 100.145C78.857 100.145 76.1616 104.024 76.9327 104.024C77.5093 104.024 80.4548 100.145 79.6559 100.145Z" fill="#767676"/>
<path d="M89.1991 102.143C87.9626 103.463 86.1738 106.022 84.6594 105.77C83.145 105.49 83.5305 103.999 84.4405 102.736C85.3193 101.472 86.4482 100.514 86.2571 100.262C86.0904 100.01 84.4405 101.724 83.9195 102.285C83.3151 103.211 82.7073 104.113 82.3252 104.645C81.7486 105.461 81.4986 105.77 80.8386 105.77C79.8209 105.77 80.0953 104.393 81.3353 102.736C82.2419 101.472 83.0407 100.149 83.1797 99.8684C83.593 99.0238 83.7285 98.6051 84.3085 98.6051C84.7497 98.6051 85.2985 98.9422 85.3818 99.5313C86.0418 98.999 86.7295 98.6051 87.4173 98.6051C88.0772 98.6051 89.0115 99.3929 88.1328 100.685C87.254 101.976 85.8507 103.552 86.1251 103.832C86.3717 104.084 87.9139 102.285 88.6295 101.444C89.1157 100.876 89.7236 101.579 89.1991 102.143Z" fill="#767676"/>
<path d="M18.6037 61.684L19.5485 63.4797C20.8476 65.9496 19.9375 69.0548 17.5478 70.3679L15.4325 71.5319L19.7326 79.694C19.941 80.0879 19.7986 80.5599 19.4165 80.7729L17.4957 81.8304C17.1102 82.0433 16.6482 81.8978 16.4398 81.5075L6.83232 63.2774C6.62392 62.8835 6.76632 62.4115 7.1484 62.1986L11.8688 59.6009C14.262 58.2843 17.3047 59.2176 18.6037 61.684ZM15.2345 63.3555C14.908 62.738 14.1786 62.4896 13.5742 62.8232L11.4589 63.9872L13.6472 68.1392L15.7625 66.9752C16.3669 66.6417 16.5683 65.8822 16.2557 65.2931L15.2345 63.3555Z" fill="#767676"/>
<path d="M24.917 57.6316L26.5217 62.0852L29.0955 61.1164C29.5053 60.9638 29.9465 61.1696 30.0958 61.5884L30.7627 63.4408C30.9121 63.8596 30.7106 64.3103 30.3008 64.4629L27.727 65.4317L29.9986 71.7377L34.0659 70.2082C34.4758 70.0556 34.9169 70.2615 35.0663 70.6802L35.754 72.593C35.9034 73.0117 35.7019 73.4624 35.2921 73.615L28.4147 76.202C28.0048 76.3546 27.5637 76.1488 27.4144 75.73L20.412 56.3008C20.2626 55.8821 20.4641 55.4314 20.8739 55.2788L27.7478 52.6918C28.1577 52.5392 28.5988 52.745 28.7481 53.1637L29.4359 55.0765C29.5853 55.4953 29.3838 55.9459 28.9739 56.0985L24.917 57.6316Z" fill="#767676"/>
<path d="M42.0702 49.5903L42.5669 51.6308C42.6711 52.0637 42.3898 52.4967 41.9973 52.5961L39.3957 53.2561L43.5916 70.5384C43.6958 70.9713 43.4457 71.3972 43.0219 71.5036L40.9031 72.0395C40.5106 72.1388 40.0626 71.8904 39.9584 71.4575L35.7625 54.1752L33.1887 54.8282C32.7649 54.9347 32.3481 54.6792 32.2439 54.2462L31.7472 52.2057C31.643 51.7728 31.8931 51.3469 32.3169 51.2404L41.122 49.0083C41.5214 48.9089 41.966 49.1574 42.0702 49.5903Z" fill="#767676"/>
<path d="M54.8158 58.7957L58.317 63.7C58.515 63.9945 58.6262 64.3636 58.6748 64.7114L59.1055 67.8661C59.1645 68.3062 58.904 68.7001 58.4733 68.7604L56.3129 69.0692C55.8822 69.1295 55.4619 68.8349 55.4028 68.3949L55.1006 66.1876C55.052 65.8398 54.9443 65.5027 54.7394 65.1443L50.5817 59.367L51.8842 68.9272C51.9433 69.3672 51.6515 69.7647 51.2208 69.825L49.0604 70.1338C48.6574 70.1905 48.2406 69.896 48.1816 69.456L45.382 48.948C45.3229 48.508 45.646 48.107 46.0454 48.0502L51.3875 47.2908C54.1037 46.904 56.6081 48.8629 56.9867 51.638L57.2576 53.6252C57.5494 55.7686 56.5039 57.7843 54.8158 58.7957ZM51.8808 50.9176L49.4737 51.2618L50.1163 55.9638L52.5233 55.6196C53.1729 55.5273 53.6487 54.8815 53.5515 54.154L53.2528 51.9786C53.159 51.2831 52.5303 50.8253 51.8808 50.9176Z" fill="#767676"/>
<path d="M71.4335 49.9983L71.9024 64.1046C71.9788 66.3651 70.2317 68.2424 68.0504 68.3169L64.6221 68.434C62.4096 68.5121 60.5722 66.759 60.4992 64.4985L60.0303 50.3922C59.9539 48.1317 61.6697 46.2224 63.8823 46.1479L67.3106 46.0308C69.4884 45.9563 71.3571 47.7413 71.4335 49.9983ZM67.7031 50.449C67.6892 50.0019 67.3036 49.6967 66.8659 49.7144L64.5596 49.796C64.122 49.8102 63.7607 50.1438 63.7746 50.5874L64.2192 63.9591C64.2331 64.4062 64.6221 64.7753 65.0563 64.7576L67.3627 64.6759C67.8003 64.6617 68.1615 64.2643 68.1442 63.8207L67.7031 50.449Z" fill="#767676"/>
<path d="M79.0133 47.0344L77.999 64.8739L82.3547 65.1329C82.7889 65.1578 83.1119 65.5304 83.0876 65.974L82.973 68.0074C82.9487 68.451 82.5839 68.781 82.1497 68.7562L74.8348 68.3232C74.4006 68.2984 74.0776 67.9258 74.1019 67.4822L75.2759 46.8144C75.3002 46.3708 75.6649 46.0408 76.0991 46.0656L78.2769 46.1934C78.7146 46.2218 79.0376 46.5909 79.0133 47.0344Z" fill="#767676"/>
<path d="M90.5351 51.0312L89.8717 55.7296L92.5879 56.1306C93.0186 56.1945 93.3103 56.592 93.2478 57.032L92.9734 58.9873C92.9109 59.4274 92.5219 59.7255 92.0912 59.6616L89.375 59.2606L88.4371 65.9143L92.7268 66.546C93.1575 66.6099 93.4493 67.0073 93.3868 67.4474L93.1019 69.4666C93.0394 69.9066 92.6504 70.2047 92.2197 70.1408L84.9672 69.0727C84.5365 69.0088 84.2447 68.6114 84.3073 68.1713L87.1971 47.6777C87.2597 47.2376 87.6487 46.9395 88.0794 47.0034L95.3319 48.0716C95.7626 48.1355 96.0543 48.5329 95.9918 48.9729L95.707 50.9921C95.6445 51.4322 95.2555 51.7303 94.8248 51.6664L90.5351 51.0312Z" fill="#767676"/>
<path d="M108.182 51.0309L110.297 51.581C110.721 51.691 110.961 52.1488 110.853 52.5817L106.643 69.4347C106.105 71.5959 103.903 72.9267 101.791 72.3766L98.467 71.5107C96.3517 70.9607 95.0457 68.7108 95.5875 66.5531L99.7973 49.7002C99.905 49.2672 100.329 48.9833 100.752 49.0933L102.868 49.6434C103.292 49.7534 103.531 50.2112 103.424 50.6441L99.3041 67.128C99.1964 67.561 99.4743 67.9939 99.898 68.1039L102.135 68.6859C102.559 68.7959 103.007 68.5511 103.114 68.1181L107.234 51.6342C107.335 51.2048 107.758 50.9209 108.182 51.0309Z" fill="#767676"/>
<path d="M123.233 76.7345L122.104 79.4635C121.931 79.8716 121.451 80.0419 121.08 79.8751L119.079 78.9844C118.68 78.8069 118.502 78.3456 118.676 77.9375L119.645 75.6592C119.722 75.4853 119.781 75.3362 119.829 75.1517L122.716 65.4246L117.756 73.6399C117.551 73.9664 117.151 74.1013 116.807 73.9487L114.633 72.9834C114.289 72.8308 114.088 72.4298 114.178 72.0536L116.682 62.7452L111.681 71.532C111.576 71.6952 111.514 71.8407 111.441 72.0146L110.472 74.2929C110.298 74.701 109.847 74.882 109.447 74.7046L107.447 73.8138C107.047 73.6364 106.87 73.1751 107.044 72.7669L108.228 70.0628C108.266 69.9741 108.353 69.7718 108.482 69.5482L117.523 54.7073C117.728 54.3808 118.127 54.246 118.499 54.4128L120.642 55.3674C121.014 55.5342 121.187 55.921 121.097 56.2971L118.28 67.3764L124.327 57.7308C124.532 57.4044 124.932 57.2695 125.276 57.4221L127.45 58.3874C127.822 58.5542 127.995 58.941 127.905 59.3171L123.438 76.1915C123.358 76.4399 123.271 76.6457 123.233 76.7345Z" fill="#767676"/>
<path d="M69.7996 75.0845C69.7857 75.0845 69.7684 75.0845 69.7545 75.0845C69.7475 75.0845 69.7406 75.0845 69.7302 75.0845C69.7232 75.0845 69.7163 75.0845 69.7059 75.0845C69.692 75.0845 69.6746 75.0845 69.6607 75.0845C47.6288 75.0845 28.1742 81.3941 16.4341 91.0394L21.9846 93.8677L22.655 100.436C24.6279 98.6372 27.0315 96.9054 29.8519 95.2872C40.3312 89.2651 54.468 85.947 69.6572 85.947C69.6711 85.947 69.6885 85.947 69.7024 85.947C69.7093 85.947 69.7163 85.947 69.7267 85.947C69.7336 85.947 69.7406 85.947 69.751 85.947C69.7649 85.947 69.7823 85.947 69.7962 85.947C84.9889 85.947 99.1257 89.2651 109.602 95.2872C112.422 96.909 114.826 98.6372 116.798 100.436L117.469 93.8677L123.019 91.0394C111.286 81.3941 91.8315 75.0845 69.7996 75.0845Z" fill="#767676"/>
<path d="M46.0597 102.881C47.2233 102.881 47.2233 101.04 46.0597 101.04C44.8961 101.04 44.8961 102.881 46.0597 102.881Z" fill="#767676"/>
<path d="M92.0866 102.881C93.2502 102.881 93.2502 101.04 92.0866 101.04C90.923 101.04 90.923 102.881 92.0866 102.881Z" fill="#767676"/>
<path d="M28.7587 90.5851C29.0818 91.1351 28.9081 91.8448 28.3697 92.1748C27.8383 92.5013 27.1366 92.3274 26.8136 91.7774C26.494 91.2345 26.6712 90.5141 27.2026 90.1877C27.741 89.8577 28.4392 90.0422 28.7587 90.5851Z" fill="white"/>
<path d="M34.5639 88.2677L34.9738 89.1585C35.2795 89.8221 35.005 90.617 34.3555 90.9329L32.9523 91.6072C32.8481 91.6568 32.7299 91.6143 32.6813 91.5078L30.4201 86.6033C30.3715 86.4968 30.4132 86.3762 30.5174 86.3265L31.8026 85.709C32.4521 85.3967 33.2267 85.6877 33.5323 86.3513L33.7581 86.8411C33.8727 87.0895 33.9109 87.3486 33.8658 87.6005C34.168 87.7176 34.418 87.9483 34.5639 88.2677ZM32.136 87.9696L32.7195 87.6893C32.8758 87.6147 32.9453 87.416 32.8724 87.2563L32.6327 86.7346C32.5563 86.5678 32.3618 86.4968 32.2055 86.5714L31.6219 86.8517L32.136 87.9696ZM33.6574 88.6474C33.5809 88.4806 33.3864 88.4097 33.2301 88.4842L32.5285 88.8213L33.251 90.3899L33.9526 90.0528C34.1089 89.9782 34.1784 89.7795 34.0985 89.6056L33.6574 88.6474Z" fill="white"/>
<path d="M35.4142 85.1272L35.8726 86.2805L36.5395 86.0037C36.6472 85.9612 36.7618 86.0108 36.807 86.1173L36.998 86.5964C37.0397 86.7064 36.9911 86.8235 36.8869 86.8696L36.22 87.1464L36.866 88.7788L37.9185 88.3423C38.0227 88.2997 38.1408 88.3494 38.1825 88.4558L38.3805 88.9491C38.4222 89.0591 38.3735 89.1762 38.2693 89.2224L36.4909 89.9569C36.3833 89.9995 36.2686 89.9498 36.2235 89.8434L34.2297 84.8185C34.188 84.712 34.2367 84.5914 34.3409 84.5452L36.1193 83.8107C36.2235 83.7681 36.3416 83.8178 36.3833 83.9242L36.5778 84.4175C36.6194 84.524 36.5708 84.6446 36.4666 84.6907L35.4142 85.1272Z" fill="white"/>
<path d="M39.6342 84.0766L39.5786 83.9098C39.5195 83.7359 39.3354 83.6507 39.1652 83.7111L38.8109 83.8388C38.6408 83.8991 38.547 84.0837 38.606 84.2575L38.7693 84.7366C38.8283 84.9105 39.0124 84.9957 39.1861 84.9425L39.5404 84.8147C40.2281 84.5698 40.9645 84.9354 41.2042 85.638L41.5341 86.6068C41.7703 87.2988 41.4091 88.0653 40.7317 88.3066L40.3775 88.4344C39.7002 88.6757 38.9499 88.3066 38.7137 87.6111L38.4949 86.9652C38.4566 86.8552 38.5122 86.7381 38.6199 86.6991L39.1583 86.5074C39.266 86.4684 39.3806 86.5252 39.4188 86.6352L39.6515 87.3201C39.7106 87.494 39.8981 87.5862 40.0683 87.5259L40.4226 87.3982C40.5928 87.3378 40.6831 87.1462 40.6241 86.9723L40.2733 85.9467C40.2142 85.7728 40.0301 85.6877 39.8599 85.748L39.5056 85.8758C38.8248 86.11 38.0815 85.7551 37.8453 85.0631L37.6925 84.6124C37.4563 83.9204 37.8175 83.1539 38.4949 82.9126L38.8492 82.7848C39.5369 82.54 40.2767 82.9126 40.5129 83.6081L40.5581 83.743C40.5963 83.853 40.5407 83.9701 40.433 84.0091L39.8947 84.2008C39.787 84.2434 39.6724 84.1866 39.6342 84.0766Z" fill="white"/>
<path d="M43.6779 81.465L43.8307 81.9937C43.862 82.1073 43.796 82.2208 43.6918 82.2527L43.018 82.455L44.3135 86.9261C44.3448 87.0397 44.2858 87.1532 44.1746 87.1852L43.6258 87.352C43.5251 87.3839 43.4035 87.3236 43.3723 87.21L42.0767 82.7389L41.4132 82.9412C41.3021 82.9731 41.191 82.9128 41.1597 82.7992L41.0069 82.2705C40.9756 82.1569 41.0346 82.0434 41.1458 82.0114L43.4243 81.323C43.5285 81.2946 43.6467 81.3514 43.6779 81.465Z" fill="white"/>
<path d="M50.1471 84.6658L50.4667 84.5948C50.5605 84.5735 50.6786 84.641 50.7029 84.7545L50.8175 85.2833C50.8418 85.3969 50.7654 85.5069 50.6542 85.5353L49.0773 85.8937C48.4556 86.0357 47.8408 85.6347 47.7053 85.0065L46.9655 81.596C46.8265 80.9608 47.219 80.3326 47.8408 80.1942L48.5111 80.0416C49.1329 79.8997 49.7477 80.3007 49.8831 80.9359L50.491 83.7467C50.5674 84.1015 50.4215 84.46 50.1471 84.6658ZM48.9245 81.1489C48.9002 81.0353 48.7821 80.9572 48.6709 80.9856L48.0804 81.1205C47.9693 81.1453 47.8929 81.266 47.9207 81.3796L48.6605 84.7936C48.6848 84.9 48.7994 84.9746 48.9106 84.9497L49.706 84.7687L48.9245 81.1489Z" fill="white"/>
<path d="M52.9714 79.1651L53.5341 79.0657C53.6453 79.0444 53.753 79.1296 53.7703 79.2432L54.538 83.7289C54.6352 84.3039 54.2497 84.8646 53.687 84.9639L52.8012 85.1201C52.2385 85.2195 51.6897 84.8255 51.5925 84.2506L50.8248 79.7648C50.804 79.6513 50.877 79.5342 50.9881 79.5164L51.5508 79.4171C51.662 79.3958 51.7696 79.4809 51.787 79.5945L52.5372 83.9809C52.5581 84.0945 52.6692 84.169 52.7804 84.1477L53.3744 84.0412C53.4855 84.0199 53.5689 83.9135 53.548 83.7999L52.7978 79.4135C52.7873 79.2999 52.8603 79.1828 52.9714 79.1651Z" fill="white"/>
<path d="M58.3845 83.3175L58.4782 84.045C58.4921 84.1621 58.4157 84.265 58.3011 84.2792L57.7245 84.3573C57.6203 84.3715 57.5196 84.2934 57.5022 84.1763L57.405 83.424L56.3212 83.5695L56.4185 84.3218C56.4324 84.4389 56.356 84.5418 56.2414 84.556L55.6752 84.6341C55.5606 84.6483 55.4599 84.5702 55.446 84.4531L55.3522 83.7256C55.3487 83.6937 55.3452 83.6688 55.3452 83.6156L55.4529 78.9561C55.4564 78.8461 55.5363 78.761 55.6405 78.7468L56.8562 78.5835C56.9604 78.5693 57.0541 78.651 57.0819 78.7397L58.3601 83.2146C58.374 83.2607 58.3775 83.2856 58.3845 83.3175ZM57.1722 82.5049L56.3664 79.641L56.3143 82.6184L57.1722 82.5049Z" fill="white"/>
<path d="M59.7025 78.4694L60.1402 83.1289L61.2795 83.0153C61.3941 83.0047 61.4913 83.0863 61.5018 83.2034L61.5504 83.7357C61.5608 83.8528 61.4809 83.9522 61.3663 83.9628L59.4559 84.1509C59.3413 84.1616 59.244 84.08 59.2336 83.9628L58.7265 78.5652C58.7161 78.4481 58.796 78.3488 58.9106 78.3381L59.4802 78.2813C59.5949 78.2707 59.6921 78.3523 59.7025 78.4694Z" fill="white"/>
<path d="M63.0853 83.8351L62.5157 83.8777C62.4011 83.8848 62.3073 83.7996 62.2969 83.6825L61.9252 78.2814C61.9183 78.1643 62.0016 78.0579 62.1128 78.0508L62.6824 78.0082C62.797 78.0011 62.8943 78.0934 62.9012 78.2105L63.2729 83.6116C63.2833 83.7287 63.2 83.828 63.0853 83.8351Z" fill="white"/>
<path d="M66.5694 78.018L66.5937 78.5681C66.5972 78.6852 66.5034 78.781 66.3992 78.7846L65.6975 78.8165L65.8955 83.4761C65.899 83.5933 65.8156 83.6891 65.701 83.6926L65.1314 83.7175C65.0237 83.721 64.923 83.6358 64.9195 83.5187L64.7215 78.8591L64.0268 78.891C63.9122 78.8946 63.8184 78.8094 63.8149 78.6923L63.7906 78.1423C63.7872 78.0251 63.8705 77.9293 63.9851 77.9258L66.361 77.8193C66.4617 77.8122 66.5624 77.9009 66.5694 78.018Z" fill="white"/>
<path d="M69.6799 77.7674L70.253 77.7603C70.3677 77.7603 70.458 77.849 70.458 77.9661L70.4649 78.7929C70.4649 78.8852 70.451 78.9774 70.4094 79.0591L69.3916 81.2449L69.4125 83.3953C69.4125 83.5124 69.3256 83.6046 69.211 83.6046L68.6379 83.6117C68.5233 83.6117 68.433 83.523 68.433 83.4059L68.4121 81.2555L67.3458 79.0874C67.311 79.0058 67.2867 78.9136 67.2867 78.8213L67.2798 77.9945C67.2798 77.8774 67.3666 77.7852 67.4813 77.7852L68.0544 77.7781C68.169 77.7781 68.2593 77.8668 68.2593 77.9839L68.2663 78.619C68.2663 78.6865 68.2836 78.7539 68.3184 78.8107L68.8915 79.9887L69.4438 78.8C69.4681 78.7432 69.482 78.6758 69.482 78.6084L69.475 77.9732C69.4785 77.8632 69.5653 77.771 69.6799 77.7674Z" fill="white"/>
<path d="M75.6509 80.8582C75.6231 81.5006 75.0917 81.9939 74.463 81.962C73.8413 81.9336 73.3515 81.3906 73.3828 80.7481C73.4106 80.1128 73.9489 79.6123 74.5707 79.6443C75.1994 79.6762 75.6787 80.2264 75.6509 80.8582Z" fill="white"/>
<path d="M81.7273 82.0077L81.6266 82.9872C81.5536 83.7182 80.9145 84.254 80.199 84.176L78.6568 84.0127C78.5422 84.0021 78.4623 83.8992 78.4762 83.7821L79.0284 78.3917C79.0389 78.2746 79.1396 78.193 79.2542 78.2072L80.6679 78.3562C81.3834 78.4307 81.8975 79.0908 81.8245 79.8218L81.769 80.3612C81.7412 80.6344 81.6439 80.8757 81.4737 81.0674C81.6682 81.3335 81.7655 81.66 81.7273 82.0077ZM80.7582 81.8552C80.7756 81.6742 80.647 81.5074 80.4768 81.4897L79.7058 81.408L79.5286 83.1327L80.2997 83.2143C80.4699 83.232 80.6332 83.0972 80.6505 82.9091L80.7582 81.8552ZM79.7995 80.4712L80.4421 80.5386C80.6123 80.5564 80.7756 80.4215 80.7929 80.2476L80.852 79.6763C80.8694 79.4953 80.7408 79.3285 80.5706 79.3108L79.9281 79.2434L79.7995 80.4712Z" fill="white"/>
<path d="M83.9847 79.7331L83.8111 80.9645L84.5231 81.0675C84.6377 81.0852 84.7141 81.1881 84.6968 81.3017L84.6238 81.8127C84.6064 81.9298 84.5057 82.0079 84.3946 81.9902L83.6825 81.8873L83.4394 83.6298L84.5613 83.793C84.6759 83.8108 84.7523 83.9137 84.735 84.0273L84.662 84.556C84.6447 84.6732 84.5439 84.7512 84.4293 84.7335L82.5294 84.4567C82.4147 84.4389 82.3418 84.336 82.3557 84.2224L83.1059 78.8565C83.1233 78.7394 83.2241 78.6648 83.3387 78.679L85.2386 78.9558C85.3532 78.9736 85.4262 79.0765 85.4123 79.1901L85.3393 79.7189C85.322 79.836 85.2212 79.9105 85.1066 79.8963L83.9847 79.7331Z" fill="white"/>
<path d="M88.1308 80.9611L88.1621 80.7872C88.1933 80.6062 88.0753 80.4394 87.8981 80.4075L87.5299 80.3401C87.3528 80.3081 87.1826 80.4181 87.1513 80.5991L87.061 81.0995C87.0297 81.2804 87.1478 81.4472 87.325 81.4863L87.6932 81.5537C88.4087 81.6885 88.8741 82.377 88.7421 83.1044L88.5615 84.1122C88.433 84.8362 87.7487 85.3188 87.0436 85.1875L86.6755 85.12C85.9704 84.9887 85.4945 84.2897 85.623 83.5693L85.7446 82.8951C85.7654 82.7815 85.8696 82.707 85.9808 82.7283L86.5435 82.8347C86.6546 82.856 86.7276 82.9625 86.7067 83.076L86.5782 83.7893C86.5469 83.9703 86.665 84.1442 86.8422 84.1761L87.2104 84.2435C87.3875 84.2755 87.5577 84.1548 87.589 83.9738L87.78 82.9057C87.8113 82.7247 87.6932 82.5579 87.516 82.526L87.1478 82.4586C86.4427 82.3202 85.9669 81.6353 86.0954 80.9149L86.1788 80.4465C86.3073 79.7261 86.9915 79.24 87.6966 79.3713L88.0648 79.4387C88.7803 79.57 89.2458 80.2691 89.1138 80.9894L89.0895 81.1278C89.0686 81.2414 88.9644 81.3159 88.8533 81.2946L88.2906 81.1882C88.1829 81.1846 88.11 81.0782 88.1308 80.9611Z" fill="white"/>
<path d="M92.8788 80.6945L92.7608 81.2304C92.7364 81.3439 92.6218 81.4113 92.5176 81.3865L91.8333 81.2304L90.833 85.7798C90.8087 85.8933 90.701 85.9643 90.5899 85.9359L90.0307 85.8082C89.9265 85.7833 89.85 85.6733 89.8778 85.5598L90.8782 81.0103L90.2009 80.8542C90.0897 80.8294 90.0203 80.7193 90.048 80.6058L90.1661 80.0699C90.1904 79.9564 90.2981 79.8854 90.4093 79.9138L92.726 80.4461C92.8267 80.4709 92.9031 80.581 92.8788 80.6945Z" fill="white"/>
<path d="M98.4291 83.445L98.2797 83.9561C98.0748 84.6588 97.3419 85.0633 96.6611 84.854L96.0602 84.6694L95.3794 86.9939C95.3481 87.1075 95.2335 87.1678 95.1258 87.1359L94.577 86.9691C94.4659 86.9371 94.4068 86.82 94.4416 86.71L95.9595 81.5144C95.9907 81.4044 96.1054 81.3405 96.213 81.3725L97.5572 81.7842C98.238 81.9935 98.634 82.7424 98.4291 83.445ZM97.5017 83.1185C97.5538 82.9411 97.4635 82.7601 97.2898 82.7069L96.6889 82.5223L96.345 83.7041L96.9459 83.8887C97.1196 83.9419 97.2933 83.839 97.3419 83.6686L97.5017 83.1185Z" fill="white"/>
<path d="M100.75 86.1419L100.986 87.714C100.996 87.8063 100.979 87.9056 100.951 87.9943L100.68 88.7821C100.642 88.8921 100.534 88.9525 100.427 88.9134L99.8884 88.7183C99.7807 88.6792 99.7182 88.5586 99.7564 88.4486L99.9475 87.8985C99.9787 87.8134 99.9926 87.7211 99.9857 87.6111L99.7009 85.7551L98.8777 88.1398C98.8395 88.2498 98.7248 88.3066 98.6172 88.2676L98.0788 88.0724C97.978 88.0369 97.9155 87.9163 97.9537 87.8063L99.7217 82.6927C99.7599 82.5827 99.8815 82.5294 99.9822 82.5649L101.316 83.044C101.993 83.2889 102.344 84.0518 102.104 84.7438L101.934 85.2406C101.743 85.7729 101.264 86.1136 100.75 86.1419ZM100.996 83.9489L100.396 83.7324L99.9892 84.9035L100.59 85.1199C100.753 85.1767 100.941 85.088 101.003 84.907L101.191 84.3641C101.253 84.1902 101.16 84.0057 100.996 83.9489Z" fill="white"/>
<path d="M102.066 89.581L101.534 89.3645C101.427 89.3219 101.378 89.2012 101.42 89.0948L103.386 84.0661C103.427 83.9561 103.549 83.8993 103.653 83.9419L104.184 84.1584C104.292 84.201 104.337 84.3287 104.296 84.4387L102.33 89.4674C102.288 89.5739 102.173 89.6271 102.066 89.581Z" fill="white"/>
<path d="M106.136 88.4346L106.657 88.6759C106.762 88.7256 106.803 88.8533 106.755 88.9598L106.185 90.2515C105.949 90.7838 105.33 91.0287 104.803 90.7874L103.983 90.4112C103.462 90.1699 103.226 89.5311 103.458 88.9988L104.948 85.624C105.188 85.0846 105.803 84.8468 106.331 85.0881L107.151 85.4643C107.679 85.7091 107.911 86.3373 107.675 86.8767L107.307 87.7142C107.262 87.8206 107.137 87.8739 107.032 87.8277L106.511 87.5864C106.407 87.5367 106.366 87.409 106.414 87.3025L106.748 86.5502C106.793 86.4437 106.741 86.3195 106.647 86.2734L106.088 86.0179C105.984 85.9682 105.858 86.0108 105.81 86.1172L104.403 89.3111C104.358 89.4176 104.41 89.5418 104.514 89.5915L105.073 89.847C105.171 89.8931 105.296 89.8505 105.344 89.7441L105.872 88.5517C105.911 88.4417 106.032 88.3884 106.136 88.4346Z" fill="white"/>
<path d="M109.582 87.732L109.02 88.8357L109.655 89.1764C109.756 89.2296 109.794 89.3538 109.742 89.4567L109.506 89.9145C109.454 90.0174 109.332 90.0565 109.232 90.0032L108.596 89.6626L107.797 91.224L108.804 91.7599C108.905 91.8131 108.943 91.9373 108.891 92.0403L108.648 92.5122C108.596 92.6152 108.474 92.6542 108.374 92.601L106.672 91.6925C106.571 91.6392 106.533 91.515 106.585 91.4121L109.044 86.6035C109.096 86.5006 109.218 86.4616 109.318 86.5148L111.02 87.4233C111.121 87.4765 111.159 87.6007 111.107 87.7036L110.864 88.1756C110.812 88.2785 110.69 88.3176 110.59 88.2643L109.582 87.732Z" fill="white"/>
<path d="M112.61 91.7527C112.287 92.3028 111.592 92.4838 111.054 92.1538C110.522 91.8273 110.338 91.1139 110.661 90.5638C110.981 90.0207 111.686 89.8397 112.217 90.1627C112.759 90.4928 112.93 91.2097 112.61 91.7527Z" fill="white"/>
<path d="M72.2352 33.9228C72.2352 37.1733 69.6545 39.81 66.4728 39.81C63.2912 39.81 60.7104 37.1733 60.7104 33.9228C60.7104 30.6722 66.4728 21.8466 66.4728 21.8466C66.4728 21.8466 72.2352 30.6722 72.2352 33.9228Z" fill="#767676"/>
<path d="M54.329 41.9749C52.106 41.9749 50.2964 40.126 50.2964 37.8549C50.2964 35.7789 53.5128 30.7929 53.881 30.2322L54.3325 29.5438L54.784 30.2322C55.1522 30.7929 58.3686 35.7789 58.3686 37.8549C58.3617 40.126 56.552 41.9749 54.329 41.9749ZM54.329 31.5523C53.221 33.3373 51.3766 36.5738 51.3766 37.8549C51.3766 39.5157 52.7 40.8713 54.329 40.8713C55.9546 40.8713 57.2814 39.5192 57.2814 37.8549C57.2814 36.5738 55.437 33.3338 54.329 31.5523Z" fill="#767676"/>
<path d="M79.9057 41.2614C77.6827 41.2614 75.873 39.4125 75.873 37.1413C75.873 35.0653 79.0894 30.0794 79.4576 29.5187L79.9091 28.8302L80.3607 29.5187C80.7289 30.0794 83.9452 35.0653 83.9452 37.1413C83.9383 39.4125 82.1286 41.2614 79.9057 41.2614ZM79.9057 30.8388C78.7976 32.6238 76.9533 35.8602 76.9533 37.1413C76.9533 38.8057 78.2766 40.1577 79.9057 40.1577C81.5312 40.1577 82.8581 38.8057 82.8581 37.1413C82.8581 35.8602 81.0137 32.6238 79.9057 30.8388Z" fill="#767676"/>
</g>
<defs>
<clipPath id="clip0_247_5">
<rect width="132.794" height="132.794" fill="white" transform="translate(0.757812 0.897766)"/>
</clipPath>
</defs>
</svg>
