<svg width="142" height="142" viewBox="0 0 142 142" fill="none" xmlns="http://www.w3.org/2000/svg">
<g filter="url(#filter0_d_247_7)">
<g clip-path="url(#clip0_247_7)">
<path d="M31.6862 54.8964C31.7023 55.5691 31.6252 56.2648 31.4518 56.9834C31.2783 57.702 31.0342 58.3977 30.7227 59.0704C30.3244 59.9203 29.8426 60.6882 29.2773 61.3708C28.712 62.0533 28.1018 62.6407 27.4433 63.1395C26.8363 63.5825 26.2003 63.9205 25.5323 64.1502C24.8642 64.3799 24.2186 64.4947 23.5955 64.4947H23.4927C22.7122 64.4783 22.0088 64.2946 21.3857 63.95C20.7626 63.6054 20.2423 63.1034 19.8247 62.4471C19.5485 62.9262 19.3044 63.3561 19.0956 63.7367C18.8869 64.1174 18.7134 64.416 18.5753 64.626C17.2905 66.7688 16.0797 68.3735 14.933 69.4367C14.2746 70.0208 13.6161 70.4605 12.9545 70.7525C12.296 71.0446 11.6119 71.1923 10.8989 71.1923C9.87428 71.1923 9.10343 70.9166 8.5831 70.3686C8.09811 69.837 7.854 69.1545 7.854 68.321C7.854 67.5957 8.02423 66.818 8.36148 65.9944C8.69873 65.1707 9.16445 64.3864 9.75223 63.6415C10.3946 62.8277 11.0884 62.1977 11.8335 61.7547C12.5787 61.3117 13.3174 61.0885 14.0433 61.0885C14.6504 61.0885 15.145 61.2657 15.5272 61.6201C15.858 61.9385 16.0218 62.3749 16.0218 62.9229C16.0218 63.3823 15.9062 63.8712 15.6718 64.3832C15.4373 64.8984 15.1225 65.3742 14.721 65.8172C14.3035 66.2799 13.8442 66.6408 13.3431 66.9066C12.7521 67.2085 12.1804 67.3595 11.6248 67.3595C11.4867 67.3595 11.3742 67.3168 11.2875 67.2249C11.2008 67.1363 11.159 67.0215 11.159 66.8804C11.159 66.7393 11.2008 66.6277 11.2875 66.549C11.3742 66.4702 11.4867 66.4308 11.6248 66.4308C12.0423 66.4308 12.4599 66.3258 12.887 66.1125C13.311 65.8992 13.7061 65.5907 14.069 65.1838C14.3806 64.8294 14.6311 64.4488 14.8238 64.0419C15.0133 63.635 15.1097 63.2642 15.1097 62.9262C15.1097 62.8376 15.1 62.7391 15.084 62.6341C15.0679 62.5291 15.0197 62.4307 14.9394 62.3421C14.8624 62.2535 14.7531 62.178 14.615 62.1157C14.4769 62.0533 14.2842 62.0238 14.0433 62.0238C13.4523 62.0238 12.8453 62.2141 12.2222 62.5947C11.5991 62.9754 11.0081 63.5201 10.4524 64.2289C9.9321 64.8852 9.52098 65.5744 9.21585 66.3028C8.91072 67.0281 8.75976 67.704 8.75976 68.3242C8.75976 68.928 8.91714 69.3874 9.22869 69.7058C9.55631 70.0766 10.112 70.2636 10.8925 70.2636C12.0552 70.2636 13.189 69.7484 14.3003 68.7213C15.3923 67.7303 16.555 66.2044 17.7852 64.1502C17.9233 63.9205 18.1096 63.6055 18.344 63.2051C18.5785 62.8081 18.8387 62.3519 19.1245 61.8367C19.4104 61.3215 19.7059 60.7702 20.0078 60.1763C20.3097 59.5823 20.602 58.9753 20.8782 58.3551C21.2958 57.4526 21.6202 56.6684 21.8546 56.0022C22.0891 55.3394 22.2529 54.7651 22.3493 54.2893C22.4456 53.8102 22.4874 53.423 22.4777 53.1211C22.4681 52.8192 22.4392 52.5796 22.3878 52.4024C22.285 52.0841 22.0923 51.8708 21.8161 51.7658C21.4178 51.605 21.0228 51.5492 20.6341 51.5919C20.2423 51.6378 19.8697 51.7428 19.5164 51.9102C19.1599 52.0776 18.8323 52.304 18.5271 52.5895C18.222 52.8717 17.9586 53.1736 17.7338 53.4919C17.3708 54.0596 17.1428 54.6076 17.0561 55.1392C17.0207 55.3164 17.0175 55.51 17.0432 55.7233C17.0689 55.9366 17.1589 56.1401 17.3162 56.3337C17.6631 56.7603 18.0871 56.7931 18.5914 56.4387C18.9543 56.209 19.2337 55.8808 19.4232 55.4542C19.6127 55.0834 19.6481 54.7717 19.526 54.5256C19.404 54.2434 19.4811 54.0399 19.7605 53.9152C19.8633 53.8627 19.9757 53.8529 20.0977 53.889C20.2198 53.925 20.3065 54.0038 20.3579 54.1285C20.48 54.3779 20.5281 54.647 20.5024 54.939C20.4767 55.2311 20.3997 55.5199 20.268 55.8021C20.1395 56.0843 19.9725 56.3566 19.7733 56.6126C19.5742 56.8685 19.3526 57.0786 19.1085 57.2361C18.7263 57.4855 18.3119 57.6069 17.859 57.6069C17.4094 57.5905 16.9918 57.3673 16.6096 56.944C16.1921 56.4288 16.0379 55.7824 16.1407 55.0046C16.2435 54.3123 16.5229 53.633 16.9726 52.957C17.2488 52.5665 17.5796 52.199 17.9618 51.8544C18.344 51.5099 18.7584 51.2342 19.2113 51.0308C19.6609 50.8273 20.1363 50.7026 20.6277 50.66C21.1223 50.6173 21.6202 50.6895 22.1244 50.8864C22.6448 51.0997 23.0173 51.4967 23.2422 52.0808C23.3289 52.3827 23.3771 52.724 23.3867 53.1047C23.3963 53.4853 23.3482 53.9152 23.2422 54.3943C23.7111 53.8791 24.1801 53.4361 24.6458 53.0653C25.2882 52.5173 25.9305 52.0808 26.5697 51.7625C27.2121 51.4442 27.8095 51.2408 28.3651 51.1522C29.3544 51.0111 30.1253 51.2408 30.6809 51.8446C31.3554 52.514 31.6862 53.5313 31.6862 54.8964ZM29.8908 58.6701C30.5139 57.4133 30.8094 56.163 30.7741 54.9226C30.7741 54.3746 30.713 53.8922 30.591 53.4755C30.4689 53.0587 30.2859 52.7371 30.045 52.5042C29.7141 52.1137 29.2035 51.9726 28.5097 52.0776C28.0407 52.1498 27.5204 52.3302 26.9487 52.6223C26.377 52.9144 25.8053 53.3016 25.2303 53.7774C24.6394 54.2565 24.1062 54.7815 23.6308 55.3591C23.1522 55.9366 22.7508 56.524 22.4199 57.1278C22.4199 57.1442 22.4167 57.154 22.4071 57.154C22.3975 57.154 22.3942 57.1639 22.3942 57.1803C22.2915 57.4297 22.1855 57.6823 22.0827 57.9383C21.9799 58.1943 21.8579 58.4666 21.7197 58.7488C21.2701 59.7234 20.8108 60.6357 20.3418 61.4856C20.6534 62.1583 21.0838 62.6669 21.6298 63.0148C22.1758 63.3593 22.8054 63.5431 23.5152 63.5595C24.0708 63.5759 24.6394 63.484 25.2207 63.2806C25.8021 63.0771 26.3706 62.772 26.9262 62.3651C27.5333 61.9221 28.0889 61.3904 28.59 60.7702C29.091 60.15 29.5246 59.4511 29.8908 58.6701Z" fill="#767676"/>
<path d="M37.1474 66.0568C37.2341 66.1454 37.2823 66.2504 37.2919 66.3751C37.3016 66.4998 37.2598 66.6048 37.1763 66.6934C37.1603 66.7295 36.9675 66.9428 36.6046 67.33C36.2417 67.7205 35.7534 68.1537 35.1464 68.6328C33.4634 69.9257 31.9377 70.5722 30.5694 70.5722C29.8403 70.5722 29.2911 70.4409 28.9185 70.1751C28.546 69.9093 28.2729 69.6337 28.0995 69.3515C27.7687 68.7674 27.6755 68.0356 27.8136 67.1594C27.9518 66.2832 28.3243 65.3119 28.9314 64.2487C29.7793 62.7063 30.7043 61.4495 31.7032 60.4749C32.6989 59.5003 33.64 58.9326 34.5265 58.775C35.2042 58.67 35.7663 58.8013 36.216 59.1754C36.5628 59.4773 36.7523 59.8842 36.7877 60.3994C36.8037 60.931 36.6399 61.5217 36.293 62.1682C35.9462 62.8146 35.4419 63.4742 34.7835 64.1469C34.0544 64.9083 33.2835 65.4661 32.4677 65.8205C31.79 66.1224 31.1412 66.2734 30.5181 66.2734C30.2065 66.2734 29.9271 66.2471 29.6862 66.1946C29.4421 66.1421 29.2429 66.0798 29.0888 66.0076C29.002 66.2373 28.9282 66.4539 28.8672 66.6573C28.8061 66.8608 28.7579 67.0609 28.7226 67.2546C28.6198 67.9634 28.6776 68.5048 28.9057 68.8756C29.1819 69.3908 29.7376 69.6468 30.5694 69.6468C31.2793 69.6468 31.9859 69.4663 32.6893 69.1021C33.3927 68.7378 34.0255 68.3375 34.5875 67.8945C35.1496 67.4514 35.6089 67.0445 35.9654 66.6704C36.322 66.2996 36.4986 66.1027 36.4986 66.0863C36.5853 65.9977 36.6881 65.9485 36.8102 65.9386C36.9322 65.9288 37.0446 65.9682 37.1474 66.0568ZM29.7087 64.7015C29.6733 64.7901 29.6316 64.8689 29.5802 64.9411C29.5288 65.0133 29.4838 65.092 29.4485 65.1806C29.5866 65.2167 29.7472 65.2528 29.9303 65.2856C30.1134 65.3217 30.3253 65.3381 30.5662 65.3381C31.7643 65.3217 32.9591 64.7081 34.1571 63.5037C34.7128 62.936 35.14 62.3847 35.4451 61.8433C35.747 61.3018 35.8916 60.8391 35.8755 60.4486C35.8402 60.2189 35.7631 60.0319 35.641 59.8908C35.3969 59.6775 35.0757 59.6151 34.6775 59.7037C34.3306 59.7562 33.958 59.9137 33.5597 60.1697C33.1615 60.4257 32.7535 60.7604 32.336 61.1673C31.3981 62.0894 30.5245 63.2675 29.7087 64.7015Z" fill="#767676"/>
<path d="M43.4422 59.3067C43.7377 59.3428 43.8854 59.5101 43.8854 59.812C43.8694 59.9531 43.8116 60.0647 43.7152 60.1435C43.6189 60.2222 43.5129 60.255 43.3908 60.2353C43.0086 60.1993 42.5589 60.1829 42.0386 60.1829C41.5183 60.1829 40.998 60.1927 40.4776 60.2091C40.0954 60.8457 39.726 61.4889 39.3727 62.1354C39.0162 62.7818 38.7111 63.3725 38.4509 63.9041C37.9467 64.8952 37.5805 65.7254 37.346 66.3883C37.1116 67.0511 36.951 67.5893 36.8643 67.9962C36.7775 68.4031 36.7518 68.7149 36.7872 68.9249C36.8225 69.1382 36.8643 69.2793 36.9189 69.3515C36.9349 69.3876 36.9799 69.4368 37.0473 69.4992C37.118 69.5615 37.2625 69.5911 37.4906 69.5911C37.7861 69.5911 38.1458 69.4893 38.5698 69.2859C38.9937 69.0824 39.4595 68.7936 39.9605 68.4228C40.3781 68.1045 40.7956 67.7436 41.2228 67.3465C41.6468 66.9461 42.0161 66.5523 42.3277 66.1651C42.4144 66.0765 42.5172 66.024 42.6392 66.0043C42.7613 65.9879 42.8737 66.0207 42.9765 66.1093C43.0632 66.1979 43.1146 66.3029 43.1339 66.4276C43.1499 66.5523 43.1178 66.6672 43.0311 66.7722C42.6842 67.1791 42.2891 67.5926 41.8491 68.0094C41.4059 68.4261 40.953 68.8101 40.4841 69.1645C39.3053 70.0669 38.3064 70.5197 37.4938 70.5197C37.0955 70.5197 36.7904 70.4443 36.5848 70.2933C36.3761 70.1424 36.2283 69.9881 36.1416 69.8273C35.8108 69.2957 35.8043 68.4458 36.1159 67.2743C36.3761 66.2833 36.8867 65.0166 37.6512 63.4742C37.8953 62.9951 38.1619 62.4767 38.4574 61.9188C38.7529 61.3609 39.074 60.7899 39.4209 60.2058C39.1768 60.2222 38.9552 60.2354 38.7561 60.2452C38.5569 60.255 38.3867 60.2583 38.2486 60.2583C38.0751 60.2747 37.9178 60.2846 37.7796 60.2846H37.754C37.4777 60.2846 37.3203 60.1336 37.285 59.8317C37.285 59.6906 37.3236 59.5758 37.4006 59.4872C37.4777 59.3986 37.5869 59.3526 37.725 59.3526C37.7604 59.3526 37.9884 59.3428 38.4156 59.3264C38.8396 59.31 39.3567 59.2903 39.9637 59.2739C40.2753 58.7422 40.574 58.2369 40.8598 57.7578C41.1457 57.2787 41.3962 56.8553 41.6146 56.4813C41.8298 56.1104 42.0772 55.7035 42.3566 55.2572C42.4272 55.1522 42.5204 55.08 42.6424 55.0439C42.7645 55.0078 42.8769 55.0275 42.9797 55.0964C43.2399 55.2736 43.2912 55.4968 43.1371 55.7626C42.893 56.1334 42.6778 56.4813 42.4883 56.7996C42.2988 57.1179 42.0772 57.4854 41.8234 57.9022C41.5729 58.3189 41.3063 58.7652 41.0301 59.2443C41.4797 59.2443 41.9198 59.2443 42.3437 59.2443C42.7613 59.2542 43.1306 59.2706 43.4422 59.3067Z" fill="#767676"/>
<path d="M51.3481 66.1126C51.4348 66.2012 51.4862 66.3062 51.5055 66.4309C51.5216 66.5556 51.4894 66.6704 51.4027 66.7754C51.3674 66.8115 51.3256 66.8542 51.2742 66.9067C51.2228 66.9592 51.1779 67.0117 51.1458 67.0675C50.3492 68.0585 49.6201 68.8854 48.9617 69.5384C48.3032 70.1947 47.6962 70.5229 47.1405 70.5229C46.6555 70.5229 46.299 70.3293 46.0742 69.9388C45.8493 69.5122 45.8493 68.8953 46.0742 68.0782C46.299 67.2808 46.784 66.2176 47.5324 64.8886C47.6705 64.6392 47.6801 64.2389 47.5581 63.681C47.436 63.1232 47.1951 62.4636 46.829 61.7023C46.36 62.375 45.8172 63.1297 45.2038 63.9599C44.5871 64.7934 43.874 65.7221 43.0582 66.7492C42.9715 66.8542 42.8687 66.9166 42.7467 66.9362C42.6246 66.9527 42.5218 66.9198 42.4351 66.8312C42.3323 66.7426 42.2713 66.6376 42.252 66.5129C42.236 66.3882 42.2681 66.2734 42.3548 66.1684C44.0892 63.9534 45.4157 62.165 46.3343 60.7999C46.177 60.4652 46.1352 60.0616 46.2059 59.5923C46.2733 59.1231 46.3536 58.7391 46.4403 58.4372C46.4757 58.3486 46.5239 58.2108 46.5849 58.0238C46.6459 57.8367 46.7294 57.6398 46.8322 57.4265C46.935 57.2132 47.0538 56.9999 47.1823 56.7899C47.314 56.5766 47.4649 56.3994 47.6384 56.2583C47.8279 56.0975 48.027 56.0155 48.2358 56.0057C48.4446 55.9958 48.6341 56.0713 48.8075 56.2321C49.1705 56.5504 49.2507 57.0754 49.042 57.8006C48.8525 58.3683 48.496 59.087 47.9756 59.9533C47.8889 60.0944 47.799 60.242 47.7026 60.393C47.6063 60.5439 47.5067 60.6982 47.4039 60.859C48.5313 62.9689 48.8332 64.4719 48.3129 65.3775C47.8632 66.1749 47.5292 66.8312 47.3108 67.3431C47.0924 67.8583 46.951 68.2685 46.8804 68.5802C46.8097 68.892 46.784 69.1118 46.8033 69.2431C46.8193 69.3776 46.8386 69.4597 46.8547 69.4958C46.8707 69.5122 46.8964 69.5352 46.9318 69.5614C46.9671 69.5877 47.0345 69.6008 47.1405 69.6008C47.2273 69.6008 47.3846 69.5417 47.6095 69.4269C47.8343 69.312 48.1555 69.0429 48.573 68.6164C48.9039 68.3145 49.2218 67.9732 49.5366 67.5925C49.8482 67.2119 50.1533 66.8443 50.4456 66.4899C50.4809 66.4374 50.5227 66.3849 50.574 66.3292C50.6254 66.2767 50.6704 66.2242 50.7025 66.1684C50.7892 66.0798 50.892 66.0273 51.0141 66.0076C51.1329 65.9879 51.2453 66.024 51.3481 66.1126ZM47.1341 59.5726C47.1502 59.5365 47.163 59.5168 47.1727 59.507C47.1823 59.4971 47.1951 59.4775 47.2112 59.4414C47.4874 58.982 47.6962 58.6013 47.8343 58.2994C47.9724 57.9975 48.0784 57.7514 48.1459 57.5545C48.2165 57.3609 48.2486 57.2198 48.2486 57.1279C48.2486 57.0393 48.239 56.977 48.2229 56.9409C48.1523 56.9934 48.0527 57.1082 47.9242 57.2854C47.7925 57.4626 47.6609 57.7284 47.5195 58.0828C47.4168 58.3486 47.3332 58.6111 47.2722 58.8671C47.2176 59.1263 47.1694 59.3593 47.1341 59.5726Z" fill="#767676"/>
<path d="M58.3218 66.2439C58.0969 66.6508 57.8111 67.1036 57.4642 67.5991C57.1173 68.0946 56.719 68.5705 56.2662 69.02C55.8165 69.4729 55.3154 69.847 54.7694 70.1488C54.2234 70.4507 53.6388 70.6017 53.0125 70.6017C52.3894 70.6017 51.9076 70.477 51.5672 70.2309C51.2299 69.9815 50.9826 69.7255 50.8252 69.4597C50.443 68.8034 50.3466 67.9535 50.5393 66.9067C50.7288 65.9157 51.1368 64.8525 51.7631 63.7171C52.0072 63.2906 52.3348 62.7885 52.7523 62.2011C53.1699 61.617 53.6549 61.0493 54.2105 60.5013C54.4193 60.288 54.657 60.0714 54.9268 59.8516C55.1966 59.6317 55.4728 59.4315 55.7587 59.2543C56.0445 59.0771 56.34 58.9327 56.642 58.8146C56.9439 58.6998 57.2458 58.6407 57.5381 58.6407C57.6762 58.6407 57.7886 58.6866 57.8753 58.7752C57.962 58.8638 58.0038 58.9787 58.0038 59.1198C58.0038 59.2609 57.962 59.3725 57.8753 59.4512C57.7886 59.53 57.6762 59.5694 57.5381 59.5694C57.1912 59.5694 56.7833 59.7072 56.3143 59.9828C55.8454 60.2585 55.3604 60.6522 54.8561 61.1641C54.3358 61.6793 53.8765 62.2109 53.4782 62.7589C53.08 63.307 52.7684 63.7795 52.5404 64.1667C51.9686 65.1938 51.6025 66.1586 51.4483 67.0642C51.2909 67.8616 51.352 68.4983 51.6314 68.9774C51.8562 69.44 52.3155 69.6697 53.0093 69.6697C53.3722 69.6697 53.7191 69.5943 54.05 69.4433C54.3808 69.2924 54.6955 69.102 55.0007 68.8723C55.3026 68.6426 55.5852 68.3867 55.8454 68.1012C56.1056 67.819 56.34 67.5434 56.5488 67.2776C56.6869 67.1004 56.809 66.9264 56.9118 66.7591C57.0145 66.5917 57.1205 66.4276 57.2233 66.2668C56.8604 66.2308 56.5681 66.1422 56.3529 66.001C56.1345 65.8599 55.9675 65.7188 55.8454 65.5745C55.4825 65.1479 55.2994 64.5999 55.2994 63.9271C55.2994 63.5202 55.3604 63.1035 55.4825 62.6769C55.6045 62.2503 55.7844 61.8631 56.0285 61.5087C56.6002 60.6588 57.2522 60.2322 57.9781 60.2322C58.5338 60.2322 58.9577 60.4717 59.2532 60.9508C59.5295 61.3938 59.6483 61.9714 59.6033 62.6769C59.5584 63.3857 59.3303 64.1831 58.9128 65.0691C58.7747 65.3513 58.6622 65.5778 58.5755 65.7484C58.4952 65.9223 58.4085 66.0864 58.3218 66.2439ZM57.9845 61.1674C57.7758 61.1674 57.567 61.2462 57.3614 61.407C57.1526 61.5678 56.9631 61.7778 56.7897 62.0436C56.6163 62.3094 56.4781 62.6047 56.3722 62.9329C56.2694 63.261 56.2148 63.5924 56.2148 63.9304C56.2148 64.0715 56.2308 64.2422 56.2662 64.4358C56.3015 64.6294 56.3882 64.8066 56.5263 64.9674C56.7512 65.2332 57.1141 65.3677 57.6184 65.3677H57.7501C57.8368 65.1905 57.9074 65.0527 57.9588 64.9543C58.0102 64.8558 58.0455 64.8 58.0616 64.7803C58.3057 64.2323 58.4695 63.7631 58.5562 63.3726C58.643 62.9821 58.6847 62.6539 58.6847 62.3881C58.6847 62.1223 58.6622 61.9156 58.6205 61.7647C58.5787 61.6137 58.537 61.512 58.5049 61.4595C58.3635 61.2659 58.1933 61.1674 57.9845 61.1674Z" fill="#767676"/>
<path d="M61.2359 71.9571C60.7317 71.9571 60.3527 71.8521 60.0925 71.6388C59.8323 71.4255 59.6332 71.2122 59.4951 71.0022C59.0968 70.2934 59.0711 69.2564 59.418 67.8913C59.5754 67.2547 59.8163 66.559 60.1471 65.8043C60.4779 65.0528 60.8762 64.2685 61.3451 63.4514C61.57 63.0609 61.843 62.5883 62.1642 62.0305C62.4854 61.4726 62.8194 60.8918 63.1663 60.288C63.5132 59.6875 63.8601 59.0869 64.2069 58.493C64.5538 57.899 64.8622 57.3641 65.1288 56.885C65.3986 56.4059 65.6202 56.022 65.7936 55.7299C65.9671 55.4379 66.0538 55.2836 66.0538 55.2639C66.2112 55.0146 66.4167 54.9621 66.6769 55.1032C66.921 55.264 66.9724 55.474 66.8343 55.7398C66.8343 55.7562 66.7476 55.9137 66.5741 56.2057C66.4007 56.4978 66.1791 56.8785 65.9093 57.3477C65.6395 57.817 65.3311 58.3552 64.9874 58.9557C64.6406 59.5595 64.2937 60.16 63.9468 60.7638C63.5999 61.3676 63.2659 61.9452 62.9447 62.5063C62.6235 63.0642 62.3505 63.54 62.1256 63.9272C61.676 64.7082 61.2938 65.4499 60.9822 66.1587C60.6707 66.8675 60.4362 67.5238 60.2788 68.1243C60.0026 69.2236 60.009 70.0309 60.3045 70.5428C60.4779 70.8611 60.7895 71.0219 61.2424 71.0219C61.57 71.0219 61.8783 70.9169 62.1642 70.7036C62.45 70.4903 62.707 70.2343 62.9318 69.9324C63.1567 69.6305 63.3526 69.3221 63.5164 69.0038C63.6802 68.6854 63.8151 68.4196 63.9211 68.2063L63.9725 68.1538C64.0945 67.888 64.2937 67.8158 64.5699 67.9405C64.6919 67.993 64.769 68.0816 64.8044 68.2063C64.8397 68.331 64.8301 68.4459 64.7787 68.5509L64.753 68.6297C64.6309 68.879 64.4671 69.1875 64.2583 69.5583C64.0496 69.9291 63.8023 70.2934 63.5164 70.6478C63.2305 71.0022 62.8965 71.3074 62.5143 71.5633C62.1289 71.8292 61.7049 71.9571 61.2359 71.9571Z" fill="#767676"/>
<path d="M76.4552 59.389C75.8321 60.3997 75.2797 61.394 74.8043 62.3785C74.3257 63.363 73.9499 64.3048 73.6737 65.2105C73.3975 66.1129 73.2401 66.9103 73.2048 67.6027C73.1694 68.2952 73.2658 68.8432 73.4906 69.2501C73.7669 69.7981 74.3065 70.0738 75.103 70.0738C76.2657 70.0738 77.6276 69.1156 79.1885 67.2024C79.8663 66.3525 80.4894 65.4763 81.0611 64.5706C81.6328 63.6682 82.1178 62.8773 82.5193 62.2046C82.6221 62.0274 82.7184 61.8633 82.8051 61.7123C82.8919 61.5614 82.9786 61.4236 83.0653 61.2989C83.0653 61.2825 83.0685 61.2726 83.0781 61.2726C83.0878 61.2726 83.091 61.2628 83.091 61.2464C83.4218 60.6425 83.7366 60.065 84.0417 59.5038C84.3436 58.946 84.6359 58.4373 84.9122 57.9746C84.9635 57.8499 85.0503 57.7712 85.1723 57.7351C85.2944 57.699 85.4164 57.7187 85.5353 57.7876C85.638 57.8598 85.7087 57.9549 85.744 58.0796C85.7794 58.2043 85.7601 58.3192 85.6926 58.4242C85.3104 59.0805 84.9089 59.8057 84.4817 60.6032C84.0578 61.4006 83.6242 62.2144 83.1809 63.0479C82.7377 63.8814 82.3009 64.715 81.8673 65.5452C81.4337 66.3787 81.029 67.1564 80.6564 67.885C80.2838 68.6102 79.953 69.2632 79.6671 69.8375C79.3813 70.415 79.1596 70.8515 79.0022 71.1534C79.1917 71.0484 79.3877 70.9368 79.5868 70.822C79.786 70.7071 79.9915 70.5791 80.1971 70.438C80.8555 70.0114 81.5846 69.4634 82.3812 68.7907C83.1777 68.1179 83.9775 67.2418 84.774 66.1589C84.8608 66.0539 84.9635 65.9915 85.0856 65.9718C85.2076 65.9554 85.3201 65.9817 85.4228 66.0506C85.5096 66.1392 85.5674 66.2442 85.5931 66.3689C85.6188 66.4936 85.5899 66.6084 85.5031 66.7135C84.652 67.8489 83.8073 68.7644 82.9657 69.4634C82.1242 70.1624 81.3662 70.7432 80.6885 71.2059C80.2388 71.5078 79.8084 71.767 79.4005 71.9902C78.9926 72.2133 78.6072 72.3938 78.2442 72.5349C77.6886 73.4374 77.1169 74.1724 76.5259 74.7401C75.694 75.5376 74.9553 75.9445 74.3161 75.9642H74.239C73.7347 75.9642 73.3718 75.7706 73.147 75.3801C72.9735 75.1142 72.9382 74.7959 73.0442 74.4218C73.147 74.0674 73.3686 73.7294 73.709 73.4111C74.0463 73.0928 74.4574 72.8434 74.9456 72.6662C75.0484 72.6301 75.1704 72.5907 75.3086 72.5481C75.4467 72.5021 75.5944 72.4562 75.7518 72.4004C75.9959 72.3282 76.2721 72.2462 76.5837 72.1477C76.8952 72.0493 77.2421 71.9311 77.6243 71.79C77.6757 71.7014 77.7336 71.603 77.7946 71.498C77.8556 71.3929 77.9102 71.2847 77.9648 71.1797C78.0001 71.1436 78.1479 70.8646 78.4081 70.3429C78.6682 69.8211 78.999 69.1615 79.3973 68.3641C78.8063 69.0368 78.2185 69.5946 77.6276 70.0377C76.7443 70.6743 75.9028 70.9959 75.103 70.9959C74.39 70.9959 73.8504 70.8548 73.4778 70.5693C73.1052 70.2871 72.8418 69.995 72.6844 69.6931C72.1127 68.6299 72.1481 67.0449 72.7872 64.9348C73.0827 63.9963 73.4778 63.0086 73.9692 61.9716C74.4638 60.9346 75.0388 59.9042 75.7004 58.8738C76.118 58.2175 76.6383 57.5185 77.2614 56.7736C77.1233 56.5964 77.0012 56.4192 76.8985 56.242C76.4488 55.3559 76.3428 54.2763 76.5869 52.9998C76.6897 52.4321 76.8631 51.8578 77.1072 51.2737C77.3513 50.6896 77.6436 50.1383 77.9905 49.6263C78.18 49.3769 78.3984 49.3343 78.6393 49.4918C78.7421 49.5804 78.8095 49.6854 78.8352 49.8101C78.8609 49.9348 78.832 50.0497 78.7453 50.1547C78.4337 50.6141 78.1639 51.1063 77.9391 51.6314C77.7143 52.1531 77.5569 52.6716 77.4702 53.1868C77.3835 53.702 77.3578 54.1779 77.3931 54.6209C77.4284 55.0639 77.5408 55.461 77.7303 55.8154C77.7464 55.8515 77.7689 55.8941 77.7946 55.9499C77.8203 56.0024 77.8524 56.0484 77.8845 56.0845C78.6811 55.2181 79.5226 54.4109 80.4091 53.666C80.6853 53.4362 81.0257 53.1737 81.424 52.8817C81.8223 52.5896 82.2431 52.3107 82.6863 52.0449C83.1295 51.7791 83.576 51.5592 84.0257 51.382C84.4753 51.2048 84.9025 51.1063 85.3008 51.0899C85.6991 51.0538 86.0106 51.1063 86.2387 51.2507C86.4635 51.3918 86.6273 51.5329 86.7333 51.6773C86.9228 51.9267 87.0095 52.2352 86.9935 52.606C86.9774 52.9768 86.865 53.3936 86.6562 53.8563C86.4121 54.3518 86.0845 54.844 85.6669 55.333C85.2494 55.8219 84.774 56.2584 84.2376 56.6489C83.788 56.9672 83.2227 57.2822 82.5482 57.5907C81.8705 57.9024 81.09 58.0567 80.2067 58.0567C79.4423 58.0567 78.7581 57.8893 78.1511 57.5513C78.1158 57.5349 78.0804 57.5152 78.0483 57.4988C78.013 57.4824 77.9777 57.4562 77.9455 57.4201C77.3835 58.06 76.8888 58.713 76.4552 59.389ZM75.9092 74.0838C76.2207 73.7655 76.5066 73.4374 76.7668 73.0994C76.6287 73.1355 76.4938 73.1716 76.3621 73.2044C76.2304 73.2405 76.1051 73.2766 75.9863 73.3094C75.8482 73.3455 75.7133 73.3816 75.5816 73.4144C75.4499 73.4505 75.3439 73.4866 75.2572 73.5194C74.875 73.6802 74.5666 73.8705 74.3321 74.0904C74.0977 74.3103 73.9564 74.5104 73.9018 74.6876C73.8857 74.7927 73.8857 74.855 73.9018 74.8747C73.9371 74.9108 73.9788 74.9502 74.0302 74.9928C74.0816 75.0355 74.1619 75.0486 74.2647 75.0322C74.7047 75.006 75.2508 74.6876 75.9092 74.0838ZM80.9808 54.4174C80.1136 55.1098 79.3074 55.8777 78.5622 56.7309C78.9798 56.9967 79.5258 57.128 80.2003 57.128C80.8587 57.128 81.4883 57.0099 82.0857 56.7703C82.6831 56.5307 83.2291 56.2288 83.7237 55.8679C84.2184 55.5036 84.6423 55.1066 84.9989 54.6734C85.3554 54.2402 85.6284 53.8267 85.8179 53.4362C85.9753 53.1343 86.062 52.8817 86.0781 52.6782C86.0941 52.4747 86.0781 52.3369 86.0267 52.2647C85.9914 52.2286 85.9303 52.1761 85.8436 52.1039C85.7569 52.0317 85.5931 52.0055 85.349 52.0252C84.8447 52.0416 84.212 52.2614 83.4507 52.6749C82.6895 53.0917 81.8673 53.6725 80.9808 54.4174Z" fill="#767676"/>
<path d="M95.9637 66.1127C96.0504 66.2013 96.1018 66.3063 96.1211 66.431C96.1371 66.5557 96.105 66.6705 96.0183 66.7756C95.983 66.8117 95.9444 66.8543 95.9027 66.9068C95.8577 66.9593 95.8127 67.0118 95.7581 67.0676C94.9616 68.0587 94.2325 68.8856 93.574 69.5386C92.9156 70.195 92.3085 70.5231 91.7529 70.5231C91.3546 70.5231 91.0559 70.4476 90.8567 70.2967C90.6576 70.1457 90.5131 69.9915 90.4263 69.8307C90.2368 69.4763 90.1662 69.0431 90.2176 68.5279C89.0195 69.9456 87.8665 70.6544 86.7583 70.6544C86.1513 70.6544 85.692 70.5297 85.3804 70.2835C85.0689 70.0341 84.844 69.788 84.7027 69.5386C84.3398 68.8659 84.2787 68.0226 84.5196 67.0151C84.6224 66.5196 84.7894 66.011 85.0143 65.4859C85.2391 64.9641 85.5185 64.4358 85.8462 63.9042C86.784 62.4144 87.8408 61.2363 89.0195 60.37C89.5399 59.9991 90.0441 59.7104 90.5291 59.5069C91.0141 59.3034 91.4574 59.2017 91.8556 59.2017C92.3053 59.2017 92.6586 59.2805 92.9092 59.4413C93.1597 59.6021 93.346 59.7694 93.468 59.9466C93.6575 60.196 93.7796 60.4881 93.831 60.8228C93.9691 60.6095 94.0815 60.4225 94.1682 60.2649C94.2549 60.1041 94.3417 59.963 94.4284 59.8383C94.499 59.6972 94.5761 59.5725 94.6629 59.4675C94.7335 59.3625 94.8267 59.2936 94.9487 59.2674C95.0708 59.2411 95.1832 59.2641 95.286 59.333C95.3887 59.4052 95.4594 59.5003 95.4947 59.625C95.5301 59.7497 95.5044 59.8646 95.4177 59.9696C95.4177 59.986 95.1928 60.3536 94.7399 61.0722C94.2903 61.7909 93.725 62.7425 93.0505 63.9304C92.6008 64.7279 92.2347 65.4334 91.9584 66.0438C91.6822 66.6541 91.4766 67.1858 91.3482 67.6386C91.2165 68.0915 91.1426 68.459 91.1265 68.7412C91.1105 69.0234 91.1426 69.2302 91.2293 69.3516C91.2454 69.3877 91.2839 69.4369 91.345 69.4993C91.406 69.5616 91.5409 69.5911 91.7496 69.5911C91.8364 69.5911 91.9938 69.5321 92.2186 69.4172C92.4434 69.3024 92.7743 69.0333 93.2079 68.6067C93.5194 68.3048 93.831 67.9635 94.1457 67.5828C94.4573 67.2022 94.7624 66.8346 95.0547 66.4802C95.1061 66.4277 95.1543 66.3752 95.1992 66.3194C95.241 66.2669 95.2828 66.2144 95.3149 66.1586C95.4016 66.07 95.5044 66.0175 95.6264 65.9978C95.7485 65.988 95.8609 66.0241 95.9637 66.1127ZM89.6972 67.7338C90.1308 67.2022 90.4777 66.7198 90.7379 66.2866C90.9981 65.8534 91.1362 65.627 91.1555 65.6073C91.1555 65.5909 91.1587 65.5811 91.1683 65.5811C91.1779 65.5811 91.1811 65.5712 91.1811 65.5548C91.4413 64.9543 91.8043 64.252 92.2732 63.4546C92.3599 63.2938 92.4498 63.1363 92.5462 62.9755C92.6426 62.8147 92.7325 62.6671 92.8192 62.5227V62.4701C92.8353 62.3815 92.861 62.2536 92.8963 62.0862C92.9316 61.9188 92.9509 61.7416 92.9605 61.5546C92.9702 61.3675 92.9605 61.1838 92.9348 60.9967C92.9091 60.8097 92.8449 60.6456 92.7389 60.5045C92.5494 60.2551 92.2539 60.1337 91.8556 60.1337C91.6115 60.1337 91.2903 60.2092 90.8921 60.3601C90.4938 60.5111 90.0602 60.7572 89.5912 61.105C89.1223 61.4496 88.6277 61.8926 88.1073 62.4341C87.587 62.9755 87.0827 63.6351 86.5977 64.4128C85.9907 65.3875 85.5924 66.3162 85.3997 67.2022C85.2423 68.0357 85.2777 68.6625 85.5025 69.0891C85.7113 69.5157 86.1256 69.7257 86.7519 69.7257C87.6223 69.7257 88.602 69.0628 89.6972 67.7338Z" fill="#767676"/>
<path d="M104.314 66.1126C104.4 66.2012 104.452 66.3062 104.471 66.4309C104.487 66.5556 104.455 66.6704 104.368 66.7754C104.333 66.8115 104.291 66.8542 104.237 66.9067C104.185 66.9592 104.14 67.0117 104.108 67.0675C103.312 68.0585 102.583 68.8854 101.924 69.5384C101.266 70.1947 100.659 70.5229 100.103 70.5229C99.6179 70.5229 99.2614 70.3293 99.0366 69.9388C98.8118 69.5122 98.8118 68.8953 99.0366 68.0782C99.2614 67.2808 99.7464 66.2176 100.495 64.8886C100.633 64.6392 100.643 64.2389 100.52 63.681C100.398 63.1232 100.158 62.4636 99.7914 61.7023C99.3224 62.375 98.7796 63.1297 98.1662 63.9599C97.5495 64.7934 96.8364 65.7221 96.0206 66.7492C95.9339 66.8542 95.8311 66.9166 95.7091 66.9362C95.587 66.9527 95.4842 66.9198 95.3975 66.8312C95.2947 66.7426 95.2337 66.6376 95.2144 66.5129C95.1984 66.3882 95.2305 66.2734 95.3172 66.1684C97.0516 63.9534 98.3781 62.165 99.2968 60.7999C99.1394 60.4652 99.0976 60.0616 99.1651 59.5923C99.2357 59.1231 99.3128 58.7391 99.3995 58.4372C99.4349 58.3486 99.483 58.2108 99.5441 58.0238C99.6051 57.8367 99.6886 57.6398 99.7914 57.4265C99.8942 57.2132 100.013 56.9999 100.141 56.7899C100.273 56.5766 100.424 56.3994 100.598 56.2583C100.787 56.0975 100.989 56.0155 101.195 56.0057C101.404 55.9958 101.593 56.0713 101.767 56.2321C102.13 56.5504 102.21 57.0754 102.001 57.8006C101.812 58.3683 101.455 59.087 100.935 59.9533C100.848 60.0944 100.758 60.242 100.662 60.393C100.565 60.5439 100.466 60.6982 100.363 60.859C101.49 62.9689 101.792 64.4719 101.272 65.3775C100.822 66.1749 100.488 66.8312 100.27 67.3431C100.052 67.8583 99.9102 68.2685 99.8396 68.5802C99.7689 68.892 99.7432 69.1118 99.7625 69.2431C99.7785 69.3776 99.7978 69.4597 99.8139 69.4958C99.8299 69.5122 99.8556 69.5352 99.891 69.5614C99.9263 69.5877 99.9937 69.6008 100.1 69.6008C100.186 69.6008 100.344 69.5417 100.569 69.4269C100.794 69.312 101.115 69.0429 101.532 68.6164C101.86 68.3145 102.181 67.9732 102.496 67.5925C102.807 67.2119 103.112 66.8443 103.405 66.4899C103.44 66.4374 103.482 66.3849 103.536 66.3292C103.588 66.2767 103.633 66.2242 103.668 66.1684C103.755 66.0798 103.858 66.0273 103.98 66.0076C104.099 65.9879 104.211 66.024 104.314 66.1126ZM100.1 59.5726C100.116 59.5365 100.129 59.5168 100.138 59.507C100.148 59.4971 100.161 59.4775 100.177 59.4414C100.453 58.982 100.662 58.6013 100.8 58.2994C100.938 57.9975 101.044 57.7514 101.111 57.5545C101.182 57.3609 101.214 57.2198 101.214 57.1279C101.214 57.0393 101.205 56.977 101.189 56.9409C101.118 56.9934 101.018 57.1082 100.89 57.2854C100.758 57.4626 100.626 57.7284 100.485 58.0828C100.382 58.3486 100.299 58.6111 100.238 58.8671C100.183 59.1263 100.135 59.3593 100.1 59.5726Z" fill="#767676"/>
<path d="M114.849 66.1127C114.936 66.2013 114.987 66.3063 115.006 66.431C115.022 66.5557 114.99 66.6705 114.903 66.7756C114.868 66.8117 114.83 66.8543 114.788 66.9068C114.746 66.9593 114.698 67.0118 114.643 67.0676C113.847 68.0587 113.118 68.8856 112.459 69.5386C111.801 70.195 111.194 70.5231 110.638 70.5231C110.24 70.5231 109.941 70.4476 109.742 70.2967C109.543 70.1457 109.398 69.9915 109.312 69.8307C109.122 69.4763 109.051 69.0431 109.103 68.5279C107.905 69.9456 106.752 70.6544 105.644 70.6544C105.037 70.6544 104.577 70.5297 104.266 70.2835C103.954 70.0341 103.729 69.788 103.588 69.5386C103.225 68.8659 103.164 68.0226 103.405 67.0151C103.508 66.5196 103.675 66.011 103.9 65.4859C104.124 64.9641 104.404 64.4358 104.731 63.9042C105.669 62.4144 106.726 61.2363 107.905 60.37C108.425 59.9991 108.929 59.7104 109.414 59.5069C109.899 59.3034 110.343 59.2017 110.741 59.2017C111.191 59.2017 111.544 59.2805 111.794 59.4413C112.045 59.6021 112.231 59.7694 112.353 59.9466C112.543 60.196 112.665 60.4881 112.716 60.8228C112.854 60.6095 112.967 60.4225 113.053 60.2649C113.14 60.1041 113.227 59.963 113.314 59.8383C113.384 59.6972 113.461 59.5725 113.548 59.4675C113.619 59.3625 113.712 59.2936 113.834 59.2674C113.956 59.2411 114.068 59.2641 114.171 59.333C114.274 59.4052 114.345 59.5003 114.38 59.625C114.415 59.7497 114.39 59.8646 114.303 59.9696C114.303 59.986 114.078 60.3536 113.625 61.0722C113.175 61.7909 112.61 62.7425 111.936 63.9304C111.486 64.7279 111.12 65.4334 110.844 66.0438C110.567 66.6541 110.362 67.1858 110.233 67.6386C110.105 68.0915 110.028 68.459 110.012 68.7412C109.996 69.0234 110.028 69.2302 110.115 69.3516C110.131 69.3877 110.169 69.4369 110.23 69.4993C110.291 69.5616 110.426 69.5911 110.635 69.5911C110.722 69.5911 110.879 69.5321 111.104 69.4172C111.329 69.3024 111.659 69.0333 112.093 68.6067C112.405 68.3048 112.716 67.9635 113.031 67.5828C113.342 67.2022 113.648 66.8346 113.94 66.4802C113.991 66.4277 114.039 66.3752 114.084 66.3194C114.126 66.2669 114.168 66.2144 114.2 66.1586C114.287 66.07 114.39 66.0175 114.512 65.9978C114.634 65.988 114.746 66.0241 114.849 66.1127ZM108.579 67.7338C109.013 67.2022 109.36 66.7198 109.62 66.2866C109.88 65.8534 110.018 65.627 110.037 65.6073C110.037 65.5909 110.041 65.5811 110.05 65.5811C110.06 65.5811 110.063 65.5712 110.063 65.5548C110.323 64.9543 110.686 64.252 111.155 63.4546C111.242 63.2938 111.332 63.1363 111.428 62.9755C111.525 62.8147 111.614 62.6671 111.701 62.5227V62.4701C111.717 62.3815 111.743 62.2536 111.778 62.0862C111.814 61.9188 111.833 61.7416 111.843 61.5546C111.852 61.3675 111.843 61.1838 111.817 60.9967C111.791 60.8097 111.727 60.6456 111.621 60.5045C111.431 60.2551 111.136 60.1337 110.738 60.1337C110.494 60.1337 110.172 60.2092 109.774 60.3601C109.376 60.5111 108.942 60.7572 108.473 61.105C108.004 61.4496 107.51 61.8926 106.989 62.4341C106.469 62.9755 105.965 63.6351 105.48 64.4128C104.873 65.3875 104.474 66.3162 104.282 67.2022C104.124 68.0357 104.16 68.6625 104.385 69.0891C104.593 69.5157 105.008 69.7257 105.634 69.7257C106.508 69.7257 107.487 69.0628 108.579 67.7338Z" fill="#767676"/>
<path d="M125.616 66.1126C125.719 66.2012 125.78 66.3062 125.799 66.4309C125.816 66.5556 125.783 66.6704 125.697 66.7755C125.661 66.8115 125.632 66.8476 125.607 66.8805C125.581 66.9166 125.549 66.9527 125.517 66.9855C125.343 67.1988 125.122 67.4646 124.852 67.7829C124.582 68.1012 124.271 68.4326 123.914 68.7805C123.558 69.125 123.172 69.4663 122.758 69.8043C122.34 70.1423 121.891 70.4245 121.406 70.6542C121.075 70.815 120.738 70.9561 120.391 71.0808C120.044 71.2055 119.697 71.3302 119.35 71.4516C118.881 72.3016 118.37 73.0366 117.815 73.6568C117.018 74.5429 116.27 75.0285 115.576 75.1171C115.541 75.1171 115.505 75.1204 115.473 75.1303C115.438 75.1401 115.403 75.1434 115.37 75.1434C114.921 75.1434 114.564 74.9662 114.304 74.6118C114.095 74.3821 114.034 74.0539 114.121 73.6273C114.208 73.2368 114.416 72.8693 114.744 72.5247C115.075 72.1802 115.489 71.8815 115.994 71.6354C116.321 71.4943 116.678 71.3598 117.06 71.2351C117.442 71.1104 117.831 70.9791 118.229 70.838C118.316 70.8019 118.399 70.7757 118.476 70.7592C118.553 70.7428 118.637 70.7133 118.724 70.6805C118.794 70.5394 118.859 70.3983 118.92 70.2539C118.981 70.1128 119.045 69.9717 119.115 69.8273C119.132 69.7912 119.177 69.6796 119.244 69.4959C119.315 69.3088 119.417 69.0561 119.556 68.7378C118.306 70.0143 117.179 70.651 116.173 70.651C115.566 70.651 115.107 70.5263 114.795 70.2802C114.484 70.0308 114.259 69.7846 114.118 69.5352C113.755 68.8625 113.694 68.0192 113.935 67.0117C114.037 66.5162 114.204 66.0076 114.429 65.4825C114.654 64.9608 114.934 64.4325 115.261 63.9008C116.199 62.411 117.256 61.2329 118.435 60.3666C118.955 59.9958 119.456 59.707 119.944 59.5036C120.429 59.3001 120.872 59.1984 121.271 59.1984C121.72 59.1984 122.074 59.2771 122.324 59.4379C122.575 59.5987 122.761 59.7661 122.883 59.9433C122.986 60.068 123.082 60.2354 123.169 60.4487C123.256 60.255 123.342 60.068 123.429 59.8908C123.516 59.7136 123.603 59.5265 123.689 59.3329C123.827 59.0671 124.036 58.9949 124.312 59.1196C124.415 59.1721 124.489 59.2607 124.534 59.3854C124.576 59.5101 124.573 59.625 124.521 59.73C124.277 60.2452 124.039 60.7538 123.805 61.2592C123.57 61.7645 123.333 62.2732 123.089 62.7884L123.063 62.8409C122.629 63.8155 122.221 64.7409 121.839 65.6171C121.457 66.4933 121.129 67.2743 120.85 67.9568C120.574 68.6394 120.352 69.1808 120.185 69.5779C120.021 69.975 119.938 70.185 119.938 70.2014C119.938 70.2375 119.928 70.2539 119.912 70.2539C120.102 70.1817 120.285 70.1128 120.458 70.0406C120.632 69.9684 120.805 69.8896 120.978 69.801C121.412 69.5877 121.823 69.3318 122.215 69.0299C122.604 68.728 122.963 68.413 123.294 68.0848C123.622 67.7566 123.914 67.4416 124.165 67.143C124.415 66.8411 124.627 66.5851 124.801 66.3718C124.836 66.3357 124.865 66.2996 124.891 66.2668C124.916 66.2307 124.945 66.1979 124.98 66.1618C125.067 66.0732 125.17 66.0207 125.292 66.001C125.427 65.9879 125.53 66.024 125.616 66.1126ZM119.295 67.6779C119.729 67.1824 120.092 66.7262 120.387 66.3095C120.683 65.8927 120.847 65.64 120.882 65.5514C121.091 65.0723 121.312 64.5735 121.547 64.0485C121.781 63.5267 122.019 62.9886 122.263 62.4406C122.279 62.3355 122.305 62.201 122.34 62.0435C122.376 61.8827 122.392 61.712 122.392 61.525C122.392 61.3379 122.379 61.1542 122.353 60.9671C122.327 60.7801 122.263 60.6259 122.157 60.5012C121.968 60.2518 121.672 60.1303 121.274 60.1303C121.03 60.1303 120.709 60.2058 120.31 60.3568C119.912 60.5077 119.478 60.7538 119.009 61.1017C118.541 61.4462 118.046 61.8892 117.526 62.4307C117.005 62.9722 116.501 63.6318 116.016 64.4095C115.409 65.3841 115.011 66.3128 114.818 67.1988C114.661 68.0323 114.696 68.6591 114.921 69.0857C115.13 69.5123 115.544 69.7223 116.17 69.7223C116.604 69.7223 117.079 69.5484 117.599 69.2038C118.126 68.8625 118.688 68.3539 119.295 67.6779ZM117.137 73.0202C117.294 72.8594 117.445 72.6822 117.593 72.4886C117.741 72.295 117.882 72.0883 118.023 71.8783C117.4 72.0719 116.854 72.2786 116.385 72.4886C115.968 72.6822 115.643 72.9087 115.409 73.1679C115.174 73.4239 115.04 73.6503 115.004 73.8472C114.988 73.9522 114.988 74.0145 115.004 74.0342C115.04 74.0867 115.091 74.1359 115.162 74.1819C115.232 74.2245 115.335 74.2311 115.473 74.195C115.958 74.1392 116.514 73.7487 117.137 73.0202Z" fill="#767676"/>
<path d="M134.1 66.0568C134.186 66.1454 134.235 66.2504 134.244 66.3751C134.254 66.4998 134.215 66.6048 134.129 66.6934C134.112 66.7295 133.92 66.9428 133.557 67.33C133.194 67.7205 132.706 68.1537 132.099 68.6328C130.416 69.9257 128.89 70.5722 127.522 70.5722C126.793 70.5722 126.243 70.4409 125.871 70.1751C125.498 69.9093 125.225 69.6337 125.052 69.3515C124.721 68.7674 124.628 68.0356 124.766 67.1594C124.904 66.2832 125.276 65.3119 125.884 64.2487C126.731 62.7063 127.657 61.4495 128.655 60.4749C129.651 59.5003 130.592 58.9326 131.479 58.775C132.156 58.67 132.718 58.8013 133.168 59.1754C133.515 59.4773 133.705 59.8842 133.74 60.3994C133.756 60.931 133.592 61.5217 133.245 62.1682C132.898 62.8146 132.394 63.4742 131.736 64.1469C131.007 64.9083 130.236 65.4661 129.42 65.8205C128.742 66.1224 128.093 66.2734 127.47 66.2734C127.159 66.2734 126.879 66.2471 126.638 66.1946C126.394 66.1421 126.195 66.0798 126.041 66.0076C125.954 66.2373 125.88 66.4539 125.819 66.6573C125.758 66.8608 125.71 67.0609 125.675 67.2546C125.572 67.9634 125.63 68.5048 125.858 68.8756C126.134 69.3908 126.69 69.6468 127.522 69.6468C128.231 69.6468 128.938 69.4663 129.641 69.1021C130.345 68.7378 130.978 68.3375 131.54 67.8945C132.102 67.4514 132.561 67.0445 132.918 66.6704C133.274 66.2996 133.451 66.1027 133.451 66.0863C133.538 65.9977 133.64 65.9485 133.762 65.9386C133.881 65.9288 133.994 65.9682 134.1 66.0568ZM126.658 64.7015C126.622 64.7901 126.581 64.8689 126.529 64.9411C126.478 65.0133 126.433 65.092 126.397 65.1806C126.536 65.2167 126.696 65.2528 126.879 65.2856C127.062 65.3217 127.274 65.3381 127.515 65.3381C128.713 65.3217 129.908 64.7081 131.106 63.5037C131.662 62.936 132.089 62.3847 132.394 61.8433C132.696 61.3018 132.841 60.8391 132.824 60.4486C132.789 60.2189 132.712 60.0319 132.59 59.8908C132.346 59.6775 132.025 59.6151 131.626 59.7037C131.28 59.7562 130.907 59.9137 130.509 60.1697C130.11 60.4257 129.702 60.7604 129.285 61.1673C128.35 62.0894 127.473 63.2675 126.658 64.7015Z" fill="#767676"/>
<path d="M48.8213 89.3161C48.7635 89.3161 48.7057 89.2898 48.6671 89.2373C48.6029 89.1487 48.6189 89.024 48.7057 88.9584C49.9711 87.9871 51.2912 86.9109 52.743 85.6673C52.8265 85.5984 52.9486 85.6082 53.016 85.6935C53.0835 85.7788 53.0738 85.9035 52.9903 85.9724C51.5321 87.2193 50.2056 88.2989 48.9369 89.2767C48.9016 89.3029 48.8598 89.3161 48.8213 89.3161Z" fill="#767676"/>
<path d="M45.4322 92.073C45.3744 92.073 45.3198 92.0467 45.2812 91.9975C45.2138 91.9122 45.2298 91.7875 45.3134 91.7186L46.1677 91.023C46.2512 90.9541 46.3733 90.9672 46.4407 91.0558C46.5082 91.1411 46.4953 91.2658 46.4086 91.3347L45.5543 92.0303C45.5157 92.0599 45.474 92.073 45.4322 92.073Z" fill="#767676"/>
<path d="M45.3266 86.4354C45.2367 86.4354 45.1564 86.3698 45.1371 86.2779C45.1147 86.1696 45.1821 86.0646 45.2881 86.0449C46.4123 85.8086 47.6071 85.5166 48.9433 85.1556C49.0461 85.1261 49.1521 85.1917 49.181 85.2967C49.2099 85.4017 49.1456 85.51 49.0428 85.5396C47.7035 85.9005 46.499 86.1959 45.3684 86.4321C45.3523 86.4354 45.3395 86.4354 45.3266 86.4354Z" fill="#767676"/>
<path d="M42.2581 87.1804C42.1714 87.1804 42.0911 87.118 42.0686 87.0294C42.0429 86.9245 42.1072 86.8162 42.2132 86.7899L42.9872 86.6029C43.09 86.58 43.196 86.6423 43.2217 86.7506C43.2474 86.8556 43.1832 86.9638 43.0772 86.9901L42.3031 87.1771C42.287 87.1804 42.271 87.1804 42.2581 87.1804Z" fill="#767676"/>
<path d="M107.63 87.1244C107.617 87.1244 107.604 87.1244 107.591 87.1212C106.236 86.852 105.031 86.5796 103.907 86.2908C103.804 86.2646 103.74 86.1563 103.766 86.0513C103.792 85.9462 103.898 85.8806 104 85.9069C105.118 86.1957 106.319 86.4648 107.665 86.7339C107.771 86.7536 107.839 86.8586 107.819 86.9669C107.803 87.0588 107.72 87.1244 107.63 87.1244Z" fill="#767676"/>
<path d="M101.653 85.7757C101.64 85.7757 101.624 85.7757 101.611 85.7725L100.837 85.5985C100.731 85.5755 100.667 85.4705 100.69 85.3621C100.712 85.2571 100.815 85.1882 100.921 85.2112L101.695 85.3851C101.801 85.4081 101.865 85.5131 101.843 85.6215C101.823 85.7134 101.743 85.7757 101.653 85.7757Z" fill="#767676"/>
<path d="M63.306 87.9973C63.2738 87.9973 63.2385 87.9874 63.2096 87.971C63.1165 87.9152 63.0844 87.7938 63.139 87.6986L63.8744 86.4056C63.929 86.3105 64.0479 86.2777 64.141 86.3334C64.2342 86.3892 64.2663 86.5107 64.2117 86.6058L63.4762 87.8988C63.4376 87.9612 63.3702 87.9973 63.306 87.9973Z" fill="#767676"/>
<path d="M54.7569 101.166C54.7216 101.166 54.683 101.156 54.6509 101.133C54.561 101.074 54.5385 100.949 54.5963 100.858L61.9836 89.4675C62.0446 89.3756 62.1635 89.3526 62.2534 89.4117C62.3433 89.4707 62.3658 89.5955 62.308 89.6874L54.9207 101.077C54.8822 101.137 54.8211 101.166 54.7569 101.166Z" fill="#767676"/>
<path d="M66.046 106.167C66.0332 106.167 66.0171 106.167 66.0043 106.164C65.8983 106.141 65.834 106.036 65.8565 105.928C66.7559 101.777 67.8511 97.6156 68.911 93.5925C69.5791 91.0592 70.2665 88.4406 70.8992 85.8515C70.9249 85.7465 71.0309 85.6809 71.1337 85.7071C71.2365 85.7334 71.3007 85.8417 71.275 85.9467C70.6423 88.5391 69.9517 91.1577 69.2836 93.6943C68.2237 97.7141 67.1316 101.868 66.2323 106.01C66.2163 106.105 66.136 106.167 66.046 106.167Z" fill="#767676"/>
<path d="M50.0705 97.5009C50.0255 97.5009 49.9806 97.4845 49.9452 97.4516C49.8649 97.3795 49.8553 97.2548 49.9227 97.1727L56.3369 89.5204C56.4076 89.4383 56.5296 89.4285 56.6099 89.4974C56.6902 89.5696 56.6999 89.6943 56.6324 89.7763L50.2182 97.4287C50.1797 97.4779 50.1251 97.5009 50.0705 97.5009Z" fill="#767676"/>
<path d="M60.5087 103.552C60.4862 103.552 60.4637 103.549 60.4412 103.539C60.3417 103.499 60.2903 103.388 60.3256 103.283C61.7485 99.3615 63.4444 95.4827 65.0824 91.732C65.606 90.5375 66.1263 89.3397 66.6434 88.142C66.6852 88.0435 66.8008 87.9976 66.9004 88.0402C66.9999 88.0829 67.0417 88.201 66.9999 88.3027C66.486 89.5038 65.9625 90.6983 65.4389 91.896C63.8041 95.6402 62.1114 99.5157 60.6918 103.424C60.6628 103.503 60.589 103.552 60.5087 103.552Z" fill="#767676"/>
<path d="M57.8586 87.9088C57.8136 87.9088 57.7719 87.8924 57.7333 87.8628C57.6498 87.7939 57.6402 87.6692 57.7076 87.5839L59.2751 85.674C59.3425 85.5887 59.4678 85.5788 59.5481 85.6477C59.6316 85.7166 59.6412 85.8414 59.5738 85.9267L58.0063 87.8366C57.9678 87.8858 57.9132 87.9088 57.8586 87.9088Z" fill="#767676"/>
<path d="M60.5087 103.552C60.4862 103.552 60.4637 103.549 60.4412 103.539C60.3417 103.499 60.2903 103.388 60.3256 103.283C61.7485 99.3615 63.4444 95.4827 65.0824 91.732C65.606 90.5375 66.1263 89.3397 66.6434 88.142C66.6852 88.0435 66.8008 87.9976 66.9004 88.0402C66.9999 88.0829 67.0417 88.201 66.9999 88.3027C66.486 89.5038 65.9625 90.6983 65.4389 91.896C63.8041 95.6402 62.1114 99.5157 60.6918 103.424C60.6628 103.503 60.589 103.552 60.5087 103.552Z" fill="#767676"/>
<path d="M80.0574 107.733C79.961 107.733 79.8775 107.657 79.8647 107.559C79.415 103.68 79.0938 99.7223 78.7823 95.8961C78.5157 92.6211 78.2395 89.2314 77.8862 85.9105C77.8733 85.8022 77.9504 85.7037 78.0564 85.6939C78.1624 85.6807 78.2587 85.7595 78.2716 85.8678C78.6249 89.1953 78.9011 92.585 79.1677 95.8633C79.4793 99.6862 79.8004 103.64 80.2501 107.513C80.263 107.621 80.1859 107.719 80.0799 107.733C80.0735 107.733 80.067 107.733 80.0574 107.733Z" fill="#767676"/>
<path d="M86.9343 106.532C86.8475 106.532 86.7672 106.473 86.7448 106.381C85.7105 102.111 84.4514 97.8224 83.2341 93.6779C82.6849 91.8074 82.1164 89.8746 81.5768 87.9648C81.5479 87.8598 81.6057 87.7482 81.7085 87.7187C81.8112 87.6891 81.9204 87.7482 81.9494 87.8532C82.489 89.7598 83.0575 91.6926 83.6035 93.5597C84.8208 97.7109 86.0831 102 87.1173 106.282C87.143 106.387 87.0788 106.495 86.976 106.522C86.9664 106.528 86.9503 106.532 86.9343 106.532Z" fill="#767676"/>
<path d="M94.8837 103.315C94.813 103.315 94.7455 103.276 94.7102 103.207C93.5861 100.962 92.4619 98.6719 91.3763 96.4569C89.7992 93.241 88.1708 89.9168 86.5103 86.6813C86.4621 86.5828 86.4974 86.4647 86.5906 86.4155C86.6869 86.3662 86.8026 86.4023 86.8507 86.4975C88.5145 89.7396 90.1429 93.0638 91.7199 96.2797C92.8056 98.4947 93.9297 100.785 95.0507 103.026C95.0988 103.125 95.0603 103.243 94.9672 103.292C94.9447 103.309 94.9158 103.315 94.8837 103.315Z" fill="#767676"/>
<path d="M99.4658 88.7818C99.4176 88.7818 99.3695 88.7654 99.3341 88.726L96.4852 85.9696C96.4081 85.8941 96.4049 85.7694 96.4788 85.6907C96.5526 85.6119 96.6747 85.6087 96.7518 85.6841L99.6007 88.4406C99.6778 88.516 99.681 88.6407 99.6071 88.7195C99.5686 88.7621 99.5172 88.7818 99.4658 88.7818Z" fill="#767676"/>
<path d="M104.254 93.8515C104.202 93.8515 104.151 93.8318 104.116 93.7924L102.831 92.4338C102.757 92.355 102.757 92.2303 102.834 92.1548C102.911 92.0793 103.033 92.0826 103.107 92.1581L104.392 93.5167C104.466 93.5955 104.466 93.7202 104.389 93.7957C104.35 93.8351 104.302 93.8515 104.254 93.8515Z" fill="#767676"/>
<path d="M72.8966 101.989C72.8902 101.989 72.887 101.989 72.8806 101.989C72.7746 101.98 72.6943 101.884 72.7039 101.776C73.054 97.2968 73.3655 93.3787 73.661 89.7986C73.6707 89.6903 73.767 89.6148 73.8698 89.6181C73.9758 89.6279 74.0561 89.7231 74.0464 89.8314C73.7542 93.4115 73.4394 97.3296 73.0893 101.809C73.0829 101.911 72.9994 101.989 72.8966 101.989Z" fill="#767676"/>
<path d="M72.442 107.775C72.4356 107.775 72.4324 107.775 72.426 107.775C72.32 107.765 72.2397 107.67 72.2493 107.562L72.6572 102.64C72.6669 102.531 72.7632 102.453 72.866 102.459C72.972 102.469 73.0523 102.564 73.0427 102.673L72.6348 107.595C72.6283 107.696 72.5416 107.775 72.442 107.775Z" fill="#767676"/>
<path d="M99.987 99.302C99.926 99.302 99.8681 99.2725 99.8296 99.22C96.6113 94.6685 93.4219 90.1991 90.3481 85.9298C90.2838 85.8412 90.3031 85.7165 90.3898 85.6541C90.4766 85.5885 90.5986 85.6082 90.6596 85.6968C93.7302 89.9661 96.9196 94.4388 100.141 98.9903C100.205 99.0789 100.186 99.2036 100.096 99.2659C100.067 99.2889 100.026 99.302 99.987 99.302Z" fill="#767676"/>
<path d="M94.5611 53.5053C94.5065 53.5053 94.4519 53.4823 94.4133 53.4364C94.3427 53.3543 94.3555 53.2264 94.4358 53.1574L106.837 42.4433C106.92 42.3711 107.043 42.3842 107.11 42.4662C107.181 42.5483 107.168 42.6762 107.088 42.7452L94.6863 53.4594C94.651 53.4889 94.606 53.5053 94.5611 53.5053Z" fill="#767676"/>
<path d="M87.6658 48.9274C87.6337 48.9274 87.5984 48.9175 87.5695 48.9011C87.4763 48.8453 87.4442 48.7239 87.4988 48.6287L88.2408 47.3293C88.2954 47.2341 88.4142 47.2046 88.5074 47.2571C88.6005 47.3129 88.6327 47.4343 88.578 47.5295L87.8361 48.8289C87.7975 48.8913 87.7301 48.9274 87.6658 48.9274Z" fill="#767676"/>
<path d="M89.567 45.8461C89.5316 45.8461 89.4931 45.8362 89.461 45.8133C89.371 45.7542 89.3485 45.6295 89.4064 45.5376L96.7937 34.1472C96.8548 34.0553 96.9736 34.0324 97.0635 34.0914C97.1535 34.1505 97.1759 34.2752 97.1181 34.3671L89.7308 45.7575C89.689 45.8133 89.628 45.8461 89.567 45.8461Z" fill="#767676"/>
<path d="M81.5145 46.3777C81.4984 46.3777 81.4824 46.3744 81.4663 46.3711C81.3635 46.3449 81.2993 46.2366 81.325 46.1316C81.6751 44.7173 82.0284 43.3062 82.3817 41.8952C83.4224 37.7441 84.4952 33.4553 85.4716 29.2156C85.4973 29.1106 85.6001 29.0417 85.7061 29.0679C85.8088 29.0942 85.8763 29.1992 85.8506 29.3075C84.8742 33.5504 83.7982 37.8459 82.7575 41.9969C82.4042 43.408 82.0509 44.8223 81.7008 46.2333C81.6783 46.3186 81.6012 46.3777 81.5145 46.3777Z" fill="#767676"/>
<path d="M99.027 41.2424C98.9821 41.2424 98.9371 41.226 98.9018 41.1932C98.8215 41.121 98.8118 40.9963 98.8793 40.9143L101.494 37.7936C101.564 37.7116 101.687 37.7017 101.767 37.7706C101.847 37.8428 101.857 37.9675 101.789 38.0496L99.1748 41.1703C99.1362 41.2195 99.0816 41.2424 99.027 41.2424Z" fill="#767676"/>
<path d="M89.3904 36.5101C89.3679 36.5101 89.3422 36.5068 89.3197 36.497C89.2202 36.4576 89.172 36.3427 89.2105 36.241C89.4611 35.5946 89.7373 34.9547 90.0006 34.3345C90.37 33.4715 90.7201 32.6577 91.0188 31.8078C91.0541 31.706 91.1666 31.6503 91.2661 31.6896C91.3657 31.7257 91.4203 31.8406 91.3818 31.9423C91.0766 32.8053 90.7105 33.6651 90.354 34.4953C90.0906 35.1089 89.8176 35.7455 89.5671 36.3887C89.5381 36.4641 89.4675 36.5101 89.3904 36.5101Z" fill="#767676"/>
<path d="M98.7049 53.7479C98.6343 53.7479 98.5668 53.7085 98.5347 53.6429C98.4865 53.5444 98.5218 53.4263 98.615 53.3771L107.146 48.806C107.242 48.7567 107.358 48.7928 107.406 48.888C107.454 48.9865 107.419 49.1046 107.326 49.1538L98.7949 53.7249C98.7659 53.7413 98.737 53.7479 98.7049 53.7479Z" fill="#767676"/>
<path d="M107.757 48.8848C107.686 48.8848 107.619 48.8455 107.586 48.7798C107.535 48.6814 107.574 48.5632 107.667 48.514L109.777 47.3851C109.873 47.3359 109.989 47.372 110.037 47.4672C110.088 47.5656 110.05 47.6838 109.957 47.733L107.847 48.8652C107.821 48.8783 107.789 48.8848 107.757 48.8848Z" fill="#767676"/>
<path d="M103.07 55.1689C102.99 55.1689 102.912 55.1164 102.887 55.0343C102.851 54.9293 102.906 54.8178 103.009 54.7817L110.146 52.3043C110.245 52.2715 110.358 52.324 110.393 52.429C110.428 52.534 110.374 52.6456 110.271 52.6817L103.134 55.159C103.112 55.1656 103.092 55.1689 103.07 55.1689Z" fill="#767676"/>
<path d="M89.0373 53.5873C88.9923 53.5873 88.9506 53.5709 88.912 53.5414C88.8285 53.4725 88.8189 53.3478 88.8863 53.2624L96.2705 44.2549C96.3412 44.1695 96.4633 44.1597 96.5436 44.2286C96.6271 44.2975 96.6367 44.4222 96.5692 44.5075L89.185 53.5151C89.1497 53.5611 89.0951 53.5873 89.0373 53.5873Z" fill="#767676"/>
<path d="M85.0824 47.2012C85.0567 47.2012 85.031 47.1947 85.0053 47.1848C84.9057 47.1422 84.864 47.024 84.9057 46.9223C86.2355 43.8246 87.4174 41.0223 88.4452 38.1117C88.4806 38.0099 88.593 37.9542 88.6926 37.9935C88.7921 38.0296 88.8467 38.1445 88.8082 38.2462C87.7804 41.1667 86.592 43.9756 85.259 47.0798C85.2269 47.1586 85.1563 47.2012 85.0824 47.2012Z" fill="#767676"/>
<path d="M73.6112 48.5134C73.5149 48.5134 73.4314 48.4379 73.4185 48.3362C72.9785 44.2966 72.6059 40.1783 72.2494 36.1978C71.9989 33.4151 71.7387 30.5372 71.4593 27.7085C71.4497 27.6002 71.5268 27.5018 71.6327 27.4919C71.7387 27.4821 71.8351 27.5608 71.8447 27.6691C72.1274 30.4978 72.3843 33.379 72.6348 36.1617C72.9914 40.1389 73.3639 44.254 73.8039 48.2902C73.8168 48.3985 73.7397 48.497 73.6337 48.5101C73.6273 48.5134 73.6209 48.5134 73.6112 48.5134Z" fill="#767676"/>
<path d="M70.324 49.4067C70.2405 49.4067 70.1602 49.3476 70.1377 49.2623L66.8905 37.3765C66.8616 37.2715 66.9226 37.1632 67.0254 37.1337C67.1282 37.1041 67.2342 37.1665 67.2631 37.2715L70.5103 49.1573C70.5392 49.2623 70.4782 49.3706 70.3754 49.4001C70.3561 49.4067 70.3401 49.4067 70.324 49.4067Z" fill="#767676"/>
<path d="M66.1976 34.2917C66.1141 34.2917 66.0338 34.2327 66.0113 34.1473L64.5917 28.9462C64.5627 28.8412 64.6238 28.7329 64.7265 28.7034C64.8293 28.6739 64.9353 28.7362 64.9642 28.8412L66.3839 34.0423C66.4128 34.1473 66.3518 34.2556 66.249 34.2852C66.2297 34.2885 66.2136 34.2917 66.1976 34.2917Z" fill="#767676"/>
<path d="M66.6257 51.4643C66.555 51.4643 66.4876 51.4249 66.4523 51.356C63.022 44.4549 59.8165 38.1905 56.656 32.2049C56.6046 32.1098 56.6399 31.9884 56.7331 31.9358C56.8262 31.8833 56.945 31.9194 56.9964 32.0146C60.1569 38.0034 63.3624 44.2712 66.7959 51.1755C66.8441 51.274 66.8056 51.3921 66.7124 51.4413C66.6835 51.4577 66.6546 51.4643 66.6257 51.4643Z" fill="#767676"/>
<path d="M59.1973 53.5641C59.1491 53.5641 59.1009 53.5477 59.0656 53.5083L52.1151 46.7879C52.038 46.7124 52.0348 46.5877 52.1086 46.509C52.1825 46.4302 52.3046 46.427 52.3816 46.5024L59.3322 53.2228C59.4093 53.2983 59.4125 53.423 59.3386 53.5018C59.3001 53.5412 59.2487 53.5641 59.1973 53.5641Z" fill="#767676"/>
<path d="M50.0379 44.5959C49.9865 44.5959 49.9351 44.5762 49.8997 44.5368L45.8142 40.2084C45.7403 40.1297 45.7435 40.005 45.8206 39.9295C45.8977 39.854 46.0198 39.8573 46.0936 39.9361L50.1792 44.2645C50.253 44.3432 50.2498 44.4679 50.1727 44.5434C50.1342 44.5762 50.086 44.5959 50.0379 44.5959Z" fill="#767676"/>
<path d="M46.2835 53.3247C46.2545 53.3247 46.2256 53.3182 46.1999 53.3051L39.2975 49.9251C39.2012 49.8792 39.1594 49.7611 39.2076 49.6593C39.2526 49.5609 39.3714 49.5182 39.4678 49.5675L46.3702 52.9474C46.4665 52.9933 46.5083 53.1115 46.4601 53.2132C46.428 53.2821 46.3573 53.3247 46.2835 53.3247Z" fill="#767676"/>
<path d="M77.6955 46.9292C77.6923 46.9292 77.6859 46.9292 77.6827 46.9292C77.5767 46.9226 77.4964 46.8275 77.5028 46.7192C77.5349 46.2171 77.567 45.7183 77.5959 45.2163C77.7694 42.404 77.9492 39.4999 78.2865 36.6515C78.2993 36.5432 78.3957 36.4678 78.5017 36.4776C78.6077 36.4907 78.6848 36.5892 78.6719 36.6975C78.3347 39.5327 78.1548 42.4335 77.9814 45.2392C77.9492 45.7413 77.9203 46.2434 77.8882 46.7422C77.8818 46.8472 77.7951 46.9292 77.6955 46.9292Z" fill="#767676"/>
<path d="M78.862 32.7726C78.8555 32.7726 78.8523 32.7726 78.8459 32.7726C78.7399 32.7627 78.6596 32.6676 78.6692 32.5593L79.0772 27.6369C79.0868 27.5286 79.1864 27.4531 79.2859 27.4564C79.3919 27.4662 79.4722 27.5614 79.4626 27.6697L79.0547 32.5921C79.045 32.6938 78.9615 32.7726 78.862 32.7726Z" fill="#767676"/>
<path d="M52.8294 37.8228C52.7716 37.8228 52.7138 37.7965 52.6752 37.744C52.1485 37.0352 51.6185 36.2936 51.1046 35.575L50.8027 35.155C50.7384 35.0664 50.7577 34.9417 50.8444 34.8794C50.9312 34.817 51.0532 34.8334 51.1142 34.922L51.4162 35.342C51.9301 36.0574 52.4568 36.799 52.9836 37.5045C53.0478 37.5931 53.0317 37.7145 52.945 37.7834C52.9129 37.8097 52.8712 37.8228 52.8294 37.8228Z" fill="#767676"/>
<path d="M63.7037 52.9014C63.6459 52.9014 63.5881 52.8752 63.5495 52.8227C61.3847 49.8825 59.2263 46.8635 57.1385 43.943L55.6611 41.8757C55.5968 41.7871 55.6161 41.6624 55.7028 41.6C55.7895 41.5344 55.9116 41.5541 55.9726 41.6427L57.4501 43.71C59.5378 46.6305 61.693 49.6462 63.8578 52.5864C63.9221 52.675 63.906 52.7997 63.8193 52.8653C63.784 52.8883 63.7422 52.9014 63.7037 52.9014Z" fill="#767676"/>
<path d="M52.945 53.5184C52.9065 53.5184 52.8679 53.5086 52.8358 53.4823L47.4591 49.6919C47.3724 49.6295 47.3499 49.5048 47.4109 49.4162C47.4719 49.3276 47.594 49.3046 47.6807 49.367L53.0574 53.1574C53.1442 53.2198 53.1666 53.3445 53.1056 53.4331C53.0671 53.4889 53.0061 53.5184 52.945 53.5184Z" fill="#767676"/>
<path d="M45.9523 48.5697C45.9137 48.5697 45.8752 48.5598 45.8431 48.5336L42.6344 46.2695C42.5477 46.2071 42.5252 46.0824 42.5862 45.9938C42.6472 45.9053 42.7693 45.8823 42.856 45.9446L46.0647 48.2087C46.1514 48.2711 46.1739 48.3958 46.1129 48.4844C46.0743 48.5401 46.0133 48.5697 45.9523 48.5697Z" fill="#767676"/>
<path d="M41.6415 79.52V80.347C41.6415 80.9639 41.1533 81.4693 40.5495 81.4693H39.2454C39.1491 81.4693 39.0752 81.3906 39.0752 81.2954V76.7403C39.0752 76.6418 39.1491 76.5663 39.2454 76.5663H40.4403C41.0441 76.5663 41.5323 77.0717 41.5323 77.6887V78.1449C41.5323 78.3746 41.4713 78.5846 41.346 78.7619C41.5323 78.9588 41.6415 79.2279 41.6415 79.52ZM39.9007 78.4074H40.4435C40.588 78.4074 40.7101 78.2827 40.7101 78.135V77.6526C40.7101 77.4984 40.588 77.3737 40.4435 77.3737H39.9007V78.4074ZM40.8193 79.4806C40.8193 79.3263 40.6972 79.2016 40.5527 79.2016H39.9007V80.6587H40.5527C40.6972 80.6587 40.8193 80.534 40.8193 80.3699V79.4806Z" fill="#767676"/>
<path d="M43.2261 77.3619V78.4054H43.83C43.9263 78.4054 44.0002 78.4809 44.0002 78.5794V79.0125C44.0002 79.111 43.9263 79.1864 43.83 79.1864H43.2261V80.6665H44.1801C44.2764 80.6665 44.3503 80.7419 44.3503 80.8404V81.29C44.3503 81.3884 44.2764 81.4639 44.1801 81.4639H42.5677C42.4713 81.4639 42.3975 81.3851 42.3975 81.29V76.7351C42.3975 76.6366 42.4713 76.5612 42.5677 76.5612H44.1801C44.2764 76.5612 44.3503 76.6399 44.3503 76.7351V77.1847C44.3503 77.2831 44.2764 77.3586 44.1801 77.3586H43.2261V77.3619Z" fill="#767676"/>
<path d="M46.7254 77.8015V77.6538C46.7254 77.4996 46.6033 77.3814 46.4524 77.3814H46.1376C45.9866 77.3814 45.8646 77.4996 45.8646 77.6538V78.0804C45.8646 78.2346 45.9866 78.3527 46.1376 78.3593H46.4524C47.0626 78.3593 47.5508 78.8581 47.5508 79.4816V80.3446C47.5508 80.9615 47.0562 81.4668 46.4524 81.4668H46.1376C45.5338 81.4668 45.0391 80.9615 45.0391 80.3446V79.7703C45.0391 79.6719 45.113 79.5964 45.2094 79.5964H45.6879C45.7843 79.5964 45.8582 79.6752 45.8582 79.7703V80.3807C45.8582 80.5349 45.9802 80.6596 46.1312 80.6596H46.4459C46.5969 80.6596 46.719 80.5349 46.719 80.3807V79.4684C46.719 79.3142 46.5969 79.1961 46.4459 79.1961H46.1312C45.5273 79.1895 45.0327 78.6973 45.0327 78.0804V77.68C45.0327 77.0631 45.5273 76.5578 46.1312 76.5578H46.4459C47.0562 76.5578 47.5444 77.0631 47.5444 77.68V77.7982C47.5444 77.8966 47.4673 77.9721 47.3742 77.9721H46.8956C46.7993 77.9787 46.7254 77.8999 46.7254 77.8015Z" fill="#767676"/>
<path d="M50.4706 76.7381V77.2008C50.4706 77.2993 50.3871 77.3747 50.3003 77.3747H49.7094V81.2929C49.7094 81.3913 49.6355 81.4668 49.5391 81.4668H49.0573C48.9674 81.4668 48.8871 81.3881 48.8871 81.2929V77.3747H48.3026C48.2062 77.3747 48.1323 77.296 48.1323 77.2008V76.7381C48.1323 76.6397 48.2062 76.5642 48.3026 76.5642H50.2971C50.3871 76.5609 50.4706 76.6397 50.4706 76.7381Z" fill="#767676"/>
<path d="M54.9689 80.6597H55.2419C55.3254 80.6597 55.4057 80.7385 55.4057 80.8336V81.2898C55.4057 81.3882 55.3222 81.4637 55.2258 81.4637H53.8672C53.3308 81.4637 52.9004 81.0207 52.9004 80.4825V77.5455C52.9004 76.9975 53.334 76.5578 53.8672 76.5578H54.4421C54.9785 76.5578 55.4089 77.0008 55.4089 77.5455V79.964C55.4153 80.2758 55.229 80.5416 54.9689 80.6597ZM54.5899 77.5488C54.5899 77.4504 54.5063 77.3683 54.41 77.3683H53.9025C53.8062 77.3683 53.7258 77.4536 53.7258 77.5488V80.4858C53.7258 80.5777 53.8094 80.6597 53.9025 80.6597H54.5899V77.5488Z" fill="#767676"/>
<path d="M58.0985 76.5612H58.5771C58.6734 76.5612 58.7473 76.6465 58.7473 76.7449V80.5712C58.7473 81.0601 58.349 81.467 57.8705 81.467H57.1156C56.6338 81.467 56.2388 81.0601 56.2388 80.5712V76.7449C56.2388 76.6465 56.3126 76.5612 56.409 76.5612H56.8908C56.9872 76.5612 57.061 76.6465 57.061 76.7449V80.4859C57.061 80.5843 57.1445 80.6598 57.2409 80.6598H57.7484C57.8448 80.6598 57.9283 80.5843 57.9283 80.4859V76.7449C57.9251 76.6465 58.0021 76.5612 58.0985 76.5612Z" fill="#767676"/>
<path d="M62.0016 80.6762V81.2931C62.0016 81.3916 61.9245 81.467 61.8313 81.467H61.3431C61.2532 81.467 61.1793 81.3883 61.1793 81.2931V80.6565H60.2607V81.2931C60.2607 81.3916 60.1868 81.467 60.0905 81.467H59.6087C59.5123 81.467 59.4385 81.3883 59.4385 81.2931V80.6762C59.4385 80.6467 59.4385 80.627 59.4449 80.5843L60.0359 76.7154C60.0487 76.6235 60.1258 76.5612 60.2158 76.5612H61.2436C61.3335 76.5612 61.4009 76.6399 61.4138 76.7154L61.9951 80.5843C62.0016 80.627 62.0016 80.6467 62.0016 80.6762ZM61.083 79.8624L60.72 77.3881L60.3571 79.8624H61.083Z" fill="#767676"/>
<path d="M63.5102 76.7381V80.6694H64.4706C64.567 80.6694 64.6408 80.7449 64.6408 80.8433V81.2929C64.6408 81.3913 64.567 81.4668 64.4706 81.4668H62.8582C62.7619 81.4668 62.688 81.3881 62.688 81.2929V76.7381C62.688 76.6397 62.7619 76.5642 62.8582 76.5642H63.34C63.4364 76.5609 63.5102 76.6397 63.5102 76.7381Z" fill="#767676"/>
<path d="M65.9462 81.467H65.4676C65.3712 81.467 65.2974 81.3883 65.2974 81.2931V76.7449C65.2974 76.6465 65.3744 76.5612 65.4676 76.5612H65.9462C66.0425 76.5612 66.1164 76.6465 66.1164 76.7449V81.2931C66.1196 81.3916 66.0425 81.467 65.9462 81.467Z" fill="#767676"/>
<path d="M69.1083 76.7381V77.2008C69.1083 77.2993 69.0248 77.3747 68.938 77.3747H68.3471V81.2929C68.3471 81.3913 68.2732 81.4668 68.1768 81.4668H67.695C67.6051 81.4668 67.5248 81.3881 67.5248 81.2929V77.3747H66.9402C66.8439 77.3747 66.77 77.296 66.77 77.2008V76.7381C66.77 76.6397 66.8439 76.5642 66.9402 76.5642H68.9348C69.0248 76.5609 69.1083 76.6397 69.1083 76.7381Z" fill="#767676"/>
<path d="M71.6057 76.5612H72.0842C72.1806 76.5612 72.2545 76.6399 72.2545 76.7351V77.4275C72.2545 77.503 72.2416 77.5818 72.2063 77.6507L71.3359 79.4786V81.2868C71.3359 81.3853 71.2588 81.4607 71.1656 81.4607H70.6871C70.5907 81.4607 70.5168 81.382 70.5168 81.2868V79.4786L69.64 77.6507C69.6111 77.5818 69.5918 77.503 69.5918 77.4275V76.7351C69.5918 76.6366 69.6657 76.5612 69.762 76.5612H70.2438C70.3402 76.5612 70.414 76.6399 70.414 76.7351V77.2667C70.414 77.3225 70.4269 77.3783 70.4558 77.4275L70.928 78.4219L71.4001 77.4275C71.4194 77.3783 71.4354 77.3225 71.4354 77.2667V76.7351C71.4354 76.6399 71.5093 76.5612 71.6057 76.5612Z" fill="#767676"/>
<path d="M76.5314 79.0157C76.5314 79.554 76.1074 79.9904 75.5775 79.9904C75.0571 79.9904 74.6235 79.5572 74.6235 79.0157C74.6235 78.4841 75.0571 78.041 75.5775 78.041C76.1042 78.041 76.5314 78.4808 76.5314 79.0157Z" fill="#767676"/>
<path d="M81.6356 79.5177V80.3446C81.6356 80.9615 81.1474 81.4669 80.5436 81.4669H79.2396C79.1432 81.4669 79.0693 81.3881 79.0693 81.2929V76.7383C79.0693 76.6399 79.1464 76.5644 79.2396 76.5644H80.4344C81.0382 76.5644 81.5264 77.0697 81.5264 77.6866V78.1428C81.5264 78.3725 81.4654 78.5825 81.3401 78.7597C81.5232 78.9566 81.6356 79.2256 81.6356 79.5177ZM79.8916 78.4053H80.4344C80.5789 78.4053 80.701 78.2806 80.701 78.1329V77.6505C80.701 77.4963 80.5789 77.3716 80.4344 77.3716H79.8916V78.4053ZM80.8102 79.4783C80.8102 79.3241 80.6881 79.1994 80.5436 79.1994H79.8916V80.6563H80.5436C80.6881 80.6563 80.8102 80.5317 80.8102 80.3676V79.4783Z" fill="#767676"/>
<path d="M83.2188 77.3619V78.4054H83.8227C83.919 78.4054 83.9929 78.4809 83.9929 78.5794V79.0125C83.9929 79.111 83.919 79.1864 83.8227 79.1864H83.2188V80.6665H84.1727C84.2691 80.6665 84.343 80.7419 84.343 80.8404V81.29C84.343 81.3884 84.2691 81.4639 84.1727 81.4639H82.5604C82.464 81.4639 82.3901 81.3851 82.3901 81.29V76.7351C82.3901 76.6366 82.464 76.5612 82.5604 76.5612H84.1727C84.2691 76.5612 84.343 76.6399 84.343 76.7351V77.1847C84.343 77.2831 84.2691 77.3586 84.1727 77.3586H83.2188V77.3619Z" fill="#767676"/>
<path d="M86.7176 77.8015V77.6538C86.7176 77.4996 86.5955 77.3814 86.4446 77.3814H86.1298C85.9788 77.3814 85.8568 77.4996 85.8568 77.6538V78.0804C85.8568 78.2346 85.9788 78.3527 86.1298 78.3593H86.4446C87.0548 78.3593 87.543 78.8581 87.543 79.4816V80.3446C87.543 80.9615 87.0484 81.4668 86.4446 81.4668H86.1298C85.526 81.4668 85.0313 80.9615 85.0313 80.3446V79.7703C85.0313 79.6719 85.1052 79.5964 85.2016 79.5964H85.6801C85.7765 79.5964 85.8504 79.6752 85.8504 79.7703V80.3807C85.8504 80.5349 85.9724 80.6596 86.1234 80.6596H86.4381C86.5891 80.6596 86.7111 80.5349 86.7111 80.3807V79.4684C86.7111 79.3142 86.5891 79.1961 86.4381 79.1961H86.1234C85.5195 79.1895 85.0249 78.6973 85.0249 78.0804V77.68C85.0249 77.0631 85.5195 76.5578 86.1234 76.5578H86.4381C87.0484 76.5578 87.5366 77.0631 87.5366 77.68V77.7982C87.5366 77.8966 87.4595 77.9721 87.3664 77.9721H86.8878C86.7947 77.9787 86.7176 77.8999 86.7176 77.8015Z" fill="#767676"/>
<path d="M90.4619 76.7381V77.2008C90.4619 77.2993 90.3783 77.3747 90.2916 77.3747H89.7006V81.2929C89.7006 81.3913 89.6267 81.4668 89.5304 81.4668H89.0486C88.9586 81.4668 88.8783 81.3881 88.8783 81.2929V77.3747H88.2938C88.1974 77.3747 88.1235 77.296 88.1235 77.2008V76.7381C88.1235 76.6397 88.1974 76.5642 88.2938 76.5642H90.2884C90.3816 76.5609 90.4619 76.6397 90.4619 76.7381Z" fill="#767676"/>
<path d="M95.3392 77.6834V78.1329C95.3392 78.7498 94.8446 79.2552 94.2472 79.2552H93.7204V81.2929C93.7204 81.3914 93.6433 81.4669 93.5502 81.4669H93.0716C92.9752 81.4669 92.9014 81.3881 92.9014 81.2929V76.7383C92.9014 76.6399 92.9785 76.5644 93.0716 76.5644H94.2504C94.8446 76.5611 95.3392 77.0665 95.3392 77.6834ZM94.517 77.6473C94.517 77.493 94.4013 77.3684 94.2504 77.3684H93.7236V78.4053H94.2504C94.4013 78.4053 94.517 78.2806 94.517 78.1329V77.6473Z" fill="#767676"/>
<path d="M97.7872 79.1764L98.4038 80.3544C98.4391 80.4234 98.452 80.5087 98.452 80.5841V81.2864C98.452 81.3848 98.3846 81.4603 98.2882 81.4603H97.8096C97.7133 81.4603 97.6298 81.3848 97.6298 81.2864V80.7974C97.6298 80.7187 97.6169 80.6432 97.5816 80.5579L96.8493 79.1699V81.2929C96.8493 81.3914 96.7722 81.4669 96.6791 81.4669H96.2005C96.1106 81.4669 96.0303 81.3881 96.0303 81.2929V76.7383C96.0303 76.6399 96.1138 76.5644 96.2005 76.5644H97.3857C97.9895 76.5644 98.4745 77.0697 98.4745 77.6866V78.1296C98.4745 78.6022 98.1854 79.0058 97.7872 79.1764ZM97.3825 77.3683H96.8461V78.4118H97.3825C97.527 78.4118 97.649 78.2871 97.649 78.1231V77.6407C97.6522 77.4865 97.527 77.3683 97.3825 77.3683Z" fill="#767676"/>
<path d="M99.8104 81.467H99.3319C99.2355 81.467 99.1616 81.3883 99.1616 81.2931V76.7449C99.1616 76.6465 99.2387 76.5612 99.3319 76.5612H99.8104C99.9068 76.5612 99.9807 76.6465 99.9807 76.7449V81.2931C99.9839 81.3916 99.9068 81.467 99.8104 81.467Z" fill="#767676"/>
<path d="M102.596 79.1963H103.074C103.17 79.1963 103.244 79.2816 103.244 79.3768V80.568C103.244 81.057 102.852 81.4639 102.367 81.4639H101.613C101.131 81.4639 100.736 81.057 100.736 80.568V77.457C100.736 76.9582 101.128 76.5612 101.613 76.5612H102.367C102.856 76.5612 103.244 76.9615 103.244 77.457V78.2282C103.244 78.3267 103.167 78.412 103.074 78.412H102.596C102.499 78.412 102.425 78.3267 102.425 78.2282V77.5358C102.425 77.4374 102.342 77.3619 102.255 77.3619H101.741C101.645 77.3619 101.561 77.4406 101.561 77.5358V80.4794C101.561 80.5778 101.645 80.6533 101.741 80.6533H102.255C102.345 80.6533 102.425 80.5778 102.425 80.4794V79.3801C102.425 79.2816 102.502 79.1963 102.596 79.1963Z" fill="#767676"/>
<path d="M104.835 77.3619V78.4054H105.439C105.535 78.4054 105.609 78.4809 105.609 78.5794V79.0125C105.609 79.111 105.535 79.1864 105.439 79.1864H104.835V80.6665H105.789C105.885 80.6665 105.959 80.7419 105.959 80.8404V81.29C105.959 81.3884 105.885 81.4639 105.789 81.4639H104.177C104.08 81.4639 104.006 81.3851 104.006 81.29V76.7351C104.006 76.6366 104.08 76.5612 104.177 76.5612H105.789C105.885 76.5612 105.959 76.6399 105.959 76.7351V77.1847C105.959 77.2831 105.885 77.3586 105.789 77.3586H104.835V77.3619Z" fill="#767676"/>
<path d="M108.516 77.3223C113.472 77.3223 118.428 77.3223 123.384 77.3223C124.01 77.3223 124.01 76.3315 123.384 76.3315C118.428 76.3315 113.472 76.3315 108.516 76.3315C107.893 76.3315 107.893 77.3223 108.516 77.3223Z" fill="#767676"/>
<path d="M108.516 79.4359C111.747 79.4359 114.978 79.4359 118.213 79.4359C118.839 79.4359 118.839 78.4449 118.213 78.4449C114.982 78.4449 111.751 78.4449 108.516 78.4449C107.893 78.4449 107.893 79.4359 108.516 79.4359Z" fill="#767676"/>
<path d="M108.516 81.4178C109.981 81.4178 111.445 81.4178 112.91 81.4178C113.536 81.4178 113.536 80.4266 112.91 80.4266C111.445 80.4266 109.981 80.4266 108.516 80.4266C107.893 80.4266 107.893 81.4178 108.516 81.4178Z" fill="#767676"/>
<path d="M35.9909 76.3317C31.035 76.3317 26.079 76.3317 21.1231 76.3317C20.4967 76.3317 20.4967 77.3224 21.1231 77.3224C26.079 77.3224 31.035 77.3224 35.9909 77.3224C36.6173 77.3224 36.6173 76.3317 35.9909 76.3317Z" fill="#767676"/>
<path d="M35.9917 78.4449C32.7605 78.4449 29.5293 78.4449 26.2949 78.4449C25.6686 78.4449 25.6686 79.4359 26.2949 79.4359C29.5261 79.4359 32.7573 79.4359 35.9917 79.4359C36.618 79.4359 36.618 78.4449 35.9917 78.4449Z" fill="#767676"/>
<path d="M35.9916 80.4266C34.5269 80.4266 33.0623 80.4266 31.5977 80.4266C30.9713 80.4266 30.9713 81.4178 31.5977 81.4178C33.0623 81.4178 34.5269 81.4178 35.9916 81.4178C36.6179 81.4178 36.6179 80.4266 35.9916 80.4266Z" fill="#767676"/>
</g>
</g>
<defs>
<filter id="filter0_d_247_7" x="0.883301" y="0.897522" width="140.794" height="140.794" filterUnits="userSpaceOnUse" color-interpolation-filters="sRGB">
<feFlood flood-opacity="0" result="BackgroundImageFix"/>
<feColorMatrix in="SourceAlpha" type="matrix" values="0 0 0 0 0 0 0 0 0 0 0 0 0 0 0 0 0 0 127 0" result="hardAlpha"/>
<feOffset dy="4"/>
<feGaussianBlur stdDeviation="2"/>
<feComposite in2="hardAlpha" operator="out"/>
<feColorMatrix type="matrix" values="0 0 0 0 0 0 0 0 0 0 0 0 0 0 0 0 0 0 0.25 0"/>
<feBlend mode="normal" in2="BackgroundImageFix" result="effect1_dropShadow_247_7"/>
<feBlend mode="normal" in="SourceGraphic" in2="effect1_dropShadow_247_7" result="shape"/>
</filter>
<clipPath id="clip0_247_7">
<rect width="132.794" height="132.794" fill="white" transform="translate(4.8833 0.897522)"/>
</clipPath>
</defs>
</svg>
