<svg width="133" height="134" viewBox="0 0 133 134" fill="none" xmlns="http://www.w3.org/2000/svg">
<g clip-path="url(#clip0_247_4)">
<path d="M49.2738 82.6586C49.1746 82.5282 48.9874 82.5051 48.8598 82.6065C46.6166 84.4029 44.8555 85.7358 43.1511 86.9208C43.0178 87.0136 42.9809 87.2019 43.0745 87.3381C43.1312 87.425 43.2248 87.4685 43.3184 87.4685C43.3751 87.4685 43.4347 87.4511 43.4829 87.4163C45.1986 86.2225 46.9682 84.8839 49.2228 83.0788C49.3532 82.9802 49.3731 82.789 49.2738 82.6586Z" fill="#767676"/>
<path d="M40.2047 89.7685C40.2642 89.7685 40.3238 89.7511 40.3777 89.7106L41.1633 89.1312C41.2937 89.0327 41.3249 88.8473 41.2285 88.7111C41.1321 88.575 40.9477 88.546 40.8173 88.6445L40.0317 89.2239C39.9012 89.3224 39.87 89.5078 39.9664 89.6439C40.0232 89.725 40.1139 89.7685 40.2047 89.7685Z" fill="#767676"/>
<path d="M58.3433 82.7889L56.3808 85.9094C56.2929 86.0485 56.3326 86.2368 56.4687 86.3266C56.5169 86.3585 56.5736 86.3759 56.6275 86.3759C56.7239 86.3759 56.8204 86.3266 56.8743 86.2368L58.8368 83.1163C58.9247 82.9773 58.885 82.7889 58.7489 82.6991C58.6156 82.6093 58.4312 82.6498 58.3433 82.7889Z" fill="#767676"/>
<path d="M48.7753 97.3367C48.866 97.3367 48.954 97.2933 49.0135 97.2122L55.8028 87.7317C55.8992 87.5985 55.8709 87.4101 55.7376 87.3116C55.6071 87.2131 55.4228 87.2421 55.3264 87.3783L48.5371 96.8587C48.4406 96.9919 48.469 97.1803 48.6023 97.2788C48.6533 97.3194 48.7157 97.3367 48.7753 97.3367Z" fill="#767676"/>
<path d="M63.9114 82.8613C63.2166 85.5414 62.431 88.2447 61.671 90.8581C60.6983 94.2076 59.6915 97.67 58.8634 101.127C58.8237 101.289 58.9201 101.451 59.079 101.492C59.1016 101.497 59.1272 101.5 59.1499 101.5C59.2831 101.5 59.4023 101.408 59.4363 101.271C60.2587 97.8293 61.2626 94.3727 62.2353 91.032C62.9954 88.4127 63.7837 85.7036 64.4814 83.0177C64.5239 82.8584 64.4303 82.6932 64.2715 82.6498C64.1184 82.6063 63.9539 82.7019 63.9114 82.8613Z" fill="#767676"/>
<path d="M44.4666 94.2855C44.546 94.2855 44.6226 94.2536 44.6821 94.1899L50.5781 87.8187C50.6887 87.697 50.6859 87.5087 50.5667 87.3928C50.4476 87.2798 50.2633 87.2856 50.1499 87.4044L44.2539 93.7756C44.1433 93.8973 44.1461 94.0856 44.2652 94.2015C44.322 94.2595 44.3929 94.2855 44.4666 94.2855Z" fill="#767676"/>
<path d="M40.0517 82.5544L36.9776 84.1333C36.833 84.2087 36.7734 84.3883 36.8471 84.536C36.8982 84.6403 37.0031 84.7012 37.1109 84.7012C37.1563 84.7012 37.2016 84.6896 37.2442 84.6693L40.3183 83.0904C40.463 83.015 40.5225 82.8354 40.4488 82.6877C40.3722 82.5399 40.1964 82.4791 40.0517 82.5544Z" fill="#767676"/>
<path d="M51.8409 86.2077L54.6343 83.1192C54.7449 82.9975 54.7364 82.8063 54.6172 82.6933C54.4981 82.5803 54.311 82.589 54.2004 82.7107L51.407 85.7992C51.2964 85.9209 51.3049 86.1121 51.424 86.2251C51.4807 86.2773 51.5516 86.3062 51.6225 86.3062C51.7019 86.3033 51.7813 86.2715 51.8409 86.2077Z" fill="#767676"/>
<path d="M61.7227 83.0904C61.7908 82.9397 61.7256 82.76 61.5752 82.6905C61.4278 82.6239 61.2519 82.6876 61.1839 82.8412C60.2197 85.0113 59.1704 87.1873 58.1551 89.2908C56.6521 92.4083 55.098 95.6302 53.7849 98.9072C53.7225 99.0607 53.7963 99.2375 53.9466 99.2983C53.9834 99.3128 54.0203 99.3215 54.0572 99.3215C54.1734 99.3215 54.284 99.252 54.3294 99.1332C55.6339 95.8736 57.1852 92.6604 58.6826 89.5544C59.7035 87.448 60.7557 85.2663 61.7227 83.0904Z" fill="#767676"/>
<path d="M71.7312 102.54C71.751 102.691 71.8787 102.801 72.0233 102.801C72.0346 102.801 72.0488 102.801 72.063 102.798C72.2246 102.778 72.3381 102.624 72.3182 102.462C71.907 99.2431 71.6121 95.9516 71.3256 92.7702C71.0335 89.5048 70.7301 86.1293 70.299 82.8204C70.2763 82.6553 70.1317 82.5423 69.9672 82.5625C69.8056 82.5857 69.6921 82.7364 69.7148 82.9015C70.143 86.1988 70.4465 89.5686 70.7386 92.8282C71.0222 96.0154 71.32 99.3098 71.7312 102.54Z" fill="#767676"/>
<path d="M74.8332 91.0148C75.9505 94.4598 77.1048 98.0236 78.0577 101.582C78.0945 101.715 78.2108 101.805 78.3413 101.805C78.3668 101.805 78.3923 101.802 78.4178 101.793C78.5738 101.75 78.6674 101.584 78.6248 101.425C77.6691 97.8497 76.5121 94.2802 75.3919 90.8265C74.5439 88.2101 73.6676 85.504 72.8849 82.821C72.8395 82.6617 72.675 82.5718 72.519 82.6182C72.3631 82.6646 72.2751 82.8326 72.3205 82.992C73.1061 85.6836 73.9852 88.3927 74.8332 91.0148Z" fill="#767676"/>
<path d="M85.3909 98.9741C85.4447 99.0726 85.544 99.1277 85.6461 99.1277C85.6943 99.1277 85.7453 99.1161 85.7907 99.09C85.9325 99.0089 85.9836 98.8234 85.9013 98.6815C84.8691 96.8155 83.8368 94.909 82.8385 93.0633C81.0094 89.682 79.1178 86.1876 77.1525 82.8092C77.0703 82.6672 76.8887 82.6209 76.7498 82.7049C76.6108 82.7889 76.5626 82.9743 76.6477 83.1163C78.6102 86.4861 80.4989 89.9775 82.3252 93.3531C83.3263 95.1958 84.3586 97.1053 85.3909 98.9741Z" fill="#767676"/>
<path d="M89.6647 86.9554C89.7214 87.0047 89.7895 87.0278 89.8575 87.0278C89.9398 87.0278 90.022 86.9931 90.0816 86.9235C90.1865 86.796 90.1723 86.6077 90.0504 86.5005L85.561 82.5686C85.4391 82.4614 85.2519 82.4758 85.147 82.6004C85.0421 82.7279 85.0562 82.9163 85.1782 83.0235L89.6647 86.9554Z" fill="#767676"/>
<path d="M94.0563 91.1682C94.1131 91.2232 94.1868 91.2493 94.2577 91.2493C94.3371 91.2493 94.4137 91.2174 94.4732 91.1537C94.5838 91.032 94.5781 90.8408 94.459 90.7278L93.2793 89.5951C93.1602 89.4821 92.973 89.4879 92.8624 89.6096C92.7518 89.7312 92.7575 89.9224 92.8766 90.0354L94.0563 91.1682Z" fill="#767676"/>
<path d="M66.795 82.6094C66.6362 82.5978 66.4887 82.7137 66.4745 82.8817C66.069 87.225 65.6492 91.9334 65.1501 97.6935C65.1359 97.8586 65.255 98.0064 65.4167 98.0209C65.4252 98.0209 65.4337 98.0209 65.4422 98.0209C65.5925 98.0209 65.723 97.9021 65.7343 97.7456C66.2306 91.9855 66.6503 87.2801 67.0559 82.9368C67.0758 82.7745 66.9595 82.6268 66.795 82.6094Z" fill="#767676"/>
<path d="M65.4284 98.1397C65.2724 98.1281 65.1221 98.2469 65.1079 98.412L64.7336 102.509C64.7194 102.674 64.8385 102.822 65.0002 102.836C65.0087 102.836 65.02 102.839 65.0285 102.839C65.1788 102.839 65.3064 102.723 65.3206 102.567L65.695 98.47C65.7092 98.3019 65.5901 98.1542 65.4284 98.1397Z" fill="#767676"/>
<path d="M90.3355 95.7839C90.4008 95.7839 90.466 95.7607 90.5199 95.7173C90.6475 95.613 90.6673 95.4246 90.5653 95.2943C87.2047 90.9916 83.8781 86.773 80.6763 82.7543C80.5742 82.6239 80.387 82.6065 80.2623 82.7108C80.1375 82.8151 80.1176 83.0064 80.2197 83.1338C83.4187 87.1526 86.7452 91.3683 90.103 95.6709C90.1654 95.7463 90.2505 95.7839 90.3355 95.7839Z" fill="#767676"/>
<path d="M94.1549 84.6291C94.2541 84.6291 94.3477 84.5798 94.4044 84.4871C94.4895 84.3451 94.4498 84.1596 94.3108 84.0727L92.0619 82.6354C91.9258 82.5485 91.7415 82.5891 91.6564 82.7311C91.5713 82.8731 91.611 83.0585 91.75 83.1454L93.9989 84.5827C94.0471 84.6117 94.101 84.6291 94.1549 84.6291Z" fill="#767676"/>
<path d="M84.1371 55.2226C84.1938 55.3008 84.2817 55.3414 84.3696 55.3414C84.432 55.3414 84.4944 55.3211 84.5483 55.2805L93.1838 48.5208C93.3142 48.4194 93.3369 48.2311 93.2377 48.0978C93.1384 47.9674 92.9541 47.9413 92.8236 48.0428L84.1882 54.8024C84.0634 54.9009 84.0378 55.0922 84.1371 55.2226Z" fill="#767676"/>
<path d="M79.8524 49.127C79.7163 49.0372 79.5348 49.0778 79.4441 49.2168L75.8793 54.8869C75.7914 55.026 75.8311 55.2114 75.9672 55.3041C76.0154 55.336 76.0721 55.3505 76.126 55.3505C76.2224 55.3505 76.3189 55.3012 76.3728 55.2114L79.9375 49.5413C80.0283 49.4023 79.9886 49.2168 79.8524 49.127Z" fill="#767676"/>
<path d="M87.3083 38.2381L80.519 47.7186C80.4226 47.8518 80.4509 48.0402 80.5842 48.1387C80.6353 48.1792 80.6977 48.1966 80.7572 48.1966C80.848 48.1966 80.9387 48.1532 80.9954 48.072L87.7848 38.5916C87.8812 38.4583 87.8528 38.27 87.7195 38.1715C87.5891 38.0759 87.4047 38.1048 87.3083 38.2381Z" fill="#767676"/>
<path d="M77.4602 34.3295C77.4999 34.1673 77.4064 34.005 77.2504 33.9615C77.0944 33.921 76.9328 34.0166 76.8902 34.1759C76.4336 35.9724 75.9515 37.7862 75.4609 39.5942C75.6453 39.6724 75.8239 39.7652 75.9969 39.8724C76.496 38.0267 76.9895 36.1694 77.4602 34.3295Z" fill="#767676"/>
<path d="M71.2864 54.9854C71.2439 55.1447 71.3403 55.3099 71.4963 55.3533C71.5218 55.3591 71.5474 55.362 71.57 55.362C71.7005 55.362 71.8196 55.2722 71.8536 55.136C72.1146 54.1133 72.3868 53.0847 72.6591 52.0562H72.0493C71.7913 53.0355 71.536 54.0118 71.2864 54.9854Z" fill="#767676"/>
<path d="M89.665 44.2706L92.0671 41.6747C92.1777 41.553 92.1749 41.3647 92.0558 41.2488C91.9366 41.1359 91.7523 41.1416 91.6389 41.2604L89.2368 43.8563C89.1262 43.978 89.129 44.1663 89.2481 44.2822C89.3049 44.3372 89.3786 44.3633 89.4495 44.3633C89.5289 44.3662 89.6083 44.3343 89.665 44.2706Z" fill="#767676"/>
<path d="M82.3717 36.1518C82.2214 36.091 82.0484 36.1663 81.9888 36.3199C81.7166 37.0239 81.3961 37.699 81.0558 38.4147C80.8119 38.9304 80.5595 39.4636 80.327 40.0054C80.2618 40.159 80.3298 40.3357 80.4801 40.4023C80.5198 40.4197 80.5595 40.4284 80.5992 40.4284C80.7127 40.4284 80.8204 40.3618 80.8687 40.2488C81.0955 39.7185 81.3451 39.1912 81.5861 38.6813C81.9151 37.9859 82.2554 37.2702 82.5361 36.5459C82.5957 36.3894 82.522 36.2127 82.3717 36.1518Z" fill="#767676"/>
<path d="M91.186 55.1736C91.237 55.2779 91.3419 55.3387 91.4497 55.3387C91.4951 55.3387 91.5404 55.3271 91.583 55.3069L98.6814 51.6621C98.826 51.5867 98.8855 51.4071 98.8118 51.2594C98.7381 51.1116 98.5622 51.0507 98.4176 51.1261L91.3192 54.7708C91.1689 54.8462 91.1122 55.0258 91.186 55.1736Z" fill="#767676"/>
<path d="M79.4054 55.3014C79.4621 55.3565 79.533 55.3826 79.6039 55.3826C79.6833 55.3826 79.7627 55.3507 79.8194 55.287L87.2751 47.0496C87.3857 46.9279 87.3772 46.7367 87.2581 46.6237C87.139 46.5107 86.9518 46.5193 86.8412 46.641L79.3855 54.8784C79.2778 54.9972 79.2863 55.1884 79.4054 55.3014Z" fill="#767676"/>
<path d="M73.5921 54.9533C73.5269 55.1069 73.595 55.2836 73.7453 55.3503C73.785 55.3676 73.8247 55.3763 73.8644 55.3763C73.9778 55.3763 74.0856 55.3097 74.1338 55.1967C74.65 53.9913 75.1973 52.7975 75.7475 51.6153C75.4951 51.7486 75.2257 51.8558 74.9478 51.9311C74.4855 52.9279 74.0289 53.9362 73.5921 54.9533Z" fill="#767676"/>
<path d="M80.1713 41.7933C80.2308 41.6397 80.1571 41.463 80.0068 41.4021C79.8565 41.3413 79.6835 41.4166 79.6239 41.5702C79.1475 42.7957 78.62 44.0241 78.0698 45.2439V46.6693C78.8128 45.0585 79.536 43.4273 80.1713 41.7933Z" fill="#767676"/>
<path d="M64.5916 32.9156C64.5746 32.7505 64.43 32.6346 64.2655 32.649C64.1039 32.6664 63.9876 32.8171 64.0046 32.9822C64.2343 35.0683 64.447 37.2008 64.654 39.2869H65.2467C65.0397 37.1834 64.8242 35.0249 64.5916 32.9156Z" fill="#767676"/>
<path d="M66.4614 55.0868C66.4841 55.2375 66.6089 55.3418 66.7535 55.3418C66.7677 55.3418 66.7819 55.3418 66.7989 55.3389C66.9606 55.3157 67.0712 55.1621 67.0456 54.997C66.9038 54.0263 66.7705 53.044 66.6429 52.0588H66.0474C66.1778 53.073 66.314 54.0842 66.4614 55.0868Z" fill="#767676"/>
<path d="M64.0167 55.0026C64.0564 55.133 64.1726 55.2141 64.2974 55.2141C64.3258 55.2141 64.3541 55.2112 64.3853 55.1996C64.5413 55.1504 64.6292 54.9823 64.581 54.823L63.7473 52.0562H63.1318L64.0167 55.0026Z" fill="#767676"/>
<path d="M59.2859 38.5801C59.3143 38.5801 59.3426 38.5772 59.3738 38.5656C59.5298 38.5163 59.6177 38.3483 59.5695 38.1889L58.265 33.8602C58.2168 33.7009 58.0552 33.614 57.8964 33.6603C57.7404 33.7096 57.6525 33.8776 57.7007 34.037L59.0052 38.3657C59.0449 38.4961 59.1612 38.5801 59.2859 38.5801Z" fill="#767676"/>
<path d="M60.7711 55.1853C60.825 55.2838 60.9242 55.3388 61.0292 55.3388C61.0774 55.3388 61.1256 55.3272 61.1738 55.3012C61.3156 55.22 61.3666 55.0375 61.2872 54.8926C60.7683 53.9393 60.2521 52.9947 59.736 52.0588H59.061C59.6254 53.0904 60.1954 54.1306 60.7711 55.1853Z" fill="#767676"/>
<path d="M54.7191 43.0714C53.4287 40.7968 52.1639 38.5947 50.9274 36.4737C50.8451 36.3317 50.6637 36.2853 50.5247 36.3694C50.3857 36.4534 50.3375 36.6389 50.4226 36.7808C51.8009 39.1452 53.216 41.6168 54.6623 44.1754V43.7958C54.6623 43.5495 54.685 43.309 54.7191 43.0714Z" fill="#767676"/>
<path d="M46.2427 48.5298C46.1378 48.6573 46.152 48.8456 46.2739 48.9528L53.5083 55.2896C53.565 55.3389 53.6331 55.3621 53.7012 55.3621C53.7834 55.3621 53.8657 55.3273 53.9252 55.2578C54.0301 55.1303 54.016 54.9419 53.894 54.8347L46.6596 48.498C46.5348 48.3879 46.3476 48.4023 46.2427 48.5298Z" fill="#767676"/>
<path d="M40.8843 43.0333C40.7652 42.9203 40.578 42.9261 40.4674 43.0478C40.3568 43.1695 40.3625 43.3607 40.4816 43.4737L44.2363 47.0753C44.2931 47.1304 44.3668 47.1565 44.4377 47.1565C44.5171 47.1565 44.5937 47.1246 44.6532 47.0609C44.7638 46.9392 44.7582 46.7479 44.6391 46.6349L40.8843 43.0333Z" fill="#767676"/>
<path d="M35.3234 52.8353C35.1731 52.7686 35.0001 52.8382 34.9349 52.9917C34.8697 53.1453 34.9377 53.3221 35.0881 53.3887L39.5632 55.3735C39.6001 55.3909 39.6398 55.3996 39.6795 55.3996C39.7929 55.3996 39.9007 55.333 39.9489 55.2171C40.0141 55.0635 39.9461 54.8867 39.7958 54.8201L35.3234 52.8353Z" fill="#767676"/>
<path d="M68.9561 55.0375C68.9334 55.2026 69.044 55.3533 69.2056 55.3765C69.2198 55.3794 69.234 55.3794 69.2482 55.3794C69.3928 55.3794 69.5176 55.2722 69.5402 55.1215C69.682 54.1017 69.7926 53.0789 69.889 52.0562H69.2964C69.2028 53.0528 69.0922 54.0495 68.9561 55.0375Z" fill="#767676"/>
<path d="M71.3259 32.6175C71.1699 32.6059 71.0196 32.7247 71.0054 32.8898L70.631 36.9863C70.6168 37.1514 70.736 37.2992 70.8976 37.3137C70.9061 37.3137 70.9175 37.3137 70.926 37.3137C71.0763 37.3137 71.2039 37.1978 71.2181 37.0413L71.5924 32.9448C71.6066 32.7797 71.4875 32.632 71.3259 32.6175Z" fill="#767676"/>
<path d="M45.7998 39.2408L45.5134 38.8757C45.4113 38.7453 45.227 38.7251 45.0993 38.8294C44.9717 38.9337 44.9519 39.122 45.054 39.2524L45.3404 39.6175C45.8083 40.2114 46.2932 40.8257 46.7754 41.411C46.8349 41.4805 46.9171 41.5182 47.0022 41.5182C47.0703 41.5182 47.1355 41.495 47.1922 41.4487C47.317 41.3414 47.334 41.1531 47.2291 41.0256C46.7498 40.4432 46.2677 39.8319 45.7998 39.2408Z" fill="#767676"/>
<path d="M57.8343 55.2659C57.8939 55.3355 57.9761 55.3731 58.0612 55.3731C58.1293 55.3731 58.1945 55.35 58.2512 55.3036C58.376 55.1964 58.393 55.0081 58.2881 54.8806C55.9569 52.044 53.6059 49.0655 51.3315 46.1855L49.9787 44.4732C49.8766 44.3428 49.6923 44.3225 49.5647 44.4268C49.4371 44.5311 49.4172 44.7195 49.5193 44.8498L50.872 46.5622C53.1465 49.4422 55.4975 52.4236 57.8343 55.2659Z" fill="#767676"/>
<path d="M41.9176 50.9666C41.8325 51.1086 41.8722 51.294 42.0112 51.3809L48.2162 55.3412C48.2645 55.373 48.3183 55.3875 48.3722 55.3875C48.4715 55.3875 48.5651 55.3383 48.6218 55.2456C48.7069 55.1036 48.6672 54.9182 48.5282 54.8313L42.326 50.871C42.187 50.7841 42.0055 50.8247 41.9176 50.9666Z" fill="#767676"/>
<path d="M10.8521 63.9788C10.9088 63.7441 11.1697 63.3877 11.7142 63.1124C12.3296 62.7358 13.1946 62.5272 14.1446 62.5272C14.3771 62.5272 14.6125 62.5388 14.8422 62.5648C16.5949 62.7242 17.8512 63.5528 18.2681 64.2424L18.3163 64.312L22.2951 61.6376L22.2753 61.6087C20.9197 59.4733 18.3078 58.0245 15.2931 57.7319C14.9273 57.7029 14.5473 57.674 14.173 57.674C12.4544 57.674 10.8209 58.0767 9.44827 58.8358C7.52267 59.8905 6.30888 61.6174 6.1132 63.5702C5.74736 67.5107 8.90377 70.5067 13.9659 71.0282C15.4123 71.1731 16.4587 71.5179 17.094 72.0684C17.5534 72.5378 17.5534 72.9811 17.5279 73.1694C17.5052 73.4679 17.162 73.8503 16.6771 74.114C16.0333 74.4675 15.174 74.6645 14.2609 74.6645C14.0283 74.6645 13.7901 74.6529 13.5604 74.6269C11.8361 74.4704 10.5571 73.6446 10.0949 72.9319L10.0693 72.8884L6.08485 75.5222L6.12739 75.583C7.48298 77.7184 10.0949 79.1672 13.1123 79.4598C13.4611 79.4888 13.8355 79.5177 14.2297 79.5177C15.9142 79.5177 17.5818 79.115 18.9203 78.3877C20.8743 77.2867 22.0909 75.5627 22.2582 73.6504C22.6241 69.6114 19.5527 66.685 14.4339 66.1924C13.1435 66.0475 10.733 65.413 10.8464 64.0251L10.8492 64.0019L10.8521 63.9788ZM10.1658 66.6879C11.1187 67.4789 12.5338 67.9859 14.258 68.1569C17.4003 68.4698 20.6502 70.0199 20.3355 73.436C20.2135 74.6906 19.3939 75.8235 18.0242 76.6232C16.9749 77.2056 15.6278 77.5243 14.2325 77.5243C13.9092 77.5243 13.6029 77.5243 13.2966 77.4924C11.8361 77.336 10.4692 76.8637 9.45111 76.1596L9.1023 75.9191L9.87082 75.3947L10.0268 75.4961C10.9286 76.0843 12.1226 76.4696 13.3874 76.5884C13.6483 76.6174 13.9262 76.6464 14.2353 76.6464C15.4548 76.6464 16.6572 76.3595 17.6044 75.8467C18.7303 75.1861 19.3797 74.3197 19.4818 73.352C19.5641 72.3871 19.1784 71.3933 18.4297 70.6284C17.5222 69.7592 16.1212 69.2347 14.1503 69.0319C11.8702 68.8204 9.97293 67.9714 8.94064 66.7053C8.26002 65.8679 7.96791 64.877 8.07001 63.7615C8.16359 62.504 9.00587 61.3508 10.3785 60.6004C11.4278 59.989 12.7408 59.6645 14.1786 59.6645C14.5019 59.6645 14.8082 59.6645 15.1145 59.6964C16.5438 59.8528 17.9079 60.3251 18.9572 61.0292L19.3344 61.2813L18.5063 61.7912L18.3588 61.6956C17.4485 61.1161 16.2659 60.7163 15.0266 60.5714C14.7486 60.5424 14.4707 60.5424 14.1758 60.5424C12.8457 60.5424 11.683 60.8293 10.7925 61.3769C9.66947 61.965 9.00587 62.8372 8.92647 63.8368C8.81587 64.9407 9.24693 65.9259 10.1658 66.6879Z" fill="#767676"/>
<path d="M30.0236 79.5148H34.8986V62.6836H40.165V57.671H24.7827V62.6836H30.0208V79.5148H30.0236ZM26.7651 60.6322V59.7543H38.16V60.6322H32.8936V77.4634H32.0343V60.6322H26.7651Z" fill="#767676"/>
<path d="M46.0454 72.9665H54.4427L50.4185 61.6375L46.0454 72.9665ZM47.9313 71.6337L50.3844 65.352L52.588 71.6337H47.9313Z" fill="#767676"/>
<path d="M52.0433 57.671H48.867L40.4585 79.5148H45.6738L47.0776 75.8959H53.3818L54.641 79.5148H59.8308L52.0433 57.671ZM54.7658 73.8445H45.705L44.3012 77.4634H43.3681L50.2339 59.6934H50.6537L56.975 77.4634H56.0505L54.7658 73.8445Z" fill="#767676"/>
<path d="M69.755 79.5148V62.6836H75.0213V57.671H59.6392V62.6836H64.8771V79.5148H69.755ZM61.6186 60.6322V59.7543H73.0135V60.6322H67.7471V77.4634H66.8878V60.6322H61.6186Z" fill="#767676"/>
<path d="M77.811 79.5148H82.6577V57.671H77.811V79.5148ZM79.7905 59.6934H80.6782V77.4953H79.7905V59.6934Z" fill="#767676"/>
<path d="M106.745 68.5628C106.745 62.5392 101.936 57.6426 96.0255 57.6426C90.1296 57.6426 85.334 62.542 85.334 68.5628C85.334 74.6009 90.1296 79.5149 96.0255 79.5149C101.936 79.5149 106.745 74.6038 106.745 68.5628ZM87.3135 68.5628C87.3135 63.6546 91.2214 59.662 96.0255 59.662C100.844 59.662 104.766 63.6546 104.766 68.5628C104.766 73.4883 100.844 77.4925 96.0255 77.4925C91.2214 77.4925 87.3135 73.4883 87.3135 68.5628Z" fill="#767676"/>
<path d="M103.933 68.5625C103.933 64.1237 100.385 60.5106 96.0237 60.5106C91.679 60.5106 88.1426 64.1237 88.1426 68.5625C88.1426 73.0187 91.679 76.6433 96.0237 76.6433C100.385 76.6462 103.933 73.0187 103.933 68.5625ZM96.0237 75.3395C92.3823 75.3395 89.4188 72.3001 89.4188 68.5625C89.4188 64.8422 92.3823 61.8144 96.0237 61.8144C99.6821 61.8144 102.657 64.8422 102.657 68.5625C102.657 72.3001 99.6821 75.3395 96.0237 75.3395Z" fill="#767676"/>
<path d="M122.85 57.6426V69.5508L114.084 57.6426H110.031V79.5149H114.906V67.0706L124.109 79.5149H127.753V57.6426H122.85ZM125.72 77.4346H125.09L112.932 60.9688V77.4346H112.045V59.6939H113.086L124.863 75.6527V59.6939H125.723V77.4346H125.72Z" fill="#767676"/>
<path d="M32.1556 85.7127L31.96 85.2955C31.9202 85.2114 31.8267 85.1767 31.7444 85.2172L30.3548 85.901L30.0315 85.2143L31.4211 84.5305C31.5034 84.49 31.5346 84.3943 31.4977 84.3103L31.302 83.8931C31.2623 83.8091 31.1687 83.7743 31.0865 83.8148L27.2919 85.6837C27.2096 85.7243 27.1756 85.8199 27.2153 85.9039L27.411 86.3211C27.4507 86.4052 27.5443 86.4399 27.6265 86.3994L29.3707 85.5417L29.694 86.2284L27.9498 87.0861C27.8676 87.1266 27.8364 87.2223 27.8733 87.3063L28.0689 87.7235C28.1058 87.8017 28.2022 87.8423 28.2845 87.8017L32.0791 85.9329C32.1613 85.8923 32.1897 85.788 32.1556 85.7127Z" fill="#767676"/>
<path d="M32.9089 87.1205L32.6877 86.7148C32.6423 86.6337 32.5402 86.6076 32.4608 86.654L28.7881 88.746C28.7087 88.7924 28.6804 88.8909 28.7258 88.972L28.947 89.3777C28.9923 89.4588 29.0888 89.4878 29.1682 89.4414L32.8408 87.3494C32.9202 87.303 32.9514 87.2016 32.9089 87.1205Z" fill="#767676"/>
<path d="M33.0426 90.9915C33.1191 90.9423 33.1418 90.8409 33.0908 90.7627L32.6087 89.9919C32.5605 89.9137 32.4612 89.8905 32.3846 89.9427L32.0472 90.1629C31.9706 90.2121 31.9422 90.3164 31.9933 90.3947L32.1436 90.6352L31.1482 91.2842C31.0716 91.3334 30.9695 91.3074 30.9213 91.2291L30.6604 90.8119C30.615 90.7395 30.632 90.6323 30.7086 90.583L33.0029 89.0879C33.0738 89.0416 33.1815 89.0647 33.2269 89.1372L33.4878 89.5544C33.536 89.6326 33.5133 89.7427 33.4424 89.7891L33.2241 89.9311C33.1475 89.9803 33.1248 90.0818 33.1758 90.16L33.4197 90.5511C33.468 90.6294 33.5672 90.6525 33.6438 90.6004L33.9217 90.4179C34.3102 90.1658 34.418 89.6384 34.1741 89.2473L33.7913 88.633C33.5445 88.2361 33.0341 88.1231 32.6455 88.3752L30.2208 89.9572C29.838 90.2063 29.7245 90.7366 29.9684 91.1277L30.3513 91.742C30.5952 92.1331 31.1141 92.249 31.497 91.9998L33.0426 90.9915Z" fill="#767676"/>
<path d="M36.3015 92.284L36.0292 91.9131C35.9753 91.8378 35.8761 91.8262 35.8023 91.8813L34.5715 92.8315L34.1235 92.2231L35.3543 91.2729C35.4252 91.2178 35.4393 91.1164 35.3855 91.0411L35.1132 90.6702C35.0593 90.5949 34.9601 90.5833 34.8863 90.6384L31.5229 93.2314C31.452 93.2864 31.4378 93.3878 31.4917 93.4631L31.764 93.834C31.8178 93.9093 31.9171 93.9238 31.9908 93.8658L33.5364 92.6751L33.9845 93.2835L32.4389 94.4772C32.3652 94.5322 32.3538 94.6365 32.4077 94.7089L32.68 95.0798C32.731 95.1493 32.8331 95.1696 32.9068 95.1116L36.2703 92.5187C36.344 92.4607 36.3525 92.3535 36.3015 92.284Z" fill="#767676"/>
<path d="M37.4101 98.3309L39.0124 96.7402C39.3754 96.3809 39.3839 95.7898 39.0322 95.4189L38.6522 95.0191C38.3006 94.6482 37.722 94.6395 37.359 94.9988L35.4107 96.9314C35.0534 97.2878 35.0449 97.876 35.3965 98.2469L36.2899 99.1857C36.3523 99.2523 36.4572 99.2581 36.5224 99.1944L36.8259 98.8959C36.8911 98.8322 36.8883 98.725 36.8344 98.667L36.6529 98.4758C36.9053 98.5801 37.2059 98.5337 37.4101 98.3309ZM36.4061 98.2179L35.9552 97.7427C35.8928 97.6761 35.8928 97.5631 35.9524 97.5051L37.9007 95.5725C37.9659 95.5087 38.0765 95.5087 38.1389 95.5754L38.4735 95.926C38.5359 95.9926 38.5359 96.1056 38.4707 96.1694L36.4061 98.2179Z" fill="#767676"/>
<path d="M41.8739 98.1104L41.5336 97.8032C41.4655 97.7424 41.3606 97.754 41.3011 97.8235L39.0181 100.481C38.9586 100.55 38.8537 100.553 38.7856 100.492L38.4254 100.168C38.3574 100.107 38.346 99.9995 38.4056 99.93L40.6885 97.2759C40.7481 97.2063 40.7452 97.0991 40.6772 97.0383L40.3368 96.7311C40.2688 96.6703 40.1639 96.6819 40.1043 96.7514L37.7703 99.4664C37.4697 99.8141 37.5038 100.356 37.8469 100.663L38.3829 101.144C38.7232 101.451 39.2535 101.414 39.5541 101.066L41.8881 98.3509C41.942 98.2784 41.942 98.1712 41.8739 98.1104Z" fill="#767676"/>
<path d="M43.8421 99.6691L43.0651 99.0722C42.997 99.0201 42.9063 99.0259 42.8439 99.0867L40.249 101.666C40.2206 101.695 40.2093 101.709 40.1923 101.729L39.8491 102.196C39.7953 102.271 39.8094 102.373 39.8803 102.428L40.2433 102.706C40.3171 102.761 40.4163 102.746 40.4702 102.674L40.8247 102.193L41.5195 102.726L41.165 103.207C41.1111 103.282 41.1253 103.384 41.1934 103.436L41.562 103.717C41.6358 103.772 41.735 103.758 41.7889 103.685L42.1321 103.219C42.1491 103.198 42.1604 103.181 42.1775 103.146L43.8847 99.8864C43.9187 99.8198 43.9102 99.7213 43.8421 99.6691ZM41.891 102.071L41.3408 101.648L42.9885 99.9907L41.891 102.071Z" fill="#767676"/>
<path d="M44.293 104.664L43.533 104.157L45.5153 101.043C45.5635 100.964 45.5437 100.863 45.4671 100.814L45.0871 100.562C45.0105 100.512 44.9113 100.533 44.863 100.611L42.566 104.221C42.5149 104.299 42.5376 104.401 42.6142 104.45L43.8903 105.299C43.9669 105.348 44.0661 105.328 44.1144 105.249L44.3412 104.893C44.3895 104.815 44.3696 104.713 44.293 104.664Z" fill="#767676"/>
<path d="M47.5954 102.152L47.2041 101.921C47.1247 101.874 47.0254 101.906 46.98 101.987L44.873 105.704C44.8276 105.786 44.8531 105.884 44.9325 105.93L45.3239 106.162C45.4033 106.209 45.4997 106.182 45.5451 106.101L47.6521 102.384C47.6947 102.303 47.672 102.199 47.5954 102.152Z" fill="#767676"/>
<path d="M50.0007 104.129L50.1935 103.74C50.2332 103.656 50.1963 103.558 50.1226 103.517L48.4409 102.645C48.3615 102.602 48.2651 102.637 48.2225 102.718L48.0297 103.106C47.99 103.19 48.0212 103.286 48.1006 103.329L48.5912 103.584L46.952 106.884C46.9095 106.965 46.9492 107.067 47.0229 107.107L47.4285 107.316C47.5107 107.356 47.6043 107.324 47.6468 107.243L49.286 103.943L49.7823 104.201C49.8589 104.239 49.961 104.21 50.0007 104.129Z" fill="#767676"/>
<path d="M52.6797 105.542L52.9293 104.937C52.9633 104.853 52.9265 104.757 52.8414 104.719L52.4245 104.54C52.3394 104.505 52.2487 104.543 52.2118 104.63L52.0218 105.093C52.0019 105.142 51.9707 105.186 51.9339 105.221L51.1653 105.91L51.1086 104.867C51.1029 104.815 51.1114 104.76 51.1313 104.711L51.3213 104.247C51.3553 104.16 51.3185 104.067 51.2334 104.03L50.8136 103.85C50.7286 103.815 50.6378 103.853 50.6009 103.937L50.3514 104.543C50.323 104.609 50.3145 104.685 50.3117 104.757L50.4223 106.678L49.7728 108.254C49.7388 108.341 49.7757 108.434 49.8608 108.472L50.2777 108.651C50.3627 108.686 50.4535 108.648 50.4904 108.561L51.137 106.985L52.5521 105.719C52.6117 105.67 52.6514 105.609 52.6797 105.542Z" fill="#767676"/>
<path d="M52.8637 108.834L52.4553 108.686C52.3703 108.654 52.2823 108.695 52.2511 108.782L52.1037 109.205C52.0725 109.292 52.1179 109.379 52.2058 109.411L52.322 109.454L52.1973 109.576C52.1689 109.602 52.1434 109.634 52.1292 109.671L52.0895 109.79C52.0725 109.839 52.1008 109.9 52.1434 109.915L52.3504 109.99C52.393 110.005 52.4497 109.978 52.4695 109.926L52.4809 109.894C52.4922 109.863 52.5206 109.839 52.5319 109.828L52.7191 109.642C52.7418 109.616 52.7588 109.587 52.7701 109.555L52.9516 109.031C52.9772 108.944 52.9375 108.86 52.8637 108.834Z" fill="#767676"/>
<path d="M57.3904 110.181L56.5113 109.958L57.3904 106.354C57.4131 106.264 57.3592 106.174 57.2713 106.154L56.8317 106.041C56.7438 106.018 56.6587 106.073 56.636 106.163L55.618 110.341C55.5953 110.43 55.6492 110.517 55.7371 110.541L57.2145 110.917C57.3025 110.94 57.3875 110.885 57.4102 110.796L57.5095 110.384C57.5293 110.291 57.4783 110.204 57.3904 110.181Z" fill="#767676"/>
<path d="M60.5817 106.864L59.8812 106.739C59.4275 106.658 58.9992 106.974 58.9198 107.434L58.4292 110.323C58.3498 110.787 58.6504 111.221 59.1042 111.303L59.8046 111.427C60.2527 111.505 60.6838 111.201 60.7632 110.738L61.2538 107.849C61.3332 107.385 61.0269 106.942 60.5817 106.864ZM60.0117 110.517C59.9975 110.61 59.9067 110.674 59.816 110.656L59.3424 110.572C59.2516 110.558 59.1892 110.465 59.2063 110.373L59.6714 107.634C59.6884 107.542 59.7763 107.492 59.8642 107.507L60.3378 107.591C60.4285 107.605 60.4938 107.687 60.4767 107.776L60.0117 110.517Z" fill="#767676"/>
<path d="M65.288 107.385L64.7208 107.336C64.6612 107.33 64.613 107.374 64.6102 107.431L64.5648 108.005C64.562 108.052 64.5591 108.078 64.5478 108.13L64.2245 109.79L64.0373 107.371C64.0288 107.316 63.9862 107.272 63.9352 107.269L63.4446 107.229C63.3935 107.223 63.3453 107.261 63.334 107.313L62.7611 109.668L62.7016 107.976C62.6987 107.924 62.7016 107.898 62.7044 107.852L62.7498 107.278C62.7554 107.22 62.7129 107.168 62.6562 107.165L62.089 107.116C62.0323 107.11 61.9812 107.153 61.9784 107.211L61.9273 107.846C61.9245 107.878 61.9217 107.918 61.9245 107.979L62.1372 111.624C62.1429 111.711 62.2024 111.775 62.2875 111.784L62.7923 111.827C62.8689 111.833 62.9455 111.781 62.9596 111.694L63.5552 108.987L63.7083 111.758C63.714 111.845 63.7735 111.908 63.8586 111.917L64.3549 111.96C64.44 111.966 64.5081 111.914 64.5279 111.83L65.322 108.269C65.3333 108.211 65.3362 108.17 65.339 108.138L65.39 107.504C65.3872 107.44 65.3447 107.391 65.288 107.385Z" fill="#767676"/>
<path d="M69.0112 107.33L67.8966 107.385C67.8059 107.391 67.7378 107.466 67.7435 107.559L67.9505 111.859C67.9562 111.951 68.0299 112.021 68.1207 112.015L68.5744 111.992C68.6652 111.986 68.7333 111.911 68.7276 111.818L68.634 109.894L69.1331 109.868C69.6975 109.839 70.1399 109.341 70.1115 108.759L70.0917 108.335C70.0633 107.753 69.5727 107.301 69.0112 107.33ZM69.0934 109.069L68.5943 109.095L68.5461 108.115L69.0452 108.089C69.187 108.083 69.3033 108.196 69.3089 108.341L69.3316 108.796C69.3401 108.938 69.2352 109.06 69.0934 109.069Z" fill="#767676"/>
<path d="M73.3365 110.488L72.6219 109.457C72.9764 109.251 73.2004 108.837 73.1437 108.391L73.0926 107.976C73.0217 107.397 72.5084 106.983 71.9412 107.055L70.8296 107.197C70.7445 107.209 70.6764 107.29 70.6878 107.382L71.2067 111.653C71.2181 111.745 71.3032 111.806 71.3882 111.798L71.8391 111.74C71.9299 111.728 71.9923 111.647 71.9809 111.554L71.7371 109.564L72.585 110.778C72.6275 110.853 72.6474 110.923 72.6559 110.995L72.7126 111.456C72.724 111.548 72.809 111.609 72.8998 111.598L73.3507 111.54C73.4414 111.528 73.4953 111.447 73.484 111.357L73.4046 110.7C73.3989 110.627 73.3762 110.549 73.3365 110.488ZM72.1568 108.79L71.6548 108.854L71.5357 107.875L72.0377 107.811C72.1738 107.794 72.3014 107.889 72.3184 108.034L72.3723 108.489C72.3921 108.64 72.2929 108.773 72.1568 108.79Z" fill="#767676"/>
<path d="M74.2332 106.684L73.7879 106.768C73.7 106.786 73.6432 106.875 73.6602 106.968L74.4204 111.195C74.4374 111.288 74.5196 111.346 74.6104 111.329L75.0557 111.245C75.1436 111.227 75.2031 111.143 75.1861 111.054L74.426 106.826C74.409 106.733 74.3239 106.667 74.2332 106.684Z" fill="#767676"/>
<path d="M78.0366 108.53C78.0139 108.44 77.926 108.379 77.8381 108.402L77.3985 108.512C77.3106 108.536 77.2595 108.628 77.2822 108.718L77.5233 109.729C77.546 109.819 77.4864 109.909 77.4042 109.929L76.9305 110.048C76.8426 110.071 76.749 110.019 76.7292 109.929L76.0826 107.229C76.0599 107.139 76.1195 107.049 76.2074 107.026L76.681 106.907C76.7632 106.887 76.854 106.939 76.8767 107.029L77.0298 107.666C77.0525 107.756 77.1404 107.817 77.2283 107.794L77.6679 107.684C77.7558 107.661 77.8069 107.568 77.7842 107.478L77.614 106.771C77.5034 106.313 77.0582 106.038 76.6101 106.148L75.9181 106.322C75.47 106.435 75.2006 106.89 75.3084 107.348L75.9918 110.204C76.0996 110.654 76.5534 110.938 76.9958 110.827L77.6877 110.654C78.1358 110.541 78.4053 110.08 78.2975 109.628L78.0366 108.53Z" fill="#767676"/>
<path d="M81.0621 109.013C81.0337 108.926 80.9458 108.877 80.8579 108.906L80.0014 109.187L79.5845 107.857L80.1262 107.678C80.2113 107.649 80.2595 107.559 80.2312 107.469L80.1092 107.078C80.0808 106.991 79.9929 106.942 79.905 106.971L79.3633 107.147L79.0684 106.209L79.9249 105.928C80.0099 105.899 80.0582 105.809 80.0298 105.719L79.9022 105.316C79.8738 105.229 79.7859 105.18 79.698 105.209L78.2488 105.684C78.1637 105.713 78.1155 105.803 78.1439 105.893L79.4314 109.99C79.4598 110.077 79.5477 110.126 79.6356 110.097L81.0848 109.622C81.1699 109.593 81.2181 109.503 81.1897 109.413L81.0621 109.013Z" fill="#767676"/>
<path d="M82.8258 109.019C82.8258 108.984 82.8201 108.949 82.8088 108.92L82.6159 108.402C82.5847 108.315 82.4997 108.277 82.4287 108.306L82.0232 108.463C81.9381 108.495 81.8955 108.584 81.9267 108.671L82.0827 109.091C82.1139 109.178 82.2047 109.213 82.2898 109.181L82.4061 109.138L82.389 109.314C82.3834 109.352 82.3834 109.393 82.3976 109.43L82.4401 109.549C82.4571 109.598 82.5167 109.624 82.5592 109.61L82.7663 109.529C82.8088 109.511 82.8343 109.453 82.8173 109.404L82.806 109.372C82.7946 109.341 82.8003 109.303 82.8031 109.288L82.8258 109.019Z" fill="#767676"/>
<path d="M86.9239 105.027C86.802 104.777 86.5978 104.601 86.3567 104.511C86.3879 104.308 86.3539 104.105 86.2575 103.911L86.0674 103.526C85.8122 103.004 85.1911 102.79 84.6806 103.053L83.6739 103.572C83.5916 103.613 83.5604 103.711 83.603 103.795L85.4974 107.64C85.5371 107.724 85.6335 107.756 85.7158 107.712L86.8161 107.147C87.3266 106.887 87.528 106.249 87.2699 105.728L86.9239 105.027ZM84.5587 103.966L85.0153 103.731C85.1372 103.668 85.2932 103.723 85.3584 103.85L85.5598 104.259C85.6222 104.383 85.5683 104.543 85.4464 104.606L84.9898 104.841L84.5587 103.966ZM86.4758 106.458L85.9256 106.742L85.3187 105.51L85.8689 105.226C85.9909 105.163 86.1468 105.218 86.2121 105.348L86.5808 106.099C86.6488 106.235 86.5978 106.394 86.4758 106.458Z" fill="#767676"/>
<path d="M89.9218 104.673C89.8764 104.595 89.7772 104.569 89.7006 104.615L88.9292 105.088L88.2259 103.888L88.7165 103.59C88.7931 103.543 88.8186 103.442 88.7733 103.364L88.5662 103.01C88.518 102.932 88.4216 102.906 88.345 102.952L87.8544 103.251L87.3582 102.405L88.1324 101.932C88.2089 101.886 88.2344 101.785 88.1891 101.706L87.9764 101.344C87.931 101.266 87.8317 101.24 87.7552 101.286L86.4479 102.086C86.3713 102.132 86.3458 102.234 86.3911 102.312L88.5549 106.003C88.6003 106.082 88.6995 106.108 88.7761 106.061L90.0834 105.262C90.16 105.215 90.1855 105.114 90.1401 105.036L89.9218 104.673Z" fill="#767676"/>
<path d="M91.9201 101.726C91.5883 101.242 90.9474 101.129 90.4766 101.466L90.2327 101.639C90.1136 101.718 89.9548 101.694 89.8725 101.576L89.6457 101.245C89.5634 101.126 89.5974 100.964 89.7137 100.883L89.9576 100.709C90.0739 100.625 90.2327 100.648 90.315 100.77L90.3944 100.883C90.4454 100.958 90.5447 100.976 90.6212 100.924L90.9928 100.657C91.0665 100.605 91.0835 100.503 91.0325 100.425L90.9701 100.333C90.6439 99.8544 89.9973 99.7356 89.5265 100.072L89.2826 100.246C88.8147 100.579 88.7012 101.245 89.0274 101.72L89.2401 102.031C89.5662 102.509 90.21 102.613 90.6808 102.286L90.9247 102.112C91.041 102.028 91.1998 102.054 91.282 102.173L91.7642 102.877C91.8464 102.995 91.8181 103.161 91.7018 103.245L91.4579 103.418C91.3416 103.503 91.1799 103.474 91.0977 103.355L90.7744 102.882C90.7233 102.807 90.6241 102.79 90.5475 102.842L90.176 103.108C90.1023 103.161 90.0852 103.262 90.1363 103.34L90.4426 103.784C90.7687 104.262 91.421 104.378 91.8861 104.044L92.13 103.871C92.5979 103.537 92.7114 102.871 92.3853 102.396L91.9201 101.726Z" fill="#767676"/>
<path d="M92.4243 98.7654L92.8553 98.4061C92.9205 98.3511 92.9347 98.2438 92.878 98.1743L92.6086 97.8353C92.5519 97.7629 92.4469 97.7571 92.3817 97.8121L90.9212 99.0291C90.8503 99.087 90.8418 99.1913 90.8986 99.2609L91.168 99.5999C91.2247 99.6723 91.3268 99.681 91.3948 99.623L91.8202 99.2667L94.1088 102.132C94.1655 102.205 94.2704 102.211 94.3356 102.155L94.6873 101.863C94.7582 101.805 94.7667 101.701 94.71 101.631L92.4243 98.7654Z" fill="#767676"/>
<path d="M97.7179 96.2356C97.6527 96.1719 97.5477 96.169 97.4853 96.2356L97.1706 96.5688C97.1082 96.6355 97.1139 96.7427 97.1791 96.8064L97.9107 97.5308C97.9759 97.5945 97.9731 97.7047 97.9136 97.7655L97.5761 98.1219C97.5137 98.1885 97.4088 98.1943 97.3435 98.1306L95.3868 96.1951C95.3216 96.1313 95.3244 96.0212 95.3868 95.9575L95.7243 95.6011C95.7838 95.5402 95.8888 95.5316 95.954 95.5982L96.4162 96.0531C96.4815 96.1168 96.5864 96.1197 96.6488 96.0531L96.9635 95.7199C97.0259 95.6532 97.0203 95.546 96.955 95.4823L96.4417 94.9752C96.1099 94.6478 95.5881 94.6565 95.2677 94.9955L94.7714 95.52C94.451 95.859 94.4595 96.3921 94.7913 96.7195L96.8586 98.7651C97.1847 99.0867 97.715 99.0781 98.0327 98.7448L98.5289 98.2204C98.8494 97.8814 98.8352 97.3454 98.5091 97.0208L97.7179 96.2356Z" fill="#767676"/>
<path d="M97.8923 92.1565C97.8214 92.0985 97.7194 92.113 97.6655 92.1797L97.3762 92.5361C97.3195 92.6085 97.328 92.7099 97.3989 92.7708L98.5872 93.7762L98.1107 94.3615L96.9224 93.356C96.8515 93.2981 96.7523 93.3068 96.6927 93.3792L96.4034 93.7356C96.3467 93.8081 96.3552 93.9095 96.4261 93.9674L99.6705 96.7113C99.7414 96.7693 99.8407 96.7606 99.9002 96.6881L100.19 96.3317C100.246 96.2593 100.238 96.1579 100.167 96.0999L98.6751 94.8367L99.1515 94.2514L100.643 95.5147C100.714 95.5726 100.813 95.5639 100.87 95.4915L101.159 95.1351C101.213 95.0684 101.208 94.9612 101.137 94.9033L97.8923 92.1565Z" fill="#767676"/>
<path d="M102.621 91.6232L100.256 89.9601C99.8756 89.6936 99.3538 89.7921 99.0957 90.1745L98.6902 90.7743C98.4293 91.1625 98.5286 91.6899 98.9086 91.9564L101.274 93.6195C101.654 93.8861 102.167 93.7905 102.428 93.4022L102.833 92.8025C103.092 92.42 103.001 91.8898 102.621 91.6232ZM102.153 92.4664L101.881 92.8691C101.83 92.9444 101.722 92.9647 101.645 92.9126L99.402 91.3364C99.3283 91.2842 99.3169 91.1799 99.368 91.1046L99.6402 90.7019C99.6913 90.6265 99.7905 90.5975 99.8643 90.6497L102.107 92.2259C102.187 92.2809 102.207 92.391 102.153 92.4664Z" fill="#767676"/>
<path d="M104.142 90.4467L100.565 88.1836C100.489 88.1344 100.384 88.1546 100.336 88.2329L100.097 88.627C100.049 88.7052 100.078 88.8095 100.154 88.8588L103.73 91.1219C103.807 91.1711 103.906 91.1479 103.954 91.0668L104.193 90.6727C104.244 90.5945 104.221 90.4931 104.142 90.4467Z" fill="#767676"/>
<path d="M105.202 87.1237L104.232 86.5877C104.153 86.5442 104.051 86.5703 104.008 86.6514L103.793 87.06C103.75 87.1411 103.784 87.2425 103.864 87.286L104.76 87.7815C104.839 87.8249 104.865 87.9292 104.825 88.0046L104.595 88.4421C104.553 88.5232 104.454 88.558 104.371 88.5146L101.978 87.1904C101.898 87.1469 101.873 87.0426 101.915 86.9615L102.148 86.5239C102.188 86.4486 102.287 86.4138 102.366 86.4573L102.931 86.7702C103.01 86.8137 103.112 86.7876 103.155 86.7065L103.37 86.2979C103.413 86.2168 103.379 86.1154 103.299 86.069L102.673 85.7213C102.267 85.4982 101.768 85.6489 101.55 86.0632L101.209 86.7036C100.991 87.1179 101.138 87.6279 101.544 87.851L104.076 89.2505C104.476 89.4707 104.984 89.3172 105.199 88.9086L105.54 88.2682C105.758 87.8568 105.602 87.3439 105.202 87.1237Z" fill="#767676"/>
<path d="M106.989 84.7999L106.611 84.6261C106.529 84.5884 106.436 84.6232 106.396 84.7072L106.024 85.5446L104.779 84.968L105.015 84.4377C105.052 84.3537 105.018 84.2581 104.935 84.2175L104.57 84.0494C104.487 84.0118 104.394 84.0466 104.354 84.1306L104.119 84.6608L103.239 84.2552L103.611 83.4178C103.648 83.3338 103.614 83.2381 103.529 83.1976L103.152 83.0237C103.069 82.9861 102.976 83.0208 102.936 83.1049L102.309 84.5217C102.272 84.6058 102.306 84.7014 102.389 84.742L106.226 86.5152C106.308 86.5529 106.402 86.5181 106.441 86.4312L107.068 85.0143C107.108 84.9332 107.071 84.8376 106.989 84.7999Z" fill="#767676"/>
<path d="M27.4048 48.2138L31.1483 50.1839C31.2277 50.2273 31.3241 50.1954 31.3667 50.1114L31.5737 49.7C31.6162 49.616 31.585 49.5204 31.5028 49.477L29.8267 48.5962L30.0536 48.1443C30.3117 47.6315 30.1103 46.9912 29.6027 46.7247L29.234 46.5305C28.7264 46.264 28.0996 46.4697 27.8416 46.9825L27.3311 47.9936C27.2914 48.0747 27.3226 48.1732 27.4048 48.2138ZM28.5052 47.3273C28.5704 47.1969 28.7235 47.1534 28.8512 47.2201L29.2482 47.4287C29.3701 47.4924 29.4212 47.6459 29.3588 47.7763L29.1291 48.2283L28.2755 47.7792L28.5052 47.3273Z" fill="#767676"/>
<path d="M29.1178 44.9485L32.6883 47.2288C32.7649 47.278 32.867 47.2491 32.9124 47.1766L33.1534 46.7826C33.2016 46.7043 33.179 46.6029 33.1024 46.5537L31.4377 45.4903L32.8925 45.583C32.9747 45.5975 33.0428 45.6236 33.1024 45.6641L33.4881 45.9104C33.5646 45.9597 33.6667 45.9307 33.7149 45.8525L33.956 45.4584C34.0042 45.3802 33.9787 45.2846 33.9021 45.2353L33.3519 44.8847C33.2924 44.847 33.2186 44.8152 33.1477 44.8094L31.9141 44.7253C31.9822 44.3168 31.8063 43.8764 31.4348 43.6388L31.0888 43.4186C30.6039 43.1085 29.9658 43.2563 29.6623 43.7489L29.0696 44.7195C29.0214 44.792 29.0412 44.8992 29.1178 44.9485ZM30.2919 44.1516C30.3628 44.0328 30.5188 43.9923 30.6407 44.0705L31.0208 44.311C31.1455 44.3921 31.1852 44.5573 31.1115 44.6732L30.8449 45.1107L30.0253 44.5891L30.2919 44.1516Z" fill="#767676"/>
<path d="M34.475 44.404C34.5487 44.4591 34.648 44.4446 34.7018 44.3693L35.6037 43.1176C35.6576 43.0422 35.6434 42.9408 35.5697 42.8858L35.235 42.6337C35.1613 42.5786 35.062 42.5931 35.0081 42.6685L34.475 43.4102L33.3746 42.5815L33.7121 42.1121C33.766 42.0368 33.7518 41.9354 33.6781 41.8803L33.3548 41.6369C33.281 41.5819 33.1818 41.5964 33.1279 41.6717L32.7904 42.1411L32.0134 41.5558L32.5465 40.8141C32.6004 40.7387 32.5862 40.6373 32.5125 40.5823L32.1779 40.3302C32.1041 40.2751 32.0049 40.2896 31.951 40.365L31.0491 41.6167C30.9953 41.692 31.0094 41.7934 31.0832 41.8485L34.475 44.404Z" fill="#767676"/>
<path d="M35.5762 41.6599C35.6102 41.7004 35.6443 41.7294 35.6585 41.7439L36.1065 42.1582C36.1746 42.2191 36.2739 42.2133 36.3363 42.1437L36.6369 41.7961C36.6964 41.7265 36.6908 41.6251 36.6227 41.5614L36.2455 41.2195C36.2171 41.1934 36.1916 41.1702 36.1689 41.1412L34.7878 39.5679L36.4298 40.6718C36.4979 40.7153 36.5887 40.7008 36.6397 40.64L36.9658 40.2633C37.0169 40.2053 37.0169 40.1155 36.9658 40.0518L35.6953 38.5219L37.3941 39.7302C37.4281 39.7504 37.4508 39.7736 37.482 39.7997L37.8592 40.1416C37.9272 40.2024 38.0293 40.1966 38.0889 40.1271L38.3895 39.7794C38.4462 39.7157 38.4434 39.6056 38.3753 39.5447L37.9187 39.142C37.9046 39.1275 37.8705 39.0985 37.828 39.0666L34.8502 37.079C34.7821 37.0355 34.6971 37.0471 34.6403 37.1108L34.3142 37.4875C34.2632 37.5484 34.2632 37.6353 34.3142 37.699L35.7918 39.5389L33.8293 38.2582C33.7612 38.2148 33.6761 38.2264 33.6194 38.2901L33.2961 38.661C33.2394 38.7247 33.2422 38.8145 33.2904 38.8783L35.5762 41.6599Z" fill="#767676"/>
<path d="M39.0872 38.8553C39.1496 38.9219 39.2517 38.9248 39.317 38.8582L39.6431 38.5365C39.7083 38.4728 39.7111 38.3685 39.6459 38.3019L36.7193 35.2161C36.6569 35.1495 36.552 35.1437 36.4868 35.2074L36.1607 35.529C36.0954 35.5928 36.0983 35.7 36.1607 35.7666L39.0872 38.8553Z" fill="#767676"/>
<path d="M40.0302 36.9892C40.3223 37.3426 40.8527 37.389 41.1987 37.0906L41.7432 36.6212C42.0892 36.3228 42.1346 35.781 41.8424 35.4275L39.5594 32.6664C39.4999 32.5968 39.3949 32.5823 39.3269 32.6403L38.9809 32.9387C38.9128 32.9995 38.9071 33.1067 38.9667 33.1763L41.2015 35.8766C41.2611 35.9461 41.2469 36.0533 41.176 36.1142L40.8101 36.43C40.7421 36.4908 40.6343 36.485 40.5776 36.4155L38.3428 33.7152C38.2832 33.6456 38.1783 33.6312 38.1102 33.6891L37.7642 33.9875C37.6962 34.0484 37.6905 34.1556 37.75 34.2251L40.0302 36.9892Z" fill="#767676"/>
<path d="M42.6126 34.7264C42.6381 34.7728 42.6608 34.8104 42.675 34.8278L43.0125 35.3378C43.0635 35.4131 43.1628 35.4334 43.2394 35.3812L43.6109 35.1175C43.6846 35.0654 43.7045 34.964 43.6534 34.8887L43.367 34.4627C43.3443 34.4309 43.3273 34.4019 43.3103 34.3671L42.3404 32.5012L43.6733 33.9731C43.7271 34.031 43.8207 34.0397 43.8831 33.9934L44.2887 33.7065C44.3539 33.6602 44.3737 33.5761 44.3397 33.5008L43.4634 31.7044L44.8275 33.2922C44.8558 33.3212 44.8729 33.3472 44.8955 33.382L45.182 33.8079C45.233 33.8833 45.3323 33.9035 45.406 33.8514L45.7804 33.5877C45.8484 33.5385 45.874 33.4342 45.8201 33.3588L45.4713 32.8576C45.4599 32.8402 45.4344 32.8025 45.4004 32.762L42.9756 30.1079C42.9217 30.05 42.8338 30.0384 42.7658 30.0876L42.3602 30.3745C42.295 30.4209 42.2751 30.5078 42.3092 30.5802L43.3131 32.7272L41.708 31.0061C41.6541 30.9482 41.5662 30.9366 41.4981 30.9858L41.0982 31.2669C41.0302 31.3161 41.0075 31.4031 41.0415 31.4755L42.6126 34.7264Z" fill="#767676"/>
<path d="M48.0886 31.2524C48.29 31.6696 48.792 31.8435 49.2003 31.6406L49.8413 31.319C50.2497 31.1133 50.4198 30.6005 50.2213 30.1833L49.413 28.4999C49.3733 28.4158 49.2769 28.384 49.1947 28.4245L48.3921 28.8273C48.3098 28.8678 48.2786 28.9663 48.3183 29.0475L48.497 29.4154C48.5367 29.4995 48.636 29.5371 48.7154 29.4966L48.965 29.372L49.4868 30.4527C49.5265 30.5367 49.4868 30.6352 49.4074 30.6758L48.9706 30.896C48.8941 30.9337 48.7948 30.9047 48.7551 30.8207L47.5555 28.3231C47.5186 28.2449 47.5526 28.1406 47.6292 28.1029L48.0659 27.8827C48.1482 27.8422 48.2503 27.8769 48.2872 27.9552L48.4006 28.1927C48.4403 28.2768 48.5367 28.3086 48.619 28.2681L49.0273 28.0624C49.1096 28.0218 49.1408 27.9233 49.1011 27.8422L48.9536 27.5379C48.7494 27.1149 48.2503 26.9469 47.8419 27.1497L47.201 27.4713C46.7869 27.6799 46.6196 28.1841 46.8238 28.6071L48.0886 31.2524Z" fill="#767676"/>
<path d="M51.1031 29.7978C51.1116 29.8383 51.1172 29.8557 51.1286 29.8789L51.3356 30.4207C51.3696 30.5076 51.4604 30.5482 51.5455 30.5134L51.968 30.3454C52.0531 30.3106 52.0928 30.2179 52.0587 30.131L51.8432 29.5689L52.6514 29.2444L52.867 29.8065C52.901 29.8934 52.9917 29.9339 53.0711 29.9021L53.4994 29.7311C53.5844 29.6964 53.6241 29.6036 53.5901 29.5167L53.3831 28.9749C53.3746 28.9488 53.3661 28.9314 53.3462 28.8967L51.5284 25.6979C51.4916 25.6342 51.4037 25.5907 51.3243 25.6226L50.4196 25.9848C50.3402 26.0166 50.2949 26.0978 50.3147 26.1818L51.1031 29.7978ZM52.2998 28.5866L51.6589 28.8416L51.1456 26.5382L52.2998 28.5866Z" fill="#767676"/>
<path d="M53.6001 26.3152C53.7617 26.8744 54.3402 27.1815 54.8876 27.0221L55.174 26.9352C55.3101 26.8946 55.4547 26.9671 55.4944 27.1061L55.7355 27.9319C55.7752 28.0709 55.6986 28.2187 55.5597 28.2621L55.2732 28.3491C55.1371 28.3896 54.9925 28.3114 54.95 28.1694L54.7883 27.616C54.7628 27.5262 54.6749 27.477 54.587 27.5031L54.1531 27.6363C54.0652 27.6624 54.017 27.7522 54.0453 27.842L54.1956 28.3635C54.3573 28.9227 54.9386 29.2443 55.4859 29.0763L55.7724 28.9894C56.3197 28.8242 56.6316 28.2303 56.47 27.6711L56.2431 26.8888C56.0786 26.3239 55.5058 26.0081 54.9528 26.1761L54.6664 26.263C54.5274 26.2978 54.3856 26.2254 54.3431 26.0834L54.2296 25.6952C54.1899 25.5561 54.2693 25.4141 54.4055 25.3707L54.6919 25.2838C54.828 25.2432 54.9726 25.3156 55.0123 25.4547L55.052 25.588C55.0776 25.6778 55.1655 25.727 55.2534 25.701L55.6873 25.5677C55.7752 25.5416 55.8234 25.4518 55.795 25.362L55.7638 25.2548C55.6022 24.6956 55.0265 24.374 54.4735 24.5421L54.1871 24.629C53.6398 24.7941 53.325 25.3881 53.4895 25.9472L53.6001 26.3152Z" fill="#767676"/>
<path d="M57.5854 27.6077C57.679 28.0684 58.1158 28.361 58.5638 28.2654L59.2615 28.1176C59.7068 28.0249 59.9989 27.5758 59.9053 27.118L59.3267 24.2466C59.2331 23.7859 58.7907 23.4875 58.3455 23.5802L57.6478 23.728C57.1969 23.8236 56.9105 24.2756 57.004 24.7363L57.5854 27.6077ZM57.9144 24.4494L58.3852 24.3509C58.4731 24.3335 58.5638 24.3799 58.5809 24.4726L59.131 27.1962C59.1481 27.286 59.0885 27.3817 59.0006 27.399L58.5298 27.4976C58.4419 27.5149 58.3483 27.4541 58.3313 27.3643L57.7839 24.6407C57.7641 24.5508 57.8265 24.4697 57.9144 24.4494Z" fill="#767676"/>
<path d="M61.3082 27.7581L62.8198 27.5639C62.9105 27.5524 62.9729 27.4712 62.9615 27.3785L62.9105 26.9584C62.8992 26.8657 62.8197 26.8048 62.729 26.8164L61.83 26.9323L61.3763 23.2468C61.3649 23.1541 61.2855 23.0932 61.1948 23.1048L60.7439 23.1627C60.6531 23.1743 60.5936 23.2555 60.6049 23.3482L61.1324 27.619C61.138 27.7088 61.2203 27.7697 61.3082 27.7581Z" fill="#767676"/>
<path d="M64.1255 27.4538L64.5793 27.4219C64.67 27.4161 64.7352 27.3379 64.7296 27.2452L64.4517 22.9599C64.446 22.8671 64.3694 22.7918 64.2787 22.8005L63.8249 22.8324C63.7342 22.8382 63.669 22.9222 63.6747 23.0149L63.9526 27.3002C63.9582 27.3929 64.0348 27.4596 64.1255 27.4538Z" fill="#767676"/>
<path d="M66.0156 27.3467H66.4353C66.526 27.3467 66.5969 27.2743 66.5969 27.1816L66.5998 24.4551L67.4449 27.2308C67.4647 27.3033 67.53 27.3496 67.6009 27.3496H68.0802C68.1709 27.3496 68.2418 27.2772 68.2418 27.1845L68.2475 22.8819C68.2475 22.7891 68.1766 22.7167 68.0858 22.7167H67.6519C67.5612 22.7167 67.4903 22.7891 67.4903 22.8819L67.4874 25.2056L66.7331 22.8268C66.7075 22.7602 66.648 22.7138 66.5771 22.7138H66.0184C65.9277 22.7138 65.8568 22.7862 65.8568 22.879L65.8511 27.1816C65.8539 27.2743 65.9248 27.3467 66.0156 27.3467Z" fill="#767676"/>
<path d="M69.5009 27.422L71.0182 27.5495C71.1089 27.5582 71.1855 27.4916 71.194 27.3988L71.228 26.9758C71.2365 26.8831 71.1713 26.8049 71.0805 26.7962L70.1815 26.7208L70.2921 25.3272L70.8593 25.3735C70.9501 25.3822 71.0267 25.3156 71.0352 25.2229L71.0692 24.8143C71.0777 24.7216 71.0125 24.6434 70.9217 24.6347L70.3517 24.5883L70.4311 23.6061L71.3301 23.6814C71.4209 23.6901 71.4974 23.6235 71.5059 23.5307L71.54 23.1077C71.5485 23.015 71.4832 22.9367 71.3925 22.9281L69.8753 22.8006C69.7845 22.7919 69.7079 22.8585 69.6994 22.9512L69.3563 27.2424C69.3449 27.3351 69.4101 27.4133 69.5009 27.422Z" fill="#767676"/>
<path d="M72.3674 27.7233L72.4893 27.7407L72.3901 27.8856C72.3674 27.9146 72.3475 27.9522 72.3419 27.9928L72.3248 28.1174C72.3163 28.1695 72.356 28.2217 72.4014 28.2275L72.6197 28.2593C72.6651 28.2651 72.7161 28.2275 72.7218 28.1753L72.7275 28.1434C72.7332 28.1116 72.7559 28.0797 72.7644 28.0681L72.9118 27.8479C72.9288 27.816 72.9402 27.7842 72.9458 27.7523L73.0224 27.2018C73.0337 27.1091 72.9799 27.0338 72.9033 27.0251L72.4723 26.9613C72.3816 26.9468 72.3022 27.0048 72.2908 27.0946L72.2284 27.5408C72.2171 27.6335 72.2766 27.7088 72.3674 27.7233Z" fill="#767676"/>
<path d="M74.1709 28.007L75.274 28.2446C75.8327 28.3663 76.3857 27.9954 76.502 27.4275L77.0096 24.9734C77.1287 24.3968 76.7685 23.8318 76.2099 23.7101L75.1067 23.4725C75.0188 23.4522 74.9309 23.516 74.9139 23.6058L74.0461 27.81C74.0262 27.9027 74.0801 27.9867 74.1709 28.007ZM75.5576 24.3331L76.0596 24.4403C76.1985 24.4692 76.2893 24.6112 76.2609 24.7532L75.7363 27.2913C75.7079 27.4333 75.569 27.526 75.43 27.4971L74.928 27.3899L75.5576 24.3331Z" fill="#767676"/>
<path d="M77.4564 28.7925L77.8932 28.9171C77.9811 28.9432 78.069 28.891 78.0917 28.8041L79.2345 24.6666C79.2601 24.5768 79.2118 24.4812 79.1239 24.4551L78.6872 24.3305C78.5993 24.3044 78.5085 24.3624 78.4859 24.4522L77.343 28.5897C77.3175 28.6766 77.3685 28.7665 77.4564 28.7925Z" fill="#767676"/>
<path d="M79.2906 29.3516L80.7285 29.8644C80.8135 29.8963 80.9043 29.8499 80.9355 29.763L81.0716 29.3632C81.1028 29.2762 81.0574 29.1835 80.9723 29.1517L80.1216 28.8475L80.5725 27.5292L81.1113 27.7204C81.1964 27.7523 81.2871 27.7059 81.3183 27.619L81.4516 27.2308C81.4828 27.1439 81.4374 27.0512 81.3524 27.0193L80.8135 26.8281L81.134 25.8981L81.9848 26.2023C82.0698 26.2342 82.1606 26.1878 82.1918 26.1009L82.3279 25.7011C82.3591 25.6141 82.3137 25.5214 82.2287 25.4896L80.7908 24.9768C80.7058 24.9449 80.615 24.9912 80.5838 25.0782L79.1914 29.1401C79.163 29.2299 79.2056 29.3226 79.2906 29.3516Z" fill="#767676"/>
<path d="M82.7284 30.6992L83.0006 30.821C83.5224 31.0557 84.1378 30.8123 84.3675 30.2791L84.688 29.5343C84.9205 28.9954 84.6852 28.3752 84.1577 28.1376L83.8854 28.0159C83.7578 27.9522 83.6954 27.8015 83.7521 27.6653L83.9109 27.2973C83.9677 27.164 84.1208 27.1089 84.2513 27.1669L84.5235 27.2886C84.654 27.3465 84.7164 27.4972 84.6596 27.6305L84.6058 27.758C84.5689 27.8421 84.6057 27.9377 84.688 27.9754L85.102 28.1637C85.1843 28.2014 85.2779 28.1637 85.3147 28.0797L85.3601 27.9754C85.5898 27.4422 85.3573 26.8162 84.8298 26.5786L84.5575 26.4569C84.0357 26.2222 83.4203 26.4656 83.1906 26.9988L83.0403 27.3436C82.8106 27.8768 83.0545 28.494 83.5735 28.7346L83.8457 28.8563C83.9762 28.9142 84.0386 29.0649 83.9818 29.1982L83.6415 29.9864C83.5848 30.1197 83.4317 30.1805 83.2984 30.1226L83.0261 30.0009C82.8957 29.9429 82.8361 29.7865 82.8929 29.6503L83.1197 29.1229C83.1566 29.0388 83.1197 28.9432 83.0375 28.9055L82.6234 28.7172C82.5412 28.6795 82.4476 28.7172 82.4108 28.8012L82.1952 29.2967C81.9683 29.8357 82.2066 30.4645 82.7284 30.6992Z" fill="#767676"/>
<path d="M85.0091 31.8L86.3505 32.5389C86.4299 32.5823 86.5263 32.5533 86.5689 32.4722L86.7645 32.0984C86.8071 32.0173 86.7787 31.9188 86.6993 31.8753L85.9053 31.4378L86.5547 30.2093L87.0567 30.4846C87.1361 30.5281 87.2325 30.4991 87.275 30.418L87.465 30.0558C87.5076 29.9747 87.4792 29.8762 87.3998 29.8327L86.8978 29.5574L87.3544 28.6882L88.1485 29.1257C88.2279 29.1692 88.3243 29.1402 88.3697 29.0591L88.5653 28.6853C88.6079 28.6042 88.5795 28.5057 88.5001 28.4622L87.1587 27.7234C87.0793 27.6799 86.9829 27.7089 86.9404 27.79L84.9439 31.5769C84.8986 31.658 84.9269 31.7566 85.0091 31.8Z" fill="#767676"/>
<path d="M87.5329 33.2486L88.8176 34.083C88.8941 34.1323 88.9934 34.1091 89.0416 34.0309L89.2628 33.6745C89.311 33.5963 89.2883 33.4949 89.2146 33.4456L88.4489 32.9502L90.3972 29.8123C90.4454 29.7341 90.4227 29.6327 90.3462 29.5834L89.9633 29.3343C89.8867 29.285 89.7875 29.3082 89.7393 29.3864L87.4818 33.0197C87.4336 33.0979 87.4563 33.1993 87.5329 33.2486Z" fill="#767676"/>
<path d="M90.0722 34.2309L89.8141 34.5959C89.7602 34.6713 89.78 34.7669 89.8538 34.8219L89.953 34.8944L89.7999 34.9755C89.7659 34.99 89.7318 35.0161 89.7091 35.0479L89.6382 35.1493C89.607 35.1928 89.6184 35.2565 89.6552 35.2855L89.8339 35.4159C89.8708 35.442 89.9332 35.4333 89.9644 35.3898L89.9843 35.3637C90.0041 35.3377 90.0381 35.3203 90.0523 35.3145L90.2821 35.1899C90.3104 35.1696 90.3359 35.1464 90.3558 35.1204L90.6735 34.6684C90.7273 34.5931 90.7132 34.5003 90.6479 34.454L90.2962 34.1961C90.2197 34.144 90.1232 34.1556 90.0722 34.2309Z" fill="#767676"/>
<path d="M91.6898 36.2418C91.7607 36.2997 91.8599 36.2881 91.9166 36.2186L93.1418 34.6771L93.5899 35.048C93.6608 35.1059 93.76 35.0944 93.8168 35.0248L94.0748 34.7003C94.1316 34.6279 94.123 34.5264 94.0521 34.4685L93.6041 34.0976L94.2081 33.3385L94.9114 33.9238C94.9823 33.9817 95.0816 33.973 95.1383 33.9006L95.3992 33.5703C95.456 33.4978 95.4446 33.3964 95.3765 33.3385L94.1939 32.3562C94.123 32.2983 94.0238 32.307 93.9671 32.3794L91.3098 35.7202C91.253 35.7927 91.2644 35.8941 91.3324 35.952L91.6898 36.2418Z" fill="#767676"/>
<path d="M93.9519 38.2408L94.4681 38.7421C94.797 39.0608 95.3273 39.0492 95.6421 38.7131L98.081 36.0939C98.1434 36.0272 98.1462 35.92 98.0782 35.8563L97.7492 35.5375C97.684 35.4738 97.5791 35.4825 97.5167 35.5491L95.1317 38.1104C95.0693 38.1771 94.9643 38.1771 94.8991 38.1104L94.5503 37.7715C94.4851 37.7077 94.4766 37.6005 94.539 37.5339L96.924 34.9725C96.9864 34.9059 96.9892 34.7987 96.9211 34.735L96.5922 34.4163C96.5269 34.3525 96.422 34.3612 96.3596 34.4279L93.9207 37.0471C93.6116 37.3803 93.623 37.9221 93.9519 38.2408Z" fill="#767676"/>
<path d="M95.9318 40.2605L96.947 41.4195C97.0066 41.489 97.1087 41.4948 97.1767 41.4311L97.4858 41.1471C97.5539 41.0863 97.5596 40.982 97.4972 40.9124L96.896 40.2258L97.9141 39.2929L98.2941 39.7275C98.3536 39.797 98.4557 39.8028 98.5238 39.739L98.8215 39.4638C98.8896 39.403 98.8953 39.2987 98.8329 39.2291L98.4529 38.7945L99.1703 38.1369L99.7715 38.8206C99.8311 38.8901 99.9332 38.8959 100.001 38.8322L100.31 38.5483C100.378 38.4874 100.384 38.3831 100.322 38.3136L99.3065 37.1547C99.2469 37.0851 99.1448 37.0794 99.0768 37.1431L95.9403 40.0143C95.8751 40.0896 95.8722 40.191 95.9318 40.2605Z" fill="#767676"/>
<path d="M97.8141 42.4914L98.7471 43.7198C98.8038 43.7923 98.9031 43.8068 98.974 43.7488L99.303 43.4881C99.3739 43.4301 99.3881 43.3287 99.3313 43.2563L98.7755 42.5233L101.648 40.249C101.719 40.1911 101.733 40.0897 101.677 40.0172L101.399 39.6522C101.342 39.5798 101.243 39.5653 101.172 39.6232L97.8424 42.2568C97.7715 42.3147 97.7602 42.4161 97.8141 42.4914Z" fill="#767676"/>
<path d="M100.945 47.11L101.302 47.7387C101.529 48.1386 102.04 48.2805 102.437 48.0458L104.918 46.5711C105.315 46.3335 105.451 45.8091 105.224 45.4092L104.867 44.7805C104.634 44.3749 104.124 44.2416 103.727 44.4763L101.245 45.951C100.846 46.1886 100.712 46.7044 100.945 47.11ZM101.708 46.5943L104.059 45.1948C104.138 45.1485 104.232 45.1832 104.277 45.2644L104.518 45.6874C104.564 45.7685 104.547 45.8699 104.467 45.9163L102.113 47.3157C102.034 47.3621 101.929 47.3331 101.884 47.2548L101.643 46.8318C101.603 46.7507 101.631 46.6406 101.708 46.5943Z" fill="#767676"/>
<path d="M102.301 49.6395L102.502 50.0538C102.542 50.1378 102.638 50.1697 102.718 50.1291L106.489 48.2256C106.572 48.185 106.609 48.0836 106.569 47.9996L106.367 47.5852C106.328 47.5012 106.226 47.4723 106.143 47.5128L102.372 49.4164C102.292 49.4598 102.258 49.5583 102.301 49.6395Z" fill="#767676"/>
<path d="M107.296 49.6048C107.262 49.5179 107.169 49.4802 107.084 49.515L103.201 51.1839C103.119 51.2187 103.08 51.3143 103.116 51.4012L103.706 52.8355C103.74 52.9195 103.834 52.96 103.919 52.9224L104.302 52.7572C104.387 52.7224 104.424 52.6268 104.39 52.5399L104.038 51.6852L107.39 50.2452C107.472 50.2104 107.512 50.1148 107.478 50.0278L107.296 49.6048Z" fill="#767676"/>
</g>
<defs>
<clipPath id="clip0_247_4">
<rect width="132.794" height="132.794" fill="white" transform="translate(0.0380859 0.897522)"/>
</clipPath>
</defs>
</svg>
