<svg width="124" height="17" viewBox="0 0 124 17" fill="none" xmlns="http://www.w3.org/2000/svg">
<path d="M9.00796 13.087L12.7174 12.1286L14.2672 16.9984L9.00796 13.087ZM17.5447 6.79251H11.0151L9.00796 0.523926L7.00081 6.79251H0.471191L5.75586 10.678L3.7487 16.9466L9.03337 13.0611L12.2855 10.678L17.5447 6.79251Z" fill="#FFB400"/>
<path d="M35.5666 13.087L39.276 12.1286L40.8258 16.9984L35.5666 13.087ZM44.1033 6.79251H37.5737L35.5666 0.523926L33.5594 6.79251H27.0298L32.3145 10.678L30.3073 16.9466L35.592 13.0611L38.8441 10.678L44.1033 6.79251Z" fill="#FFB400"/>
<path d="M62.1261 13.087L65.8356 12.1286L67.3854 16.9984L62.1261 13.087ZM70.6629 6.79251H64.1333L62.1261 0.523926L60.119 6.79251H53.5894L58.874 10.678L56.8669 16.9466L62.1515 13.0611L65.4036 10.678L70.6629 6.79251Z" fill="#FFB400"/>
<path d="M88.6837 13.087L92.3932 12.1286L93.943 16.9984L88.6837 13.087ZM97.2205 6.79251H90.6909L88.6837 0.523926L86.6766 6.79251H80.147L85.4316 10.678L83.4245 16.9466L88.7092 13.0611L91.9613 10.678L97.2205 6.79251Z" fill="#FFB400"/>
<path d="M115.243 13.087L118.953 12.1286L120.503 16.9984L115.243 13.087ZM123.78 6.79251H117.25L115.243 0.523926L113.236 6.79251H106.707L111.991 10.678L109.984 16.9466L115.269 13.0611L118.521 10.678L123.78 6.79251Z" fill="#FFB400"/>
</svg>
