<svg width="12" height="11" viewBox="0 0 12 11" fill="none" xmlns="http://www.w3.org/2000/svg">
<path d="M11.9329 2.07103C11.5105 2.25788 11.0625 2.38059 10.6038 2.43511C11.0873 2.14597 11.4491 1.69091 11.6219 1.15475C11.1682 1.42477 10.6708 1.614 10.1523 1.71636C9.80409 1.34375 9.34249 1.09663 8.83931 1.01343C8.33613 0.930221 7.81956 1.01559 7.36989 1.25626C6.92023 1.49692 6.56268 1.87941 6.35283 2.34425C6.14297 2.80909 6.09257 3.33024 6.20946 3.82668C5.28936 3.78057 4.38925 3.54146 3.56756 3.1249C2.74588 2.70833 2.02098 2.12362 1.43993 1.40872C1.23426 1.76198 1.12618 2.16356 1.12676 2.57233C1.12676 3.37463 1.5351 4.08342 2.15591 4.4984C1.78852 4.48683 1.42921 4.38762 1.10795 4.20902V4.23779C1.10806 4.77212 1.29296 5.28997 1.63129 5.70354C1.96963 6.11711 2.44058 6.40094 2.9643 6.50691C2.62325 6.59934 2.26564 6.61296 1.91854 6.54675C2.0662 7.00668 2.354 7.40892 2.74164 7.69714C3.12928 7.98537 3.59736 8.14515 4.08032 8.15411C3.60032 8.5311 3.05071 8.80978 2.46293 8.97421C1.87516 9.13865 1.26073 9.18562 0.654785 9.11245C1.71255 9.7927 2.94388 10.1538 4.2015 10.1527C8.45811 10.1527 10.7859 6.62643 10.7859 3.56829C10.7859 3.46869 10.7831 3.36799 10.7787 3.2695C11.2318 2.94203 11.6228 2.53637 11.9334 2.07158L11.9329 2.07103Z" fill="#2B2B2B"/>
</svg>
