<svg width="15" height="15" viewBox="0 0 15 15" fill="none" xmlns="http://www.w3.org/2000/svg">
<path d="M5.5291 8.83707V10.9713H9.79749V8.83707H14.7773V13.8168C14.7773 14.0055 14.7023 14.1865 14.5689 14.3199C14.4355 14.4533 14.2545 14.5282 14.0659 14.5282H1.26071C1.07204 14.5282 0.891093 14.4533 0.75768 14.3199C0.624267 14.1865 0.549316 14.0055 0.549316 13.8168V8.83707H5.5291ZM6.9519 7.41427H8.37469V9.54846H6.9519V7.41427ZM4.1063 3.14588V1.01169C4.1063 0.823016 4.18126 0.642069 4.31467 0.508657C4.44808 0.375244 4.62903 0.300293 4.8177 0.300293H10.5089C10.6976 0.300293 10.8785 0.375244 11.0119 0.508657C11.1453 0.642069 11.2203 0.823016 11.2203 1.01169V3.14588H14.0659C14.2545 3.14588 14.4355 3.22083 14.5689 3.35425C14.7023 3.48766 14.7773 3.66861 14.7773 3.85728V7.41427H9.79749V5.99147H5.5291V7.41427H0.549316V3.85728C0.549316 3.66861 0.624267 3.48766 0.75768 3.35425C0.891093 3.22083 1.07204 3.14588 1.26071 3.14588H4.1063ZM5.5291 1.72309V3.14588H9.79749V1.72309H5.5291Z" fill="#767676"/>
</svg>
