<svg width="12" height="9" viewBox="0 0 12 9" fill="none" xmlns="http://www.w3.org/2000/svg">
<path d="M11.5755 1.53646C11.8284 2.52246 11.8284 4.58077 11.8284 4.58077C11.8284 4.58077 11.8284 6.63908 11.5755 7.62508C11.435 8.17009 11.0239 8.5989 10.5032 8.74387C9.55761 9.00725 6.2953 9.00725 6.2953 9.00725C6.2953 9.00725 3.03465 9.00725 2.08738 8.74387C1.56451 8.59669 1.15395 8.16843 1.01507 7.62508C0.762207 6.63908 0.762207 4.58077 0.762207 4.58077C0.762207 4.58077 0.762207 2.52246 1.01507 1.53646C1.15561 0.991454 1.56672 0.562639 2.08738 0.417672C3.03465 0.154297 6.2953 0.154297 6.2953 0.154297C6.2953 0.154297 9.55761 0.154297 10.5032 0.417672C11.0261 0.564852 11.4367 0.993114 11.5755 1.53646ZM5.18868 6.51735L8.50854 4.58077L5.18868 2.64419V6.51735Z" fill="#2B2B2B"/>
</svg>
